<svg width="357" height="100" viewBox="0 0 357 100" fill="none" xmlns="http://www.w3.org/2000/svg">
<path d="M121.046 0.832275H116.528V31.2722H121.046V0.832275ZM112.188 0.832275H107.669V24.1379C107.669 27.705 106.005 28.4185 104.637 28.4185H103.092V13.4363H98.5731V31.4506C98.5731 34.0071 98.5731 35.3745 97.8002 36.8608C97.4435 37.5742 96.6112 38.2877 95.7194 38.5255V39.9524C100.892 39.8335 103.092 37.2175 103.092 31.2722H105.767C107.907 31.2722 109.512 30.4993 110.642 29.013C111.712 27.6456 112.188 25.9809 112.188 24.019V0.832275ZM94.1736 0.832275H89.6552V31.2722H94.1736V0.832275ZM163.436 3.38876H158.918V7.31266H163.436V3.38876ZM168.371 10.2853H161.356C155.232 10.2853 152.378 12.604 152.378 17.2413C152.378 21.7003 155.47 24.6135 160.761 24.6135H163.971V25.0297C163.971 27.2294 162.901 28.359 160.939 28.359H147.265C141.617 28.359 139.536 26.8133 139.536 22.2354V13.3769H135.018V22.9488C135.018 29.3697 137.99 31.2722 146.552 31.2722H162.01C164.09 31.2722 165.696 30.5588 166.825 29.013C167.836 27.705 168.371 26.0998 168.371 24.1379V10.2853ZM161.95 21.9976C160.523 21.9976 156.778 21.5814 156.778 17.4791C156.778 14.6848 158.383 13.1985 161.712 13.1985H163.793V21.9976H161.95ZM32.4614 10.2853H28.3591C17.3603 10.2853 17.0036 15.9333 17.0036 22.5326V28.4185C17.0036 31.6884 15.8145 32.2829 14.0904 32.2829H10.5826C8.32342 32.2829 4.57788 31.9262 4.57788 23.7811C4.57788 16.944 7.55054 13.9119 13.4364 13.9119C13.4958 13.9119 13.5553 13.9119 13.6147 13.9119V11.2366C8.97741 11.2366 6.06421 12.1284 3.32937 14.6848C1.0107 16.944 0 19.9762 0 23.8406C0 32.2829 3.74554 35.1367 8.79905 35.1367H15.1605C19.2033 35.1367 21.4625 32.5802 21.4625 27.9429V21.8787C21.4625 16.1712 22.3543 13.0796 27.8835 13.0796V31.2128H84.78C85.2557 29.2508 85.3151 26.9322 85.3151 26.9322C85.1367 18.1926 79.132 12.0094 70.5113 12.0094C67.717 12.0094 65.0416 12.604 62.9013 13.6741V21.3436H67.4197V15.5766C67.4197 15.5766 68.6088 14.9226 70.7491 14.9226C75.3864 14.9226 80.2616 19.2627 80.2616 27.2294C80.2616 27.2889 80.2616 27.8834 80.1427 28.359H59.2747L59.3341 27.2889C59.3341 18.3115 53.2699 12.0094 44.5303 12.0094C41.736 12.0094 39.0606 12.604 36.9203 13.6741V21.3436H41.4388V15.5766C41.4388 15.5766 42.6278 14.9226 44.7681 14.9226C49.4055 14.9226 54.2806 19.2627 54.2806 27.2294V28.359H32.4614V10.2853ZM220.333 13.3769C217.717 13.3769 215.398 13.793 214.209 14.0308V28.359H209.929C209.988 27.9429 210.107 26.9916 210.107 26.9916C210.702 19.3816 206.243 15.101 200 15.101C195.184 15.101 190.785 18.1926 187.634 22.4732L186.98 23.4839V15.9333H182.461V24.1973C182.461 27.0511 181.51 28.359 179.429 28.359H177.289V13.3769H172.711V31.3911C172.711 33.9476 172.711 35.315 171.938 36.8014C171.522 37.5148 170.749 38.2282 169.857 38.466V39.8929C174.97 39.774 177.229 37.1581 177.229 31.2128H221.165C227.17 31.2128 231.391 27.705 231.391 22.2948C231.391 19.6194 230.737 17.4197 228.954 15.8144C226.694 13.9119 223.365 13.3769 220.333 13.3769ZM218.728 28.359V16.6468C218.728 16.6468 219.263 16.4684 220.333 16.4684C224.495 16.4684 226.813 18.6682 226.813 22.4732C226.813 26.1593 224.078 28.359 220.333 28.359H218.728ZM187.931 28.359L188.228 27.824C191.439 21.5814 195.363 18.5493 199.762 18.5493C199.881 18.5493 200.059 18.5493 200.238 18.5493C204.221 18.7276 206.064 22.1165 205.708 26.6943L205.529 28.359H187.931ZM75.2081 34.6611H70.6897V38.585H75.2081V34.6611ZM17.3603 37.3959H12.8419V41.3792H17.3603V37.3959ZM9.51249 37.3959H4.99405V41.3792H9.51249V37.3959Z" fill="#273979"/>
<path d="M356.778 0H262.069V100H356.778V0ZM268.549 6.8371H350.238V93.044H268.549V6.8371Z" fill="#273979"/>
<path d="M309.513 17.7763L293.282 27.5861V43.9356L278.895 52.7347V72.4136L294.828 82.2234L309.453 73.5433L323.544 82.2234L339.893 72.2353V52.6752L325.506 43.9356V27.5861L309.513 17.7763ZM309.513 65.5171L299.822 59.6907V31.51L309.513 25.6241L319.085 31.51V59.6907C319.025 59.7501 309.572 65.4576 309.513 65.5171ZM323.782 74.3756L315.874 69.5599L325.506 63.674V51.9023L333.413 56.6586V68.4897L323.782 74.3756ZM295.006 74.3756L285.434 68.4897V56.6586L293.282 51.9023V63.674L302.914 69.5599L295.006 74.3756Z" fill="#273979"/>
<path d="M34.1854 61.0581H29.667V91.3197H34.1854V61.0581Z" fill="#273979"/>
<path d="M15.5768 62.5448H11.2367L0.0595703 91.32H4.28074L7.19393 83.2344H18.0144L20.6303 91.32H25.8622L15.5768 62.5448ZM8.32354 80.3807L12.9014 67.5983L17.1226 80.3807H8.32354Z" fill="#273979"/>
<path d="M154.875 62.5448H145.481V91.32H153.983C160.226 91.32 164.328 87.9907 164.328 82.9372C164.328 78.716 160.701 76.1595 157.253 76.0406V75.3272C158.145 75.0894 162.544 73.5436 162.544 68.4306C162.544 64.6256 159.631 62.5448 154.875 62.5448ZM150 74.8515V65.3391H153.27C156.183 65.3391 157.967 66.8848 157.967 69.5008C157.967 72.5329 155.588 74.8515 152.14 74.8515H150ZM150 88.4663V77.7053H153.924C157.61 77.7053 159.869 79.7267 159.869 83.0561C159.869 86.326 157.55 88.4663 153.983 88.4663H150Z" fill="#273979"/>
<path d="M217.717 61.0581H213.199V91.3197H217.717V79.3696L226.159 91.6764L230.559 90.0712L222.771 79.548L228.775 72.1164L224.733 70.095L217.717 79.2507V61.0581Z" fill="#273979"/>
<path d="M201.427 70.4518C198.811 70.4518 196.492 71.4625 194.828 73.365L194.174 74.0785V70.9869H189.715V91.3793H194.233V79.132C194.233 75.6837 196.195 73.4839 199.227 73.4839C202.022 73.4839 203.746 75.3864 203.746 78.7753V91.3793H208.264V78.1213C208.264 73.0083 205.946 70.4518 201.427 70.4518Z" fill="#273979"/>
<path d="M130.678 70.9867H126.159V91.3791H130.678V70.9867Z" fill="#273979"/>
<path d="M130.678 63.6148H126.159V67.5387H130.678V63.6148Z" fill="#273979"/>
<path d="M97.6815 63.6148H93.1631V67.5387H97.6815V63.6148Z" fill="#273979"/>
<path d="M107.135 61.0581H102.676V91.3197H107.135V79.0724C107.135 75.6241 109.097 73.4243 112.188 73.4243C115.042 73.4243 116.707 75.3268 116.707 78.7157V91.3197H121.225V78.1211C121.225 73.0676 118.906 70.5111 114.388 70.5111C111.772 70.5111 109.453 71.5218 107.789 73.4243L107.135 74.1378V61.0581Z" fill="#273979"/>
<path d="M57.9667 62.5448H48.9893V91.32H53.5077V79.1322H57.3127C57.3127 79.1322 62.9607 91.2606 63.1985 91.7957C63.6742 91.6767 67.5981 90.9633 68.3709 90.785C67.8953 89.9526 61.7717 78.2998 61.7717 78.2998L62.0689 78.1215C65.1605 76.219 66.6468 73.4841 66.6468 69.8575C66.5874 65.2796 63.3769 62.5448 57.9667 62.5448ZM53.5077 76.2784V65.3391H57.2532C60.2853 65.3391 62.1284 67.301 62.1284 70.3331C62.1284 73.0679 60.4042 76.219 56.5992 76.219H53.5077V76.2784Z" fill="#273979"/>
<path d="M97.6808 70.9867H93.1623V91.5575C93.1623 93.8761 92.8056 95.8975 92.3895 96.9082C92.0327 97.7406 91.2004 98.3351 90.3086 98.5729V99.9998C95.481 99.8809 97.6808 97.3244 97.6808 91.3791V70.9867Z" fill="#273979"/>
<path d="M176.873 70.4518C174.078 70.4518 171.819 71.2842 169.679 73.0083C169.917 73.4245 170.69 74.6135 170.987 75.0297C172.592 73.6623 174.197 73.0678 176.219 73.0678C178.24 73.0678 179.667 74.6135 179.964 76.6349L180.024 76.9917L175.208 78.478C170.333 79.9049 168.014 82.283 168.014 85.7907C168.014 89.2984 170.273 91.7955 173.424 91.7955C177.705 91.7955 180.143 87.7527 180.143 87.7527V91.2604H184.72V77.8835C184.78 72.9489 182.105 70.4518 176.873 70.4518ZM175.386 88.8823C173.841 88.8823 172.592 87.3365 172.592 85.3745C172.592 82.8181 174.019 81.0345 176.813 80.1427L179.786 79.132L180.261 78.9536L180.321 79.4292C180.618 84.0666 179.191 86.3852 178.3 87.3959C177.408 88.3472 176.397 88.8823 175.386 88.8823Z" fill="#273979"/>
<path d="M80.3807 70.4518C77.527 70.4518 75.3272 71.2842 73.1869 73.0083C73.4247 73.4245 74.1976 74.6135 74.4949 75.0297C76.1001 73.6623 77.7648 73.0678 79.7267 73.0678C81.7481 73.0678 83.2345 74.6135 83.5317 76.6349L83.5912 76.9917L78.7755 78.478C73.9003 79.9049 71.6411 82.283 71.6411 85.7907C71.6411 89.2984 73.9003 91.7955 76.9919 91.7955C81.2725 91.7955 83.7101 87.7527 83.7101 87.7527V91.2604H88.288V77.8835C88.2285 72.9489 85.6126 70.4518 80.3807 70.4518ZM78.8349 88.8823C77.2892 88.8823 76.0406 87.3365 76.0406 85.3745C76.0406 82.8181 77.4675 81.0345 80.2618 80.1427L83.2345 79.132L83.7101 78.9536L83.7695 79.4292C84.0668 84.0666 82.6399 86.3852 81.7481 87.3959C80.8563 88.3472 79.8456 88.8823 78.8349 88.8823Z" fill="#273979"/>
</svg>
