<svg width="10" height="13" viewBox="0 0 10 13" fill="none" xmlns="http://www.w3.org/2000/svg">
<path fill-rule="evenodd" clip-rule="evenodd" d="M8.15107 12.5473H1.44837C0.740522 12.5473 0.166626 11.9629 0.166626 11.2419V7.02743C0.166626 6.39872 0.603447 5.87368 1.18491 5.75017V3.84746C1.18491 1.81799 2.80653 0.166664 4.79983 0.166664C6.79298 0.166664 8.4146 1.81784 8.4146 3.84746V5.75017C8.99584 5.87405 9.43267 6.39872 9.43267 7.02743V11.2419H9.43281C9.43281 11.9628 8.85891 12.5473 8.15107 12.5473ZM4.79961 7.68753C4.17328 7.68753 3.66534 8.20451 3.66534 8.84247C3.66534 9.27015 3.89433 9.64266 4.23378 9.84243V11.1264H5.36543V9.84243C5.70489 9.64274 5.93388 9.27015 5.93388 8.84247C5.93388 8.20451 5.42601 7.68753 4.79961 7.68753ZM3.07116 3.84754C3.07116 2.87682 3.84663 2.08714 4.80005 2.08714C5.75324 2.08714 6.52872 2.87697 6.52879 3.84754V5.72226H3.07116V3.84754Z" fill="#FEEE00"/>
</svg>
