<svg width="16" height="16" viewBox="0 0 16 16" fill="none" xmlns="http://www.w3.org/2000/svg">
<path d="M2.18579 10.5204C2.18579 10.3785 2.18579 7.61611 2.18579 6.6543H13.8876V13.3982C13.8876 14.0153 13.3786 14.5155 12.7507 14.5155H3.32273C2.69484 14.5155 2.18579 14.0153 2.18579 13.3982C2.18579 11.2043 2.18579 12.4753 2.18579 11.8451" fill="#FEEE00"/>
<path d="M2.18579 10.5204C2.18579 10.3785 2.18579 7.61611 2.18579 6.6543H13.8876V13.3982C13.8876 14.0153 13.3786 14.5155 12.7507 14.5155H3.32273C2.69484 14.5155 2.18579 14.0153 2.18579 13.3982C2.18579 11.2043 2.18579 12.4753 2.18579 11.8451" stroke="#404554"/>
<path d="M8.27246 3.95645L8.2949 3.93453L10.4981 1.76946C10.9137 1.36103 11.5876 1.36103 12.0032 1.76946C12.4188 2.1779 12.4188 2.84014 12.0032 3.24858L11.3052 3.95256" stroke="#404554"/>
<path d="M8.29492 3.97842L8.27248 3.95651L6.06932 1.79144C5.65369 1.383 4.9798 1.383 4.56418 1.79144C4.23305 2.11683 4.16573 2.60332 4.36221 2.99422" stroke="#404554"/>
<path d="M8.04697 3.97793L13.8596 3.93008C14.2665 3.92673 14.5991 4.2539 14.6025 4.66083C14.6025 4.66285 14.6025 4.66487 14.6025 4.6669V6.6034C14.6025 7.00916 14.2745 7.33857 13.8687 7.34023L2.19177 7.38817C1.78483 7.38984 1.45358 7.0613 1.45191 6.65436C1.45191 6.65335 1.4519 6.65234 1.4519 6.65134V4.71479C1.4519 4.30785 1.7818 3.97795 2.18875 3.97795H8.0409C8.04292 3.97795 8.04495 3.97794 8.04697 3.97793Z" fill="#FEEE00" stroke="#404554"/>
<path d="M8.14445 3.97839H9.61713V14.5156H6.72681V3.97839H8.14445Z" fill="white" stroke="#404554"/>
<path d="M6.72681 7.3882H9.54722" stroke="#333848"/>
<path d="M2.1858 10.1085V11.6843" stroke="#404554"/>
</svg>
