<svg width="682" height="100" viewBox="0 0 682 100" fill="none" xmlns="http://www.w3.org/2000/svg">
<path fill-rule="evenodd" clip-rule="evenodd" d="M303.771 0.483711H377.36L340.807 37.0369L340.646 37.1995L303.771 0.483711Z" fill="#D41F26"/>
<path fill-rule="evenodd" clip-rule="evenodd" d="M303.771 73.9141H377.36L340.807 37.3609L340.646 37.1995L303.771 73.9141Z" fill="#D41F26"/>
<path fill-rule="evenodd" clip-rule="evenodd" d="M304.415 0.322594V73.9143L267.862 37.3599L267.701 37.1997L304.415 0.322594Z" fill="#D41F26"/>
<path fill-rule="evenodd" clip-rule="evenodd" d="M377.199 0.322594V73.9143L413.753 37.3599L413.914 37.1997L377.199 0.322594Z" fill="#D41F26"/>
<path d="M488.148 100L475.75 92.4314L481.225 83.4139L493.624 90.8211L488.148 100ZM524.38 65.8629C524.058 66.5061 522.609 73.7532 522.609 73.7532H464.156C464.156 73.7532 437.585 73.1088 441.13 51.3689C441.13 51.3689 446.001 35.6273 452.078 33.1736C452.299 33.2808 451.151 36.545 451.113 36.5556C451.113 36.5356 448.294 41.1651 447.557 46.4967C447.244 48.7561 447.578 50.7587 448.416 53.1159C449.012 54.7898 450.097 56.3789 451.435 57.9704C451.435 58.1329 456.709 62.8826 462.385 62.4797C462.385 62.6411 519.389 62.4797 519.389 62.4797C519.389 62.4797 520.356 55.7169 511.498 41.8684L517.618 30.1131C517.618 30.1131 524.38 40.5808 526.152 52.8178C526.152 52.9792 525.829 62.9639 524.38 65.8629ZM681.875 57.65C681.841 63.5446 680.02 69.0011 677.52 73.5918C677.239 73.6354 662.404 76.5332 655.645 71.8095C654.678 71.1333 653.474 70.3558 653.526 70.3711C653.215 70.4312 649.019 73.4292 649.019 73.4292L616.651 73.5918L614.235 69.404C614.235 69.404 610.773 74.1042 606.346 73.5918C606.346 73.6436 539.357 73.9134 539.357 73.9134V9.98474L547.084 6.10352e-05L548.053 54.9123C548.053 54.9123 546.599 62.0203 553.205 62.3195C553.217 62.8838 611.5 62.415 611.498 62.3195C611.498 62.3195 616.329 63.2066 615.041 51.6905C615.041 52.0828 625.346 40.5808 625.346 40.5808C625.346 40.5808 625.667 56.1445 620.403 61.588C620.414 63.1394 652.631 62.5092 652.721 62.3195C652.721 62.3195 653.686 58.0599 652.721 53.9463C653.043 54.0135 653.929 49.2732 663.509 42.0297C663.833 42.1075 658.84 61.3536 658.84 61.3536C658.84 61.3536 663.992 63.2242 668.824 62.9639C668.824 63.3456 675.266 63.1241 675.266 63.1241C675.266 63.117 672.767 50.5372 672.85 50.5631C672.628 50.3052 681.758 40.3228 681.867 40.258C681.867 40.258 681.927 48.6359 681.875 57.65Z" fill="#070405"/>
<path d="M199.855 38.2693C200.771 38.0973 201.977 37.9772 203.471 37.9053C204.965 37.837 206.765 37.8028 208.871 37.8028C213.727 37.8028 217.803 38.5297 221.098 39.9857C224.391 41.4393 226.77 43.4337 228.229 45.9616C229.69 48.4908 230.42 51.1236 230.42 53.8589C230.42 58.0172 228.807 61.51 225.58 64.3313C222.353 67.1549 217.667 68.5674 211.521 68.5674C207.683 68.5674 203.794 68.0985 199.855 67.1632V38.2693ZM199.855 6.41398C202.571 5.653 205.627 5.27132 209.024 5.27132C215.341 5.27132 220.146 6.72615 223.441 9.6358C226.734 12.5466 228.382 16.0629 228.382 20.1847C228.382 22.8541 227.72 25.3126 226.395 27.5649C225.071 29.816 223.162 31.4888 220.664 32.5796C218.168 33.6716 214.441 34.217 209.483 34.217C207.547 34.217 205.771 34.1569 204.159 34.0344C202.545 33.9143 201.111 33.7317 199.855 33.489V6.41398ZM235.871 30.0858C237.976 27.2975 239.029 24.1346 239.029 20.6018C239.029 16.4788 237.687 12.8317 235.005 9.66171C232.322 6.49055 228.434 4.28298 223.339 3.03548C219.977 2.205 215.51 1.78799 209.942 1.78799H180.089V3.71165H182.687C185.302 3.71165 187.272 4.475 188.597 5.99815C189.58 7.1408 190.074 9.89495 190.074 14.2606V59.7842C190.074 63.734 189.683 66.315 188.902 67.5284C187.645 69.399 185.572 70.3343 182.687 70.3343H180.089V72.2568H212.692C220.469 72.2568 226.25 71.5218 230.039 70.0481C233.824 68.5768 236.805 66.2373 238.979 63.032C241.152 59.829 242.238 56.4764 242.238 52.9766C242.238 48.3695 240.591 44.4726 237.298 41.285C234.92 38.9973 231.337 37.334 226.548 36.295C230.657 34.945 233.766 32.8741 235.871 30.0858Z" fill="black"/>
<path d="M138.663 38.2693C139.58 38.0973 140.786 37.9772 142.281 37.9053C143.774 37.837 145.574 37.8028 147.681 37.8028C152.536 37.8028 156.612 38.5297 159.906 39.9857C163.201 41.4393 165.578 43.4337 167.039 45.9616C168.499 48.4908 169.228 51.1236 169.228 53.8589C169.228 58.0172 167.616 61.51 164.389 64.3313C161.163 67.1549 156.477 68.5674 150.33 68.5674C146.492 68.5674 142.603 68.0985 138.663 67.1632V38.2693ZM138.663 6.41398C141.379 5.653 144.436 5.27132 147.834 5.27132C154.15 5.27132 158.955 6.72615 162.25 9.6358C165.544 12.5466 167.192 16.0629 167.192 20.1847C167.192 22.8541 166.53 25.3126 165.204 27.5649C163.88 29.816 161.97 31.4888 159.474 32.5796C156.977 33.6716 153.25 34.217 148.292 34.217C146.355 34.217 144.58 34.1569 142.969 34.0344C141.355 33.9143 139.919 33.7317 138.663 33.489V6.41398ZM174.68 30.0858C176.785 27.2975 177.838 24.1346 177.838 20.6018C177.838 16.4788 176.497 12.8317 173.813 9.66171C171.131 6.49055 167.242 4.28298 162.149 3.03548C158.786 2.205 154.32 1.78799 148.75 1.78799H118.897V3.71165H121.496C124.11 3.71165 126.08 4.475 127.405 5.99815C128.39 7.1408 128.883 9.89495 128.883 14.2606V59.7842C128.883 63.734 128.491 66.315 127.711 67.5284C126.453 69.399 124.381 70.3343 121.496 70.3343H118.897V72.2568H151.501C159.278 72.2568 165.06 71.5218 168.848 70.0481C172.633 68.5768 175.614 66.2373 177.788 63.032C179.961 59.829 181.047 56.4764 181.047 52.9766C181.047 48.3695 179.4 44.4726 176.107 41.285C173.73 38.9973 170.146 37.334 165.358 36.295C169.465 34.945 172.574 32.8741 174.68 30.0858Z" fill="black"/>
<path d="M39.4299 0.177811C39.0906 1.80698 38.6406 2.88955 38.0799 3.42672C37.5203 3.96271 36.7982 4.23129 35.9159 4.23129C35.1337 4.23129 33.792 3.79779 31.8907 2.93196C27.7807 1.09547 23.8921 0.177811 20.2238 0.177811C14.3492 0.177811 9.50878 2.00606 5.70621 5.66019C1.90246 9.3167 0 13.6717 0 18.7301C0 21.6409 0.644365 24.3079 1.93663 26.7334C3.22653 29.1588 5.12075 31.3758 7.61574 33.3843C10.1119 35.3951 14.3162 38.088 20.2238 41.4665C26.1338 44.8438 29.7503 47.0526 31.0755 48.0916C33.0451 49.6171 34.4964 51.2616 35.4306 53.0286C36.3635 54.7956 36.8324 56.5461 36.8324 58.2765C36.8324 61.3959 35.6014 64.0982 33.1382 66.3847C30.6762 68.6723 27.3224 69.8138 23.0769 69.8138C19.4086 69.8138 16.0384 68.9821 12.9662 67.32C9.89163 65.6567 7.60749 63.5704 6.1138 61.059C4.61892 58.5475 3.42914 54.7614 2.54683 49.7031H0.663211V73.8685H2.54683C2.78478 72.2405 3.14996 71.1661 3.64236 70.6455C4.13476 70.126 4.80504 69.8668 5.65438 69.8668C6.53787 69.8668 8.63471 70.4122 11.9461 71.5031C15.2574 72.5951 17.439 73.2265 18.4922 73.3996C20.258 73.7118 22.1428 73.8685 24.1465 73.8685C30.5313 73.8685 35.7533 71.9366 39.8127 68.0739C43.8709 64.2101 45.9006 59.6124 45.9006 54.2761C45.9006 51.4701 45.2633 48.7866 43.9899 46.2209C42.7153 43.6576 40.8988 41.4324 38.5393 39.5429C36.1774 37.6545 31.7717 34.9452 25.3187 31.4112C17.4049 27.0809 12.396 23.6152 10.291 21.0165C8.83025 19.2496 8.09989 17.2929 8.09989 15.1442C8.09989 12.3383 9.25433 9.83619 11.5644 7.63452C13.8732 5.4352 16.7947 4.33495 20.3263 4.33495C23.4515 4.33495 26.4731 5.15012 29.3933 6.77811C32.3148 8.40611 34.5647 10.6078 36.1444 13.3772C37.7241 16.1502 38.8185 19.8727 39.4299 24.5493H41.3158V0.177811H39.4299Z" fill="black"/>
<path d="M69.2219 44.8173L81.2445 16.3393L92.9609 44.8173H69.2219ZM98.5658 58.7978C99.924 62.0891 100.604 64.4969 100.604 66.0212C100.604 67.1639 100.12 68.1345 99.1512 68.9309C98.1829 69.7272 96.324 70.196 93.5722 70.3339V72.2563H120.827V70.3339C118.007 70.1607 115.809 69.3738 114.231 67.9696C112.651 66.5666 110.893 63.5086 108.958 58.7978L84.9116 0.177177H83.1293L58.8296 58.1734C56.7234 63.2659 54.8056 66.6444 53.0739 68.3077C52.2246 69.1382 50.3563 69.8144 47.4702 70.3339V72.2563H69.2219V70.3339C65.8929 70.0912 63.7277 69.5635 62.7264 68.7483C61.7251 67.9355 61.2245 66.9907 61.2245 65.9164C61.2245 64.5664 61.8005 62.5214 62.9561 59.7837L67.6434 48.6646H94.3886L98.5658 58.7978Z" fill="black"/>
</svg>
