<svg width="24" height="24" viewBox="0 0 24 24" fill="none" xmlns="http://www.w3.org/2000/svg">
<path d="M2.61813 5.0036C2.61695 3.76014 3.62466 2.75148 4.86812 2.75148H21.1258L21.1221 19.002C21.1218 20.2444 20.1146 21.2515 18.8721 21.2515H4.88132C3.6395 21.2515 2.63249 20.2454 2.63132 19.0036L2.61813 5.0036Z" stroke="#404553" stroke-width="1.5"/>
<path fill-rule="evenodd" clip-rule="evenodd" d="M14.1429 14.8744C14.5952 14.422 14.8749 13.7971 14.8749 13.1068C14.8749 11.7261 13.7556 10.6068 12.3749 10.6068C10.9942 10.6068 9.87491 11.7261 9.87491 13.1068C9.87491 13.7752 10.1372 14.3823 10.5644 14.8308L12.3721 17.0309L14.1429 14.8744Z" fill="#404553"/>
<path d="M14.1429 14.8744L13.6125 14.3441L13.5865 14.3701L13.5632 14.3984L14.1429 14.8744ZM10.5644 14.8308L11.1439 14.3547L11.1264 14.3334L11.1075 14.3135L10.5644 14.8308ZM12.3721 17.0309L11.7926 17.5071L12.3723 18.2126L12.9518 17.5069L12.3721 17.0309ZM14.6733 15.4046C15.2604 14.8173 15.6249 14.0039 15.6249 13.1068H14.1249C14.1249 13.5902 13.9299 14.0266 13.6125 14.3441L14.6733 15.4046ZM15.6249 13.1068C15.6249 11.3119 14.1698 9.85681 12.3749 9.85681V11.3568C13.3414 11.3568 14.1249 12.1403 14.1249 13.1068H15.6249ZM12.3749 9.85681C10.58 9.85681 9.12491 11.3119 9.12491 13.1068H10.6249C10.6249 12.1403 11.4084 11.3568 12.3749 11.3568V9.85681ZM9.12491 13.1068C9.12491 13.9753 9.46659 14.7657 10.0213 15.3481L11.1075 14.3135C10.8078 13.9989 10.6249 13.575 10.6249 13.1068H9.12491ZM12.9516 16.5548L11.1439 14.3547L9.98492 15.3069L11.7926 17.5071L12.9516 16.5548ZM13.5632 14.3984L11.7925 16.555L12.9518 17.5069L14.7225 15.3503L13.5632 14.3984Z" fill="#404553"/>
<path fill-rule="evenodd" clip-rule="evenodd" d="M12.3749 14.6068C13.2033 14.6068 13.8749 13.9352 13.8749 13.1068C13.8749 12.2784 13.2033 11.6068 12.3749 11.6068C11.5465 11.6068 10.8749 12.2784 10.8749 13.1068C10.8749 13.9352 11.5465 14.6068 12.3749 14.6068Z" fill="#F6F6F6"/>
<path d="M2.6273 5.75794C2.62209 4.09904 3.96544 2.75146 5.62435 2.75146H21.1256L21.1222 7.25146H4.12553C3.29992 7.25146 2.6299 6.58355 2.6273 5.75794Z" fill="#FEEE00" stroke="#404553" stroke-width="1.5"/>
</svg>
