<svg width="25" height="25" viewBox="0 0 25 25" fill="none" xmlns="http://www.w3.org/2000/svg">
<g clip-path="url(#clip0)">
<path d="M4.54987 7.74072V7.51834M4.54987 7.51834V19.134C4.54987 20.6347 5.76633 21.851 7.26693 21.851H10.7211M4.54987 7.51834L7.09568 4.0291C7.77768 3.09435 8.86516 2.54163 10.0223 2.54163H19.5125C21.013 2.54163 22.2295 3.7581 22.2295 5.25868V15.1105" stroke="#404553" stroke-width="1.64211"/>
<path d="M22.225 13.5612V20.0299C22.225 21.0304 21.414 21.8413 20.4136 21.8413H13.2028" stroke="#404553" stroke-width="1.64211"/>
<path d="M14.3404 18.5588V21.9265H10.2679L10.3486 18.5784L10.3597 18.1172L9.97007 17.8703C9.19155 17.3769 8.59277 16.8907 8.18267 16.3016C7.78515 15.7305 7.53032 15.0124 7.5304 13.9909C7.5305 12.172 8.24596 11.018 9.11256 10.3036C9.71472 9.80728 10.4043 9.51233 11.012 9.37195V13.9908V14.806H11.8271H13.1467H13.9618V13.9908V9.43558C15.7688 9.98754 17.4325 11.7817 17.4325 13.9908C17.4325 15.139 17.1002 15.9319 16.6414 16.5071C16.1716 17.0961 15.5268 17.5087 14.8307 17.8112L14.3404 18.0242V18.5588Z" fill="#FEEE00" stroke="#404553" stroke-width="1.4779"/>
<path fill-rule="evenodd" clip-rule="evenodd" d="M17.3612 4.01453H18.6607V4.75475C18.7767 4.7915 18.8884 4.8378 18.995 4.89275L19.5116 4.37617L20.4304 5.29502L19.9169 5.80864C19.9762 5.92191 20.0258 6.04111 20.0644 6.16516H20.8112V7.44565H20.0644C20.0258 7.56968 19.9763 7.68887 19.9169 7.80211L20.4306 8.3158L19.5117 9.23466L18.9951 8.71804C18.8885 8.77303 18.7767 8.81935 18.6607 8.8561V9.59628H17.3612V8.85626C17.2483 8.82052 17.1394 8.77573 17.0354 8.72271L16.5234 9.23466L15.6046 8.3158L16.1092 7.81115C16.0477 7.69521 15.9966 7.57297 15.9569 7.44565H15.2103V6.16516H15.957C15.9966 6.03787 16.0477 5.91567 16.1092 5.79976L15.6045 5.29502L16.5233 4.37617L17.0353 4.88817C17.1393 4.83513 17.2483 4.79032 17.3612 4.7546V4.01453ZM18.0113 7.60136C18.4509 7.60136 18.8073 7.24499 18.8073 6.80537C18.8073 6.36576 18.4509 6.00939 18.0113 6.00939C17.5717 6.00939 17.2153 6.36576 17.2153 6.80537C17.2153 7.24499 17.5717 7.60136 18.0113 7.60136Z" fill="#404553"/>
</g>
<defs>
<clipPath id="clip0">
<rect width="21.7365" height="21.7365" fill="white" transform="translate(2.13174 1.3092)"/>
</clipPath>
</defs>
</svg>
