<svg width="24" height="24" viewBox="0 0 24 24" fill="none" xmlns="http://www.w3.org/2000/svg">
<path d="M18.6562 18.409L14.8555 15.0221L14.8032 14.9619C13.8029 15.8511 12.4778 16.3943 11.0258 16.3943C7.87941 16.3943 5.32875 13.8436 5.32875 10.6972C5.32875 7.66923 7.69101 5.193 10.6731 5.01088L10.6892 5.01009C10.7904 5.00367 10.9088 5 11.028 5C14.0592 5 16.5375 7.36734 16.7149 10.354L16.7157 10.3697L16.7157 10.7071C16.7157 10.7103 16.7157 10.7139 16.7157 10.7176C16.7157 11.8414 16.3861 12.8881 15.8184 13.7666L15.8318 13.7445C15.8684 13.7667 15.8998 13.7893 15.9295 13.8139L15.9282 13.8128L19.7289 17.1997C19.8955 17.3479 20 17.563 20 17.8024C20 18.2472 19.6394 18.6078 19.1946 18.6078C18.9891 18.6078 18.8017 18.5309 18.6594 18.4043L18.6602 18.405L18.6562 18.409ZM15.1005 10.4741C15.0069 8.28961 13.2132 6.55405 11.0141 6.55405C8.75524 6.55405 6.9241 8.3852 6.9241 10.644C6.9241 10.6662 6.92427 10.6884 6.92463 10.7105L6.92459 10.7072L6.92459 10.9442C7.03818 13.1119 8.82351 14.8265 11.0093 14.8265C12.2263 14.8265 13.3192 14.295 14.0684 13.4514L14.072 13.4472C14.7156 12.7326 15.1092 11.7818 15.1092 10.7392C15.1092 10.6459 15.1061 10.5534 15.0999 10.4617L15.1005 10.4741L15.1005 10.4741Z" fill="#404553"/>
</svg>
