<svg width="24" height="24" viewBox="0 0 24 24" fill="none" xmlns="http://www.w3.org/2000/svg">
<path d="M2.74746 5.0036C2.74629 3.76014 3.75399 2.75148 4.99746 2.75148H19.0046C20.2475 2.75148 21.2549 3.75915 21.2546 5.00199L21.2515 19.002C21.2512 20.2444 20.2439 21.2515 19.0015 21.2515H5.01065C3.76884 21.2515 2.76182 20.2454 2.76065 19.0036L2.74746 5.0036Z" stroke="#404553" stroke-width="1.5"/>
<mask id="path-2-inside-1" fill="white">
<path fill-rule="evenodd" clip-rule="evenodd" d="M8.98904 15.9268C8.99108 15.9268 8.99312 15.9268 8.99516 15.9268H12.0048C14.7657 15.9268 17.0038 13.6886 17.0038 10.9277C17.003 8.16426 14.7638 5.92568 12.0018 5.92568H9.00183"/>
</mask>
<path fill-rule="evenodd" clip-rule="evenodd" d="M8.98904 15.9268C8.99108 15.9268 8.99312 15.9268 8.99516 15.9268H12.0048C14.7657 15.9268 17.0038 13.6886 17.0038 10.9277C17.003 8.16426 14.7638 5.92568 12.0018 5.92568H9.00183" fill="#FEEE00"/>
<path d="M12.0048 15.9268V14.4268V15.9268ZM17.0038 10.9277L18.5038 10.9273V10.9277H17.0038ZM8.99088 14.4268C8.99231 14.4268 8.99374 14.4268 8.99516 14.4268V17.4268C8.99251 17.4268 8.98986 17.4268 8.98721 17.4268L8.99088 14.4268ZM8.99516 14.4268H12.0048V17.4268H8.99516V14.4268ZM12.0048 14.4268C13.9372 14.4268 15.5038 12.8602 15.5038 10.9277H18.5038C18.5038 14.517 15.5941 17.4268 12.0048 17.4268V14.4268ZM15.5038 10.9281C15.5033 8.99267 13.9352 7.42568 12.0018 7.42568V4.42568C15.5923 4.42568 18.5028 7.33585 18.5038 10.9273L15.5038 10.9281ZM12.0018 7.42568H9.00183V4.42568H12.0018V7.42568Z" fill="#404553" mask="url(#path-2-inside-1)"/>
<path d="M10.8099 12.3442L7.98151 15.1727L10.8099 18.0011" stroke="#404553" stroke-width="1.5"/>
</svg>
