<svg xmlns="http://www.w3.org/2000/svg" width="55.628" height="48.674" viewBox="0 0 55.628 48.674"><path d="M33.738,36.346H32V32h4.346v1.738H33.738Zm0,0" transform="translate(-28.523 -28.523)" fill="#858585"/><path d="M65.029,369.738H63.291V368h1.738Zm-3.477,0H59.814V368h1.738Zm-3.477,0H56.337V368h1.738Zm-3.477,0H52.86V368H54.6Zm-3.477,0H49.384V368h1.738Zm-3.477,0H45.907V368h1.738Zm-3.477,0H42.43V368h1.738Zm-3.477,0H38.953V368h1.738Zm-3.477,0H35.477V368h1.738Zm-3.477,0H32V368h1.738Zm0,0" transform="translate(-28.523 -328.017)" fill="#858585"/><path d="M65.029,401.738H63.291V400h1.738Zm-3.477,0H59.814V400h1.738Zm-3.477,0H56.337V400h1.738Zm-3.477,0H52.86V400H54.6Zm-3.477,0H49.384V400h1.738Zm-3.477,0H45.907V400h1.738Zm-3.477,0H42.43V400h1.738Zm-3.477,0H38.953V400h1.738Zm-3.477,0H35.477V400h1.738Zm-3.477,0H32V400h1.738Zm0,0" transform="translate(-28.523 -356.541)" fill="#858585"/><path d="M416,32h6.953v1.738H416Zm0,0" transform="translate(-370.802 -28.523)" fill="#858585"/><path d="M416,64h6.953v1.738H416Zm0,0" transform="translate(-370.802 -57.047)" fill="#858585"/><path d="M416,96h6.953v1.738H416Zm0,0" transform="translate(-370.802 -85.57)" fill="#858585"/><path d="M300.346,108.346H296v-1.738h2.608V104h1.738Zm0,0" transform="translate(-263.84 -92.701)" fill="#858585"/><path d="M395.3,0h-8.692A2.608,2.608,0,0,0,384,2.608V33.029h13.907V2.608A2.608,2.608,0,0,0,395.3,0Zm.869,31.291h-10.43V2.608a.869.869,0,0,1,.869-.869H395.3a.869.869,0,0,1,.869.869Zm0,0" transform="translate(-342.279)" fill="#858585"/><path d="M37.375,336H2.608A2.608,2.608,0,0,0,0,338.608v6.953a2.608,2.608,0,0,0,2.608,2.608H37.375a2.608,2.608,0,0,0,2.608-2.608v-6.953A2.608,2.608,0,0,0,37.375,336Zm.869,9.561a.869.869,0,0,1-.869.869H2.608a.869.869,0,0,1-.869-.869v-6.953a.869.869,0,0,1,.869-.869H37.375a.869.869,0,0,1,.869.869Zm0,0" transform="translate(0 -299.494)" fill="#858585"/><path d="M404.346,336A4.351,4.351,0,0,0,400,340.346v3.477a4.346,4.346,0,0,0,8.692,0v-3.477A4.351,4.351,0,0,0,404.346,336Zm2.608,7.823a2.608,2.608,0,1,1-5.215,0v-3.477a2.608,2.608,0,0,1,1.738-2.448v3.317h1.738V337.9a2.608,2.608,0,0,1,1.738,2.448Zm0,0" transform="translate(-356.541 -299.494)" fill="#858585"/><path d="M37.375,0H2.608A2.608,2.608,0,0,0,0,2.608v20.86a2.608,2.608,0,0,0,2.608,2.608H14.776V29.7a1.6,1.6,0,0,1-1.593,1.593H10.43v1.738H27.814V31.291H25.061A1.6,1.6,0,0,1,23.468,29.7V26.076H37.375a2.608,2.608,0,0,0,2.608-2.608V2.608A2.608,2.608,0,0,0,37.375,0ZM16.108,31.291a3.308,3.308,0,0,0,.407-1.593V26.076h1.738V29.77h1.738V26.076H21.73V29.7a3.308,3.308,0,0,0,.407,1.593Zm22.136-7.823a.869.869,0,0,1-.869.869H2.608a.869.869,0,0,1-.869-.869V19.122H38.244Zm0-6.084H1.738V2.608a.869.869,0,0,1,.869-.869H37.375a.869.869,0,0,1,.869.869Zm0,0" fill="#858585"/><path d="M420.343,193.862V192H418.6v1.862a3.477,3.477,0,1,0,1.738,0Zm-.869,5.092a1.733,1.733,0,0,1-.869-3.235v1.5h1.738v-1.5a1.733,1.733,0,0,1-.869,3.235Zm0,0" transform="translate(-370.799 -171.14)" fill="#858585"/><path d="M168,192h1.738v1.738H168Zm0,0" transform="translate(-149.747 -171.14)" fill="#858585"/></svg>