<svg xmlns="http://www.w3.org/2000/svg" width="38.94" height="48.674" viewBox="0 0 38.94 48.674"><path d="M4.478,28.393H34.494a2.434,2.434,0,0,0,2.353-1.817A64.834,64.834,0,0,0,38.94,11.357C38.94,3.026,32.636,0,28.393,0c-3.634,0-5.938,2.434-8.924,2.434S14.172,0,10.546,0C6.3,0,0,3.026,0,11.357A64.834,64.834,0,0,0,2.125,26.576,2.434,2.434,0,0,0,4.478,28.393ZM10.546,1.622c3.18,0,5.484,2.434,8.924,2.434s5.679-2.434,8.924-2.434c7.3,0,8.924,7.025,8.924,9.735A63.188,63.188,0,0,1,35.24,26.171a.811.811,0,0,1-.811.6H4.413a.811.811,0,0,1-.811-.6A63.188,63.188,0,0,1,1.622,11.357c0-7.983,6.441-9.735,8.924-9.735Z" fill="#858585"/><path d="M4.872,15.305a.811.811,0,0,0,.811-.811,9.461,9.461,0,0,1,.811-5.249.818.818,0,0,0-1.42-.811C3.947,10.357,3.939,12.352,4,14.494a.811.811,0,0,0,.876.811Z" transform="translate(0.06 -1.514)" fill="#858585"/><path d="M38.317,53.98V52.13a2.434,2.434,0,0,0-1.769-2.336c-2.247-.665-2.9-3.894-3.058-6.49A2.434,2.434,0,0,0,31.056,41H8.252a2.434,2.434,0,0,0-2.434,2.3c-.154,2.6-.811,5.825-3.058,6.49A2.434,2.434,0,0,0,1,52.13v1.85a2.434,2.434,0,0,0,2.434,2.434h32.45A2.434,2.434,0,0,0,38.317,53.98Zm-35.695,0V52.13a.811.811,0,0,1,.608-.811c1.736-.511,3.886-2.312,4.21-7.95a.811.811,0,0,1,.811-.811H31.065a.811.811,0,0,1,.811.811c.324,5.638,2.434,7.439,4.21,7.95a.811.811,0,0,1,.608.811v1.85a.811.811,0,0,1-.811.811H3.434A.811.811,0,0,1,2.622,53.98Z" transform="translate(-0.189 -7.739)" fill="#858585"/><path d="M32.526,52H9.811a.811.811,0,0,0,0,1.622H32.526a.811.811,0,0,0,0-1.622Z" transform="translate(-1.699 -9.815)" fill="#858585"/></svg>