<svg xmlns="http://www.w3.org/2000/svg" width="49.791" height="53.044" viewBox="0 0 49.791 53.044"><g transform="translate(-15.701)"><g transform="translate(26.061 13.053)"><g transform="translate(0)"><path d="M116.732,125.994a1.036,1.036,0,1,0,1.036,1.036A1.036,1.036,0,0,0,116.732,125.994Z" transform="translate(-115.696 -125.994)" fill="#858585"/></g></g><g transform="translate(27.097 28.282)"><g transform="translate(0)"><path d="M135.02,277.13h-3.108v-3.108a1.036,1.036,0,1,0-2.072,0v3.108h-3.108a1.036,1.036,0,1,0,0,2.072h3.108v3.108a1.036,1.036,0,1,0,2.072,0V279.2h3.108a1.036,1.036,0,1,0,0-2.072Z" transform="translate(-125.696 -272.986)" fill="#858585"/></g></g><g transform="translate(15.701)"><g transform="translate(0)"><path d="M64.381,33.358A8.283,8.283,0,0,0,53.06,30.325l-4.208,2.429v-9a5.217,5.217,0,0,0-1.036-3.108l-5.18-6.906V10.8a3.113,3.113,0,0,0,2.072-2.93V3.108A3.112,3.112,0,0,0,41.6,0H22.953a3.111,3.111,0,0,0-3.108,3.108V7.873a3.113,3.113,0,0,0,2.072,2.93v2.941l-5.18,6.907A5.216,5.216,0,0,0,15.7,23.758V43.821A5.186,5.186,0,0,0,20.881,49H37.53a8.279,8.279,0,0,0,11.258,2.93l12.56-7.252A8.294,8.294,0,0,0,64.381,33.358ZM21.917,3.108a1.037,1.037,0,0,1,1.036-1.036H41.6a1.037,1.037,0,0,1,1.036,1.036V7.873A1.037,1.037,0,0,1,41.6,8.909H22.953a1.037,1.037,0,0,1-1.036-1.036V3.108ZM18.395,21.893l5.387-7.182a1.036,1.036,0,0,0,.207-.622V10.981H40.564v2.072H31.241a1.036,1.036,0,0,0,0,2.072h9.842l5.076,6.767a3.135,3.135,0,0,1,.6,1.52H17.8A3.133,3.133,0,0,1,18.395,21.893Zm2.486,25.036a3.111,3.111,0,0,1-3.108-3.108V42.775H36.595a8.3,8.3,0,0,0,.05,4.154H20.881Zm16.527-6.216H17.773V25.485H46.78V33.95L40.5,37.577A8.226,8.226,0,0,0,37.407,40.714Zm10.344,9.423a6.216,6.216,0,1,1-6.216-10.766l5.623-3.247L53.375,46.89Zm12.56-7.252-5.142,2.969L48.954,35.088,54.1,32.119a6.216,6.216,0,1,1,6.216,10.766Z" transform="translate(-15.701 0)" fill="#858585"/></g></g></g></svg>