<svg xmlns="http://www.w3.org/2000/svg" width="53.044" height="53.044" viewBox="0 0 53.044 53.044"><path d="M197.989,13.8l6.3-5.249h8.246V0H192V8.556h5.989Zm-4.278-6.96V1.711h17.111V6.844h-7.154L199.7,10.151V6.844Zm0,0" transform="translate(-171.467)" fill="#858585"/><path d="M224,32h1.711v1.711H224Zm0,0" transform="translate(-200.045 -28.578)" fill="#858585"/><path d="M256,32h6.844v1.711H256Zm0,0" transform="translate(-228.622 -28.578)" fill="#858585"/><path d="M336,32h1.711v1.711H336Zm0,0" transform="translate(-300.067 -28.578)" fill="#858585"/><path d="M43.552,158.5l-.692-6.926a5.993,5.993,0,0,0,5.051-5.907V134.544H44.489v-1.182a3.078,3.078,0,0,0-1.667-2.743,5.113,5.113,0,0,0,1.667-3.775v-1.711a5.133,5.133,0,1,0-10.267,0v1.711a5.137,5.137,0,0,0,3.382,4.819l-4.592,4.592h-4.8a3.431,3.431,0,0,0-2.463-3.066l-3.507-1V130.66a5.116,5.116,0,0,0,1.711-3.816v-1.711a5.133,5.133,0,1,0-10.267,0v1.711A5.118,5.118,0,0,0,15.4,130.66v1.529l-3.507,1a3.435,3.435,0,0,0-2.482,3.291v3.2H5.989v5.133H7.7V158.5H0v1.711H53.044V158.5Zm-7.619-13.689v-3.924L42,134.825a2.68,2.68,0,0,0,.757-1.641,1.393,1.393,0,0,1,.025.178v10.593a2.57,2.57,0,0,1-2.567,2.567H33.367v-1.711Zm-2.567,6.844h4.359l.684,6.844H33.367Zm6.079,0h1.7l.684,6.844h-1.7Zm5.043-7.7v-7.7H46.2v9.411a4.283,4.283,0,0,1-4.278,4.278H33.367v-1.711h6.844A4.283,4.283,0,0,0,44.489,143.955Zm-8.556-17.111v-1.711a3.422,3.422,0,1,1,6.844,0v1.711a3.422,3.422,0,0,1-6.844,0Zm-2.212,11.122,5.708-5.708a.959.959,0,0,1,1.357,1.357l-6.062,6.062H25.667a.856.856,0,1,1,0-1.711ZM15.4,125.133a3.422,3.422,0,1,1,6.844,0v1.711a3.422,3.422,0,0,1-6.844,0Zm3.422,6.844a5.109,5.109,0,0,0,1.711-.3v.919a2.188,2.188,0,0,1-1.711,1.092,2.188,2.188,0,0,1-1.711-1.092v-.919A5.109,5.109,0,0,0,18.822,131.978Zm-7.7,4.5a1.719,1.719,0,0,1,1.241-1.646l3.525-1.007a3.726,3.726,0,0,0,2.935,1.572,3.724,3.724,0,0,0,2.935-1.572l3.525,1.007a1.705,1.705,0,0,1,1.2,1.42h-.819a2.57,2.57,0,0,0-2.567,2.567,2.531,2.531,0,0,0,.157.856H11.122ZM7.7,141.389H34.222V143.1H7.7Zm1.711,6.844h2.567v-1.711H9.411v-1.711H31.655v1.711H13.689v1.711H31.655V158.5H29.618l-1.711-3.422H13.16L11.449,158.5H9.411ZM27.7,158.5H13.362l.856-1.711H26.849Zm0,0" transform="translate(0 -107.167)" fill="#858585"/></svg>