<svg xmlns="http://www.w3.org/2000/svg" width="54.737" height="47.674" viewBox="0 0 54.737 47.674"><g transform="translate(-8 -40)"><path d="M59.647,40H11.09A3.093,3.093,0,0,0,8,43.09V77.522a3.093,3.093,0,0,0,3.09,3.09H27.423V83.26H23.891a.883.883,0,0,0-.883.883v2.649a.883.883,0,0,0,.883.883H46.846a.883.883,0,0,0,.883-.883V84.143a.883.883,0,0,0-.883-.883H43.314V80.612H59.647a3.093,3.093,0,0,0,3.09-3.09V43.09A3.093,3.093,0,0,0,59.647,40ZM45.963,85.026v.883H24.774v-.883ZM29.189,83.26V80.612h12.36V83.26Zm31.783-5.739a1.325,1.325,0,0,1-1.324,1.324H11.09a1.325,1.325,0,0,1-1.324-1.324V76.2H60.972Zm0-3.09H9.766V43.09a1.325,1.325,0,0,1,1.324-1.324H59.647a1.325,1.325,0,0,1,1.324,1.324Z" transform="translate(0 0)" fill="#858585"/><path d="M143.085,80.568l-.537-6.442a.268.268,0,0,0-.267-.246h-1.342v-.268A1.612,1.612,0,0,0,139.328,72h-.537a1.612,1.612,0,0,0-1.611,1.611v.268h-1.342a.269.269,0,0,0-.267.245L135,80.566a.269.269,0,0,0,.267.292h7.55a.268.268,0,0,0,.267-.291ZM140.67,75.49a.268.268,0,1,1-.268.268A.268.268,0,0,1,140.67,75.49Zm-2.953-1.879a1.075,1.075,0,0,1,1.074-1.074h.537a1.075,1.075,0,0,1,1.074,1.074v.268h-2.684Zm-.268,1.879a.268.268,0,1,1-.268.268A.268.268,0,0,1,137.448,75.49Zm-1.888,4.832.523-5.906h1.1V75a.805.805,0,1,0,.537,0v-.583H140.4V75a.805.805,0,1,0,.537,0v-.583h1.1l.492,5.906Z" transform="translate(-122.984 -28.469)" fill="#858585"/></g></svg>