<svg xmlns="http://www.w3.org/2000/svg" width="52.008" height="47.674" viewBox="0 0 52.008 47.674"><g transform="translate(0 0)"><path d="M45.074,144.407a.867.867,0,0,1-.867-.867v-2.6h5.2a.867.867,0,0,0,.867-.867v-3.467a.867.867,0,0,0-.867-.867h-.867V113.2a5.2,5.2,0,0,0-10.4,0v22.537h-.867a.867.867,0,0,0-.867.867v3.467a.867.867,0,0,0,.867.867h5.2v2.6a.867.867,0,0,1-.867.867H27.738a.867.867,0,0,1-.867-.867v-2.6h5.2a.867.867,0,0,0,.867-.867v-3.467a.867.867,0,0,0-.867-.867H31.2V113.2a5.2,5.2,0,0,0-10.4,0v22.537h-.867a.867.867,0,0,0-.867.867v3.467a.867.867,0,0,0,.867.867h5.2v2.6a.867.867,0,0,1-.867.867H10.4a.867.867,0,0,1-.867-.867v-2.6h5.2a.867.867,0,0,0,.867-.867v-3.467a.867.867,0,0,0-.867-.867h-.867V113.2a5.2,5.2,0,0,0-10.4,0v22.537H2.6a.867.867,0,0,0-.867.867v3.467a.867.867,0,0,0,.867.867H7.8v2.6a.867.867,0,0,1-.867.867H0v1.734H6.934a2.584,2.584,0,0,0,1.734-.676,2.584,2.584,0,0,0,1.734.676H24.27A2.584,2.584,0,0,0,26,145.464a2.584,2.584,0,0,0,1.734.676H41.607a2.584,2.584,0,0,0,1.734-.676,2.584,2.584,0,0,0,1.734.676h6.934v-1.734ZM5.2,113.2a3.467,3.467,0,0,1,6.934,0v22.537H5.2Zm-1.734,26v-1.734h10.4v1.734Zm19.07-26a3.467,3.467,0,0,1,6.934,0v22.537H22.537Zm-1.734,26v-1.734H31.2v1.734Zm19.07-26a3.467,3.467,0,0,1,6.934,0v22.537H39.873Zm-1.734,26v-1.734h10.4v1.734Z" transform="translate(0 -98.466)" fill="#858585"/><path d="M284.334,30.4a4.339,4.339,0,0,0,4.334-4.334c0-2.177-3.114-5.238-3.738-5.83a.867.867,0,0,0-1.193,0c-.624.592-3.738,3.653-3.738,5.83A4.339,4.339,0,0,0,284.334,30.4Zm0-8.311c1.228,1.284,2.6,3.066,2.6,3.977a2.6,2.6,0,1,1-5.2,0C281.734,25.157,283.106,23.379,284.334,22.09Z" transform="translate(-249.662 -19.999)" fill="#858585"/></g></svg>