<svg xmlns="http://www.w3.org/2000/svg" width="49.175" height="49.174" viewBox="0 0 49.175 49.174"><path d="M48.675,29.977V18.7H43.73a20.018,20.018,0,0,0-1.694-4.083l3.5-3.5L37.558,3.14l-3.5,3.5a20.018,20.018,0,0,0-4.083-1.694V0H18.7V4.944a20.017,20.017,0,0,0-4.083,1.694l-3.5-3.5L3.14,11.116l3.5,3.5A20.015,20.015,0,0,0,4.945,18.7H0v11.28H4.945A20.012,20.012,0,0,0,6.638,34.06l-3.5,3.5,7.976,7.976,3.5-3.5A20.02,20.02,0,0,0,18.7,43.729v4.945H29.981V43.73a20,20,0,0,0,4.079-1.693l3.5,3.5,7.976-7.976-3.5-3.5a20.017,20.017,0,0,0,1.694-4.083ZM27.13,32.2V45.824H21.548V32.2l-.808-.388a8.331,8.331,0,0,1-1.594-14.018v6.734l5.194,3.122,5.194-3.122V17.789a8.331,8.331,0,0,1-1.594,14.018ZM41.5,37.558,37.558,41.5l-3.064-3.065-.962.6a17.265,17.265,0,0,1-3.551,1.7V33.947A11.179,11.179,0,0,0,28.658,13.99l-1.977-.829v9.75l-2.343,1.408L22,22.911v-9.75l-1.977.829A11.178,11.178,0,0,0,18.7,33.947V40.74a17.24,17.24,0,0,1-3.554-1.7l-.962-.6L11.116,41.5,7.171,37.558l3.064-3.065-.6-.962a17.2,17.2,0,0,1-2.2-5.3l-.254-1.107H2.851V21.548H7.182l.254-1.107a17.2,17.2,0,0,1,2.2-5.3l.6-.962L7.172,11.116l3.945-3.945,3.064,3.065.962-.6a17.2,17.2,0,0,1,5.3-2.2l1.107-.254V2.851h5.579V7.182l1.107.254a17.2,17.2,0,0,1,5.3,2.2l.962.6,3.064-3.065L41.5,11.116l-3.065,3.064.6.962a17.2,17.2,0,0,1,2.2,5.3l.254,1.107h4.331v5.579H41.493l-.254,1.107a17.2,17.2,0,0,1-2.2,5.3l-.6.962Z" transform="translate(0.25 0.25)" fill="#858585" stroke="#fff" stroke-width="0.5"/></svg>