<svg xmlns="http://www.w3.org/2000/svg" width="65.429" height="33.18" viewBox="0 0 65.429 33.18"><g transform="translate(-0.068 -31.607)"><path d="M18.52,39.547A10.521,10.521,0,1,0,29.042,50.068,10.521,10.521,0,0,0,18.52,39.547Zm0,19.251a8.731,8.731,0,1,1,8.731-8.73A8.731,8.731,0,0,1,18.52,58.8Z" transform="translate(-3.873 -3.877)" fill="#858585"/><path d="M27.707,47.547a.9.9,0,0,0,0,1.791,4.642,4.642,0,0,1,4.637,4.637.9.9,0,1,0,1.791,0A6.436,6.436,0,0,0,27.707,47.547Z" transform="translate(-13.06 -7.784)" fill="#858585"/><path d="M89.4,39.547A10.521,10.521,0,1,0,99.917,50.068,10.521,10.521,0,0,0,89.4,39.547Zm0,19.251a8.731,8.731,0,1,1,8.731-8.73A8.731,8.731,0,0,1,89.4,58.8Z" transform="translate(-38.484 -3.877)" fill="#858585"/><path d="M98.582,47.547a.9.9,0,0,0,0,1.791,4.642,4.642,0,0,1,4.637,4.637.9.9,0,0,0,1.791,0,6.436,6.436,0,0,0-6.428-6.428Z" transform="translate(-47.671 -7.784)" fill="#858585"/><path d="M61.321,56.436A14.6,14.6,0,1,0,40.462,35.988,15.2,15.2,0,0,0,25.107,36,14.6,14.6,0,1,0,4.238,56.436L1.749,60.231a2.942,2.942,0,0,0,4.921,3.227l2.453-3.74A14.607,14.607,0,0,0,28.286,40.949a9.38,9.38,0,0,1,8.991-.009,14.608,14.608,0,0,0,19.16,18.778l2.452,3.74a2.923,2.923,0,0,0,1.862,1.267,2.942,2.942,0,0,0,3.061-4.491ZM5.172,62.476a1.151,1.151,0,0,1-1.925-1.263l2.34-3.565A14.661,14.661,0,0,0,7.5,58.933Zm9.476-3.461A12.824,12.824,0,1,1,27.471,46.191,12.824,12.824,0,0,1,14.647,59.015ZM32.78,38.006a11.178,11.178,0,0,0-5.24,1.31,14.706,14.706,0,0,0-1.244-1.94,13.454,13.454,0,0,1,12.977-.01,14.647,14.647,0,0,0-1.248,1.944,11.189,11.189,0,0,0-5.244-1.3Zm5.309,8.187A12.824,12.824,0,1,1,50.911,59.015,12.824,12.824,0,0,1,38.088,46.193ZM61.983,62.809a1.151,1.151,0,0,1-1.594-.332l-2.326-3.545a14.661,14.661,0,0,0,1.911-1.285l2.34,3.568a1.153,1.153,0,0,1-.334,1.593Z" transform="translate(0 0)" fill="#858585"/></g></svg>