<svg xmlns="http://www.w3.org/2000/svg" width="53.044" height="53.044" viewBox="0 0 53.044 53.044"><g transform="translate(-16 -16)"><path d="M46.942,112H18.652a.884.884,0,0,0-.884.884v1.768H16v1.768h1.768v1.768H16v1.768h1.768v1.768H16v1.768h1.768v1.768H16v1.768h1.768V128.8H16v1.768h1.768v1.768H16V134.1h1.768v1.768H16v1.768h1.768v1.768H16v1.768h1.768v1.768H16v1.768h1.768v1.768H16v1.768h1.768v1.768H16v1.768h1.768v1.768a.884.884,0,0,0,.884.884h28.29a.884.884,0,0,0,.884-.884V112.884A.884.884,0,0,0,46.942,112Zm-.884,40.667H19.536v-38.9H46.058Z" transform="translate(0 -85.391)" fill="#858585"/><path d="M331.493,16H320.884a.884.884,0,0,0-.884.884V68.16a.884.884,0,0,0,.884.884h10.609a.884.884,0,0,0,.884-.884V16.884A.884.884,0,0,0,331.493,16Zm-9.725,51.276V17.768h1.768V67.276Zm3.536,0V17.768h5.3V20.42h-3.536v1.768h3.536v1.768h-1.768v1.768h1.768v1.768h-3.536v1.768h3.536v1.768h-1.768V32.8h1.768v1.768h-3.536v1.768h3.536V38.1h-1.768V39.87h1.768v1.768h-3.536v1.768h3.536v1.768h-1.768v1.768h1.768v1.768h-3.536v1.768h3.536v1.768h-1.768v1.768h1.768v1.768h-3.536v1.768h3.536v1.768h-1.768v1.768h1.768v1.768h-3.536v1.768h3.536v2.652Z" transform="translate(-270.405)" fill="#858585"/><path d="M16.884,24.841H29.261a2.655,2.655,0,0,0,2.652-2.652V18.652A2.655,2.655,0,0,0,29.261,16H16.884a.884.884,0,0,0-.884.884v7.073A.884.884,0,0,0,16.884,24.841Zm13.261-6.188v3.536a.885.885,0,0,1-.884.884H27.493v-5.3h1.768A.885.885,0,0,1,30.145,18.652Zm-12.377-.884h7.957v5.3H17.768Z" fill="#858585"/><path d="M453.278,23.753,451.51,16.68a.884.884,0,0,0-1.715,0l-1.768,7.073a.859.859,0,0,0-.027.214v44.2a.884.884,0,0,0,.884.884h3.536a.884.884,0,0,0,.884-.884v-44.2a.857.857,0,0,0-.027-.215Zm-1.741,40h-1.768V27.869l.884-.884.884.884Zm-1.768-39.674.884-3.536.884,3.536v1.293l-.259-.259a.884.884,0,0,0-1.25,0l-.259.259Zm1.768,43.211h-1.768V65.519h1.768Z" transform="translate(-384.26 -0.011)" fill="#858585"/><path d="M192,160h3.536v1.768H192Z" transform="translate(-156.55 -128.087)" fill="#858585"/><path d="M240,160h3.536v1.768H240Z" transform="translate(-199.246 -128.087)" fill="#858585"/><path d="M64,200H86.986v1.768H64Z" transform="translate(-42.696 -163.666)" fill="#858585"/><path d="M64,240H86.986v1.768H64Z" transform="translate(-42.696 -199.246)" fill="#858585"/><path d="M64,280H86.986v1.768H64Z" transform="translate(-42.696 -234.826)" fill="#858585"/><path d="M64,360H86.986v1.768H64Z" transform="translate(-42.696 -305.985)" fill="#858585"/><path d="M64,320H86.986v1.768H64Z" transform="translate(-42.696 -270.405)" fill="#858585"/><path d="M64,400H86.986v1.768H64Z" transform="translate(-42.696 -341.565)" fill="#858585"/><path d="M64,440H86.986v1.768H64Z" transform="translate(-42.696 -377.144)" fill="#858585"/><path d="M189.261,16H176.884a.884.884,0,0,0-.884.884v7.073a.884.884,0,0,0,.884.884h12.377a.884.884,0,0,0,.884-.884V16.884A.884.884,0,0,0,189.261,16ZM181.3,23.073h-3.536V21.3h7.073v1.768Zm7.073,0h-1.768V20.42a.884.884,0,0,0-.884-.884h-7.957V17.768h10.609Z" transform="translate(-142.319)" fill="#858585"/><circle cx="1" cy="1" r="1" transform="translate(38 21)" fill="#858585"/></g></svg>