<svg xmlns="http://www.w3.org/2000/svg" width="42.184" height="48.674" viewBox="0 0 42.184 48.674"><g transform="translate(-48.007 -16)"><path d="M158.016,18.434H153.96a2.434,2.434,0,1,0-4.867,0v.811H136.924a.812.812,0,0,0-.223.031l-5.569,1.591h-2.32a.811.811,0,0,0-.811.811v3.245a.811.811,0,0,0,.811.811h2.32l5.569,1.591a.812.812,0,0,0,.223.031h12.169v.811a2.434,2.434,0,1,0,4.867,0h4.056a4.061,4.061,0,0,0,4.056-4.056V22.49A4.061,4.061,0,0,0,158.016,18.434Zm-26.548,5.71a.813.813,0,0,0-.223-.031h-1.622V22.49h1.622a.812.812,0,0,0,.223-.031l4.679-1.337,5.766,4.613h-4.875Zm13.041,1.591-6.083-4.867h10.666v4.867Zm7.828,2.434a.811.811,0,0,1-1.622,0V18.434a.811.811,0,0,1,1.622,0Zm8.112-4.056a2.436,2.436,0,0,1-2.434,2.434H153.96v-6.49h4.056a2.436,2.436,0,0,1,2.434,2.434Z" transform="translate(-71.881)" fill="#858585"/><path d="M56.2,112.449l-.9,1.794a7.723,7.723,0,0,0-.811,3.437,2.423,2.423,0,0,0,.14.811h-4.2a2.434,2.434,0,0,0-.811,4.728v20.421a7.3,7.3,0,0,0,14.6,0V123.218a2.434,2.434,0,0,0-.811-4.728h-4.2a2.422,2.422,0,0,0,.14-.811,7.723,7.723,0,0,0-.811-3.437l-.9-1.794a.811.811,0,0,0-1.451,0Zm.726,36.869a5.685,5.685,0,0,1-5.679-5.679V123.358h1.622v20.281a4.056,4.056,0,0,0,8.112,0v-2.434h1.622v2.434a5.685,5.685,0,0,1-5.679,5.679Zm1.622-8.112h.811v2.434a2.434,2.434,0,0,1-4.867,0V128.225h4.867v4.867h-.811a.811.811,0,1,0,0,1.622h.811v4.867h-.811a.811.811,0,1,0,0,1.622Zm2.434-3.245h1.622v1.622H60.987Zm0-1.622v-1.622h1.622v1.622Zm0-3.245V131.47h1.622v1.622Zm0-3.245v-1.622h1.622v1.622Zm0-3.245v-3.245h1.622V126.6Zm-1.622,0H54.5v-3.245h4.867Zm4.867-5.679a.812.812,0,0,1-.811.811H50.44a.811.811,0,1,1,0-1.622H63.42a.812.812,0,0,1,.811.811Zm-7.3-6.3.171.343a6.093,6.093,0,0,1,.64,2.711.811.811,0,1,1-1.622,0,6.093,6.093,0,0,1,.64-2.711Z" transform="translate(0 -86.266)" fill="#858585"/></g></svg>