<svg xmlns="http://www.w3.org/2000/svg" width="51.191" height="52.044" viewBox="0 0 51.191 52.044"><g transform="translate(-2 -1)"><path d="M31.861,50.77H30.155V42.409a.853.853,0,1,0-1.706,0V50.77H6.266V33.706h7.1a.853.853,0,1,0,0-1.706H5.413a.853.853,0,0,0-.853.853V50.77H2.853A.853.853,0,0,0,2,51.623V53.33A4.266,4.266,0,0,0,6.266,57.6H28.449a4.266,4.266,0,0,0,4.266-4.266V51.623A.853.853,0,0,0,31.861,50.77Zm-.853,2.56a2.56,2.56,0,0,1-2.56,2.56H26.742v-.853a.853.853,0,1,0-1.706,0v.853H9.679v-.853a.853.853,0,1,0-1.706,0v.853H6.266a2.56,2.56,0,0,1-2.56-2.56v-.853h27.3Z" transform="translate(0 -4.551)" fill="#858585"/><path d="M53.266,7.706h1.706a.853.853,0,0,0,0-1.706H53.266a2.56,2.56,0,0,0-2.56,2.56v.853h-.853a.853.853,0,0,0,0,1.706h.853v2.56a.853.853,0,0,0,1.706,0v-2.56h.853a.853.853,0,0,0,0-1.706h-.853V8.56A.853.853,0,0,1,53.266,7.706Z" transform="translate(-6.9 -0.734)" fill="#858585"/><path d="M56.8,2H46.56A2.56,2.56,0,0,0,44,4.56V6.266a.853.853,0,0,0,1.706,0V4.56a.853.853,0,0,1,.853-.853H56.8a.853.853,0,0,1,.853.853V14.8a.853.853,0,0,1-.853.853H46.56a.853.853,0,0,1-.853-.853V9.679a.853.853,0,0,0-1.706,0V14.8a2.56,2.56,0,0,0,2.56,2.56H56.8a2.56,2.56,0,0,0,2.56-2.56V4.56A2.56,2.56,0,0,0,56.8,2Z" transform="translate(-6.166 -0.147)" fill="#858585"/><path d="M49,41.413A3.413,3.413,0,1,0,52.413,38,3.413,3.413,0,0,0,49,41.413Zm5.119,0a1.706,1.706,0,1,1-1.706-1.706A1.706,1.706,0,0,1,54.119,41.413Z" transform="translate(-6.9 -5.432)" fill="#858585"/><path d="M56.8,33H46.56A2.56,2.56,0,0,0,44,35.56V45.8a2.56,2.56,0,0,0,2.56,2.56H56.8a2.56,2.56,0,0,0,2.56-2.56V44.091a.853.853,0,1,0-1.706,0V45.8a.853.853,0,0,1-.853.853H46.56a.853.853,0,0,1-.853-.853V35.56a.853.853,0,0,1,.853-.853H56.8a.853.853,0,0,1,.853.853v5.119a.853.853,0,1,0,1.706,0V35.56A2.56,2.56,0,0,0,56.8,33Z" transform="translate(-6.166 -4.698)" fill="#858585"/><path d="M24.4,12.7a.849.849,0,0,0,.836.034l5.119-2.56a.853.853,0,0,0,0-1.519l-5.119-2.56A.853.853,0,0,0,24,6.854v5.119A.853.853,0,0,0,24.4,12.7Zm1.305-4.462,2.355,1.177-2.355,1.177Z" transform="translate(-3.23 -0.735)" fill="#858585"/><path d="M25.679,16.357A7.679,7.679,0,1,0,18,8.679a7.679,7.679,0,0,0,7.679,7.679Zm0-13.651a5.972,5.972,0,1,1-5.972,5.972,5.972,5.972,0,0,1,5.972-5.972Z" transform="translate(-2.349 0)" fill="#858585"/><path d="M36.853,22.119a.853.853,0,0,0,.683-.341l2.56-3.413a.853.853,0,0,0-1.365-1.024l-2.56,3.413a.853.853,0,0,0,.683,1.365Z" transform="translate(-4.992 -2.349)" fill="#858585"/><path d="M39.171,25.925a.853.853,0,0,0,1.194.171l3.413-2.56a.853.853,0,1,0-1.024-1.365l-3.413,2.56a.853.853,0,0,0-.171,1.194Z" transform="translate(-5.432 -3.083)" fill="#858585"/><path d="M47.957,28.679A.853.853,0,0,0,46.933,28l-4.266.853a.857.857,0,0,0,.171,1.706h.171l4.266-.853a.853.853,0,0,0,.683-1.024Z" transform="translate(-5.857 -3.961)" fill="#858585"/><path d="M2.853,26.357H13.091a.853.853,0,0,0,.853-.853V11.853A.853.853,0,0,0,13.091,11H2.853A.853.853,0,0,0,2,11.853V25.5A.853.853,0,0,0,2.853,26.357Zm.853-13.651h8.532V24.651H3.706Z" transform="translate(0 -1.468)" fill="#858585"/><path d="M10.56,15H8.853a.853.853,0,0,0,0,1.706H10.56a.853.853,0,0,0,0-1.706Z" transform="translate(-0.881 -2.055)" fill="#858585"/><path d="M10.266,19H6.853a.853.853,0,1,0,0,1.706h3.413a.853.853,0,1,0,0-1.706Z" transform="translate(-0.587 -2.643)" fill="#858585"/><path d="M10.266,23H6.853a.853.853,0,1,0,0,1.706h3.413a.853.853,0,1,0,0-1.706Z" transform="translate(-0.587 -3.23)" fill="#858585"/><path d="M32.143,27.864a.856.856,0,1,0-1.485.853l3.763,6.51L20.77,40.346h-.128l-2.218,1.28-1.476.853a1.7,1.7,0,0,1-2.329-.623L12.913,38.9a1.706,1.706,0,0,1,.64-2.252L16.5,34.945l2.133,3.694a.856.856,0,1,0,1.485-.853l-2.2-3.805,10.707-8.83.35.606a.856.856,0,0,0,1.485-.853l-.853-1.476a.865.865,0,0,0-1.288-.23L16.376,33.042l-3.635,2.1a3.413,3.413,0,0,0-1.57,3.865l-.853.486A2.558,2.558,0,0,0,11.6,44.27a2.611,2.611,0,0,0,1.28-.341l.853-.486a3.31,3.31,0,0,0,1.493.887,3.233,3.233,0,0,0,.9.119,3.362,3.362,0,0,0,1.706-.461l.742-.427,1.706,2.961a2.557,2.557,0,1,0,4.428-2.56l-1.553-2.7,12.8-4.8a.856.856,0,0,0,.444-1.22ZM11.991,42.444a.852.852,0,1,1-.853-1.476l.742-.427.853,1.476Zm11.228,2.389a.852.852,0,0,1-1.476.853l-1.706-2.961,1.416-.811h.068Z" transform="translate(-1.033 -3.23)" fill="#858585"/></g></svg>