<svg xmlns="http://www.w3.org/2000/svg" width="52.044" height="52.044" viewBox="0 0 52.044 52.044"><g transform="translate(0 0)"><path d="M1.445,48.937H23.786a1.446,1.446,0,0,0,1.445-1.445V30.117a.762.762,0,0,0-1.525,0v.925A6.63,6.63,0,0,1,17.9,25.231h5.811v1.328a.762.762,0,1,0,1.525,0V25.231H47.493a1.446,1.446,0,0,0,1.445-1.445V1.445A1.446,1.446,0,0,0,47.493,0H25.151a1.435,1.435,0,0,0-.682.172A1.435,1.435,0,0,0,23.786,0H1.445A1.446,1.446,0,0,0,0,1.445V23.786a1.435,1.435,0,0,0,.172.682A1.435,1.435,0,0,0,0,25.151V47.493a1.446,1.446,0,0,0,1.445,1.445Zm.08-16.362a8.156,8.156,0,0,0,7.344-7.344h2.958a11.107,11.107,0,0,1-10.3,10.3Zm0-14.68a6.63,6.63,0,0,1,5.811,5.811H1.525Zm22.182,5.811H17.9A6.63,6.63,0,0,1,23.706,17.9Zm0-7.344a8.156,8.156,0,0,0-7.344,7.344H13.4a11.107,11.107,0,0,1,10.3-10.3ZM8.869,23.706a8.156,8.156,0,0,0-7.344-7.344V13.4a11.107,11.107,0,0,1,10.3,10.3ZM7.336,25.231a6.63,6.63,0,0,1-5.811,5.811V25.231Zm5.279,3.559a12.681,12.681,0,0,0,7.532,7.532,12.681,12.681,0,0,0-7.532,7.532,12.681,12.681,0,0,0-7.532-7.532,12.681,12.681,0,0,0,7.532-7.532Zm0-8.642a12.681,12.681,0,0,0-7.532-7.532,12.681,12.681,0,0,0,7.532-7.532,12.681,12.681,0,0,0,7.532,7.532,12.681,12.681,0,0,0-7.532,7.532ZM1.525,41.6a6.63,6.63,0,0,1,5.811,5.811H1.525Zm7.344,5.811a8.156,8.156,0,0,0-7.344-7.344V37.11a11.107,11.107,0,0,1,10.3,10.3H8.869Zm14.837-10.3v2.958a8.156,8.156,0,0,0-7.344,7.344H13.4A11.107,11.107,0,0,1,23.706,37.11Zm0,10.3H17.9A6.631,6.631,0,0,1,23.706,41.6Zm0-14.837v2.958a11.107,11.107,0,0,1-10.3-10.3h2.958A8.156,8.156,0,0,0,23.706,32.575ZM25.231,17.9a6.63,6.63,0,0,1,5.811,5.811H25.231Zm7.344,5.811a8.156,8.156,0,0,0-7.344-7.344V13.4a11.107,11.107,0,0,1,10.3,10.3Zm14.837-7.344a8.156,8.156,0,0,0-7.344,7.344H37.11a11.107,11.107,0,0,1,10.3-10.3v2.958ZM41.6,23.706A6.63,6.63,0,0,1,47.413,17.9v5.811Zm5.811-16.37A6.63,6.63,0,0,1,41.6,1.525h5.811ZM40.068,1.525a8.156,8.156,0,0,0,7.344,7.344v2.958a11.107,11.107,0,0,1-10.3-10.3Zm-8.591,8.828a.762.762,0,0,0,1.074.1,12.606,12.606,0,0,0,3.771-5.362,12.681,12.681,0,0,0,7.531,7.529,12.681,12.681,0,0,0-7.532,7.532,12.681,12.681,0,0,0-7.528-7.531q.24-.088.478-.186a.762.762,0,0,0-.581-1.41,10.993,10.993,0,0,1-3.46.806V8.869a8.156,8.156,0,0,0,7.344-7.344h2.958a11.067,11.067,0,0,1-3.959,7.754A.762.762,0,0,0,31.478,10.352ZM25.231,7.336V1.525h5.811A6.63,6.63,0,0,1,25.231,7.336Zm-1.525,0A6.63,6.63,0,0,1,17.9,1.525h5.811ZM16.362,1.525a8.156,8.156,0,0,0,7.344,7.344v2.958a11.107,11.107,0,0,1-10.3-10.3ZM1.525,11.827V8.869A8.156,8.156,0,0,0,8.869,1.525h2.958a11.107,11.107,0,0,1-10.3,10.3Zm5.811-10.3A6.631,6.631,0,0,1,1.525,7.336V1.525Z" transform="translate(0 0)" fill="#858585"/><path d="M287.57,263.783H265.229a1.446,1.446,0,0,0-1.445,1.445v22.341a1.446,1.446,0,0,0,1.445,1.445H287.57a1.446,1.446,0,0,0,1.445-1.445V265.228A1.447,1.447,0,0,0,287.57,263.783Zm-.08,7.336a6.63,6.63,0,0,1-5.811-5.811h5.811Zm-7.344-5.811a8.156,8.156,0,0,0,7.344,7.344v2.958a11.107,11.107,0,0,1-10.3-10.3Zm3.786,11.091a12.681,12.681,0,0,0-7.532,7.532,12.681,12.681,0,0,0-7.532-7.532,12.681,12.681,0,0,0,7.532-7.532A12.682,12.682,0,0,0,283.931,276.4Zm-18.623-.788v-2.958a8.156,8.156,0,0,0,7.344-7.344h2.958A11.107,11.107,0,0,1,265.309,275.61Zm5.811-10.3a6.63,6.63,0,0,1-5.811,5.811v-5.811Zm-5.811,16.37a6.63,6.63,0,0,1,5.811,5.811h-5.811Zm7.344,5.811a8.157,8.157,0,0,0-7.344-7.344v-2.958a11.107,11.107,0,0,1,10.3,10.3Zm9.026,0a6.6,6.6,0,0,1,1.622-3.628.762.762,0,1,0-1.141-1.012,8.129,8.129,0,0,0-2.015,4.64h-2.959a11.107,11.107,0,0,1,10.3-10.3v2.958a8.09,8.09,0,0,0-2.039.46.762.762,0,0,0,.525,1.432,6.564,6.564,0,0,1,1.514-.358v5.812Z" transform="translate(-236.971 -236.97)" fill="#858585"/><path d="M91.041,88.187l-2.855,2.855a.823.823,0,0,0,0,1.162l2.854,2.854a.822.822,0,0,0,1.163,0L95.057,92.2a.822.822,0,0,0,0-1.163L92.2,88.187A.823.823,0,0,0,91.041,88.187Zm.581,5.3-1.861-1.86,1.861-1.861,1.86,1.861Z" transform="translate(-79.007 -79.007)" fill="#858585"/><path d="M323.538,95.05a.822.822,0,0,0,1.163,0l2.854-2.854a.823.823,0,0,0,0-1.163L324.7,88.179a.822.822,0,0,0-1.163,0l-2.854,2.854a.822.822,0,0,0,0,1.163Zm.582-5.3,1.861,1.861-1.861,1.86-1.861-1.86Z" transform="translate(-287.871 -78.999)" fill="#858585"/><path d="M354.823,351.969l-2.854,2.854a.823.823,0,0,0,0,1.163l2.855,2.855a.824.824,0,0,0,1.162,0l2.855-2.855a.824.824,0,0,0,0-1.162l-2.854-2.854a.823.823,0,0,0-1.163,0Zm.581,5.3-1.861-1.861,1.861-1.861,1.861,1.861Z" transform="translate(-315.976 -315.976)" fill="#858585"/><path d="M91.035,328.274a.824.824,0,0,0,1.162,0l2.853-2.853a.822.822,0,0,0,0-1.163L92.2,321.4a.823.823,0,0,0-1.163,0l-2.854,2.854a.822.822,0,0,0,0,1.163c2.691,2.691,2.847,2.845,2.855,2.855Zm.581-5.3,1.86,1.861-1.86,1.861-1.861-1.861Z" transform="translate(-79 -288.516)" fill="#858585"/></g></svg>