<svg xmlns="http://www.w3.org/2000/svg" width="53.044" height="53.044" viewBox="0 0 53.044 53.044"><path d="M52.189,0H9.411a.855.855,0,0,0-.856.856V32.6a4.266,4.266,0,0,0-5.133,4.189v.018a4.286,4.286,0,0,0-1.617,2.549H.856A.855.855,0,0,0,0,40.211v3.422a.855.855,0,0,0,.856.856h.856v2.567A6,6,0,0,0,7.7,53.044H52.189a.855.855,0,0,0,.856-.856V.856A.855.855,0,0,0,52.189,0Zm-.856,1.711v8.556H10.267V1.711ZM4.742,37.984a.857.857,0,0,0,.429-.856l-.014-.1a1.726,1.726,0,0,1-.025-.24A2.57,2.57,0,0,1,7.7,34.222a2.541,2.541,0,0,1,2.2,1.262.855.855,0,0,0,1.288.214,2.534,2.534,0,0,1,1.65-.62A2.567,2.567,0,0,1,15.059,36.4a.856.856,0,0,0,.9.424,1.733,1.733,0,0,1,1.978,1.363.856.856,0,0,0,1.5.392,2.54,2.54,0,0,1,4.366.78H3.593A2.576,2.576,0,0,1,4.742,37.984Zm11.513-8.04A14.608,14.608,0,1,1,27.262,44.038a.835.835,0,0,0,.115-.4V42.314a12.847,12.847,0,1,0-7.719-6.006,4.159,4.159,0,0,0-.555.3,3.426,3.426,0,0,0-1.84-1.371A14.452,14.452,0,0,1,16.256,29.944Zm5.183,5.994a11.025,11.025,0,0,1-1.463-3.427h.558a2.9,2.9,0,0,0,2.065-.856l.5-.5a1.237,1.237,0,0,1,1.711,0l.5.5a2.991,2.991,0,0,0,4.131,0l.5-.5a1.237,1.237,0,0,1,1.711,0l.5.5a2.991,2.991,0,0,0,4.131,0l.5-.5a1.237,1.237,0,0,1,1.711,0l.5.5a2.9,2.9,0,0,0,2.065.856h.545a11.083,11.083,0,0,1-14.234,8.007v-.307a.855.855,0,0,0-.856-.856H25.58A4.282,4.282,0,0,0,21.439,35.938Zm-1.761-5.994a11.122,11.122,0,0,1,22.244,0c0,.289-.021.572-.043.856h-.812a1.2,1.2,0,0,1-.856-.354l-.5-.5a2.991,2.991,0,0,0-4.131,0l-.5.5a1.237,1.237,0,0,1-1.711,0l-.5-.5a2.991,2.991,0,0,0-4.131,0l-.5.5a1.237,1.237,0,0,1-1.711,0l-.5-.5a2.991,2.991,0,0,0-4.131,0l-.5.5a1.2,1.2,0,0,1-.856.355H19.71C19.689,30.517,19.678,30.231,19.678,29.944ZM1.711,41.067H25.667v1.711H1.711ZM18.822,51.333H7.7a4.283,4.283,0,0,1-4.278-4.278V44.489H23.955v2.567a4.283,4.283,0,0,1-4.278,4.278Zm5.038,0a5.967,5.967,0,0,0,1.806-4.278v-1.7A16.345,16.345,0,1,0,15.08,34.02a4.182,4.182,0,0,0-4.256-.139,4.31,4.31,0,0,0-.558-.495V11.978H51.333V51.333Zm0,0" fill="#858585"/><path d="M114.567,37.133A2.567,2.567,0,1,0,112,34.567,2.57,2.57,0,0,0,114.567,37.133Zm0-3.422a.856.856,0,1,1-.856.856A.857.857,0,0,1,114.567,33.711Zm0,0" transform="translate(-100.022 -28.578)" fill="#858585"/><path d="M178.567,37.133A2.567,2.567,0,1,0,176,34.567,2.57,2.57,0,0,0,178.567,37.133Zm0-3.422a.856.856,0,1,1-.856.856A.857.857,0,0,1,178.567,33.711Zm0,0" transform="translate(-157.178 -28.578)" fill="#858585"/><path d="M242.567,37.133A2.567,2.567,0,1,0,240,34.567,2.57,2.57,0,0,0,242.567,37.133Zm0-3.422a.856.856,0,1,1-.856.856A.857.857,0,0,1,242.567,33.711Zm0,0" transform="translate(-214.333 -28.578)" fill="#858585"/><path d="M448,64h1.711v1.711H448Zm0,0" transform="translate(-400.089 -57.156)" fill="#858585"/><path d="M448,32h1.711v1.711H448Zm0,0" transform="translate(-400.089 -28.578)" fill="#858585"/><path d="M416,64h1.711v1.711H416Zm0,0" transform="translate(-371.511 -57.156)" fill="#858585"/><path d="M416,32h1.711v1.711H416Zm0,0" transform="translate(-371.511 -28.578)" fill="#858585"/><path d="M384,64h1.711v1.711H384Zm0,0" transform="translate(-342.933 -57.156)" fill="#858585"/><path d="M384,32h1.711v1.711H384Zm0,0" transform="translate(-342.933 -28.578)" fill="#858585"/><path d="M352,64h1.711v1.711H352Zm0,0" transform="translate(-314.356 -57.156)" fill="#858585"/><path d="M352,32h1.711v1.711H352Zm0,0" transform="translate(-314.356 -28.578)" fill="#858585"/></svg>