<svg xmlns="http://www.w3.org/2000/svg" width="47.962" height="47.674" viewBox="0 0 47.962 47.674"><g transform="translate(-0.813 -1)"><path d="M38.227,35a9.227,9.227,0,1,0,9.227,9.227A9.238,9.238,0,0,0,38.227,35Zm0,16.917a7.689,7.689,0,1,1,7.689-7.689A7.7,7.7,0,0,1,38.227,51.917Z" transform="translate(-6.513 -7.856)" fill="#858585"/><path d="M41,52.942v1.538a6.178,6.178,0,0,0,1.775-.26l-.443-1.473A4.634,4.634,0,0,1,41,52.942Z" transform="translate(-9.286 -11.957)" fill="#858585"/><path d="M41,39v1.538A4.615,4.615,0,0,1,43.544,49l.849,1.282A6.152,6.152,0,0,0,41,39Z" transform="translate(-9.286 -8.78)" fill="#858585"/><path d="M32.3,17.3a6.155,6.155,0,0,0-3.61-5.6,3.845,3.845,0,1,0-5.083,0A6.155,6.155,0,0,0,20,17.3v1.538H32.3ZM23.845,8.845a2.307,2.307,0,1,1,2.307,2.307A2.31,2.31,0,0,1,23.845,8.845ZM21.538,17.3a4.614,4.614,0,1,1,9.227,0Z" transform="translate(-4.433 -0.924)" fill="#858585"/><path d="M38,5h4.614V6.538H38Z" transform="translate(-8.592 -0.924)" fill="#858585"/><path d="M38,9h4.614v1.538H38Z" transform="translate(-8.592 -1.848)" fill="#858585"/><path d="M38,13h4.614v1.538H38Z" transform="translate(-8.592 -2.773)" fill="#858585"/><path d="M38,17h4.614v1.538H38Z" transform="translate(-8.592 -3.697)" fill="#858585"/><path d="M38,21h4.614v1.538H38Z" transform="translate(-8.592 -4.621)" fill="#858585"/><path d="M0,0H1.538V4.614H0Z" transform="translate(40.296 11.2) rotate(-77.993)" fill="#858585"/><path d="M0,0H1.538V4.614H0Z" transform="translate(39.656 14.21) rotate(-77.993)" fill="#858585"/><path d="M0,0H1.538V4.613H0Z" transform="translate(39.015 17.217) rotate(-77.993)" fill="#858585"/><path d="M0,0H1.538V4.614H0Z" transform="translate(38.376 20.227) rotate(-77.993)" fill="#858585"/><path d="M0,0H1.538V4.614H0Z" transform="translate(37.732 23.232) rotate(-77.993)" fill="#858585"/><path d="M48.775,8.28,37.1,5.8V1H12.491V5.8L.813,8.28,5.967,32.527H4.8a3.845,3.845,0,1,0,0,7.689H16.336V38.678h3.3a12.3,12.3,0,1,0,23.887-5.732ZM46.95,9.464,42.49,30.446a12.371,12.371,0,0,0-5.393-5.12V7.37ZM35.559,2.538V24.692a12.1,12.1,0,0,0-1.538-.4V19.455H15.567V30.989h5.1a12.2,12.2,0,0,0-1.033,3.076h-3.3V32.527H14.029V2.538ZM21.551,29.451H17.1V20.993H32.483v3.115c-.255-.016-.509-.039-.769-.039A12.3,12.3,0,0,0,21.551,29.451ZM10.685,32.527l-1.2-5.651,3.007-.639v6.29ZM9.168,18.891a4.583,4.583,0,0,1,2.91-2c.134-.028.274-.044.413-.059V21.52l-3.966.844a4.584,4.584,0,0,1,.643-3.473Zm.854-3.825A2.294,2.294,0,1,1,12.491,11.2v3.862a2.189,2.189,0,0,1-.733.326A2.3,2.3,0,0,1,10.022,15.065Zm-7.383-5.6L12.491,7.37V9.493a3.777,3.777,0,0,0-2.012-.123,3.844,3.844,0,0,0-1.293,6.984c.063.041.13.071.195.108a6.135,6.135,0,0,0-2.359,6.22l.318,1.506,5.152-1.1v1.572L7.659,25.692l1.453,6.835H7.54ZM14.8,38.678H4.8a2.307,2.307,0,1,1,0-4.614h10Zm1.538-1.538V35.6h3.115c-.016.255-.039.509-.039.769s.023.514.039.769Zm15.379,10A10.765,10.765,0,1,1,42.48,36.371,10.777,10.777,0,0,1,31.714,47.137Z" transform="translate(0)" fill="#858585"/></g></svg>