<svg xmlns="http://www.w3.org/2000/svg" width="52.043" height="52.044" viewBox="0 0 52.043 52.044"><path d="M49.448,30.359h-2.6V21.685a4.342,4.342,0,0,0-4.337-4.337H28.631a4.342,4.342,0,0,0-4.337,4.337v8.674h-2.6a2.605,2.605,0,0,0-2.6,2.6v8.674a4.33,4.33,0,0,0,4.062,4.309l-1.247,4.364H13.8a4.344,4.344,0,0,0-4.249-3.469H7.814V6.9A5.171,5.171,0,0,1,18.1,6.174l.015.105a2.586,2.586,0,0,0-1.564,2.829l.237,1.4-2.319,3.983A1.735,1.735,0,0,0,15.965,17.1a1.762,1.762,0,0,0,.3-.025l8.321-1.406a1.735,1.735,0,0,0,.84-3.027l-3.5-3-.237-1.4A2.6,2.6,0,0,0,19.859,6.19l-.037-.262A6.906,6.906,0,0,0,6.08,6.9V46.839H4.345v-.867a.867.867,0,1,0-1.735,0v1.235a4.34,4.34,0,0,0-2.6,3.969.867.867,0,0,0,.868.867H51.183a.867.867,0,0,0,0-1.735H49.235l-1.247-4.364a4.33,4.33,0,0,0,4.062-4.309V32.961A2.605,2.605,0,0,0,49.448,30.359Zm-25.155-16.4-8.321,1.407,2.273-3.9,2.62-.443L24.3,13.956ZM20.121,9.385l-1.711.289-.145-.855a.869.869,0,0,1,.711-1,.89.89,0,0,1,.145-.012.869.869,0,0,1,.855.723Zm8.51,9.7H42.509a2.605,2.605,0,0,1,2.6,2.6v8.834a2.6,2.6,0,0,0-1.735,2.442v1.757a4.3,4.3,0,0,0-2.6-.89H30.366a4.3,4.3,0,0,0-2.6.89V32.961a2.6,2.6,0,0,0-1.735-2.442V21.685A2.605,2.605,0,0,1,28.631,19.083Zm12.143,16.48a2.605,2.605,0,0,1,2.6,2.6v.867H27.764v-.867a2.605,2.605,0,0,1,2.6-2.6Zm1.232,10.409,2.478,4.337H26.656l2.478-4.337Zm1.371-1.735H27.764V40.767H43.377Zm-22.552-2.6V32.961a.869.869,0,0,1,.867-.868h3.47a.869.869,0,0,1,.867.868V44.236h-2.6A2.6,2.6,0,0,1,20.825,41.635ZM1.891,50.308a2.606,2.606,0,0,1,2.453-1.735h5.2A2.607,2.607,0,0,1,12,50.308Zm21.818,0,1.239-4.337h2.188l-2.478,4.337Zm22.772,0L44,45.972h2.188l1.239,4.337Zm3.834-8.674a2.6,2.6,0,0,1-2.6,2.6h-2.6V32.961a.869.869,0,0,1,.867-.868h3.47a.869.869,0,0,1,.867.868Zm0,0" transform="translate(-0.008 0.001)" fill="#858585"/></svg>