<svg xmlns="http://www.w3.org/2000/svg" width="53.043" height="53.044" viewBox="0 0 53.043 53.044"><g transform="translate(-0.001)"><g transform="translate(0.001)"><path d="M11.714,23.989A16.694,16.694,0,0,0,4,38.128a.884.884,0,0,0,1.768,0,14.932,14.932,0,0,1,6.9-12.648.884.884,0,0,0-.952-1.491Z" transform="translate(-0.465 -2.765)" fill="#858585"/><path d="M22.652,4A2.652,2.652,0,1,0,25.3,6.652,2.652,2.652,0,0,0,22.652,4Zm0,3.536a.884.884,0,1,1,.884-.884A.884.884,0,0,1,22.652,7.536Z" transform="translate(-2.32 -0.464)" fill="#858585"/><path d="M15.094,43a3.094,3.094,0,1,0,3.094,3.094A3.094,3.094,0,0,0,15.094,43Zm0,4.42a1.326,1.326,0,1,1,1.326-1.326A1.326,1.326,0,0,1,15.094,47.42Z" transform="translate(-1.392 -4.985)" fill="#858585"/><circle cx="0.884" cy="0.884" r="0.884" transform="translate(7.072 43.319)" fill="#858585"/><circle cx="0.884" cy="0.884" r="0.884" transform="translate(10.608 45.971)" fill="#858585"/><path d="M43.761,7.073a9.6,9.6,0,0,0-8.45,4.42H28.55a3.93,3.93,0,0,0-2.028-.839V3.536A3.536,3.536,0,0,0,22.986,0h-5.3a3.536,3.536,0,0,0-3.536,3.536v7.118a3.938,3.938,0,0,0-2.652,6.4A20.334,20.334,0,0,0,9.031,52.266a4.549,4.549,0,0,0,2.506.778h17.6a4.235,4.235,0,0,0,2.351-.676,20.369,20.369,0,0,0,9.168-16.955c0-.018.01-.033.01-.05s-.008-.027-.009-.042c0-.577-.016-1.157-.065-1.739a20.483,20.483,0,0,0-10.228-15.9h4.945a9.6,9.6,0,0,0,8.45,4.42c5.119,0,9.283-3.371,9.283-7.515S48.88,7.073,43.761,7.073ZM15.913,3.536a1.768,1.768,0,0,1,1.768-1.768h5.3a1.768,1.768,0,0,1,1.768,1.768v7.073H15.913Zm-1.326,8.841H26.08A2.2,2.2,0,0,1,27.609,13l.015.012a2.2,2.2,0,0,1,0,3.154l-.015.012a2.2,2.2,0,0,1-1.529.619H14.587a2.21,2.21,0,0,1,0-4.42ZM30.516,50.892a2.516,2.516,0,0,1-1.377.384h-17.6a2.767,2.767,0,0,1-1.523-.478A18.565,18.565,0,0,1,2.52,40.568,11.3,11.3,0,0,0,7.868,38.3a9.3,9.3,0,0,1,5.985-2.057A9.288,9.288,0,0,1,19.835,38.3a11.038,11.038,0,0,0,6.988,2.365A11.017,11.017,0,0,0,33.8,38.3a9.422,9.422,0,0,1,5.074-2.017,18.605,18.605,0,0,1-8.358,14.607Zm8.315-17.161c.023.265.029.526.041.789A11.129,11.129,0,0,0,32.8,36.843,9.283,9.283,0,0,1,26.823,38.9a9.294,9.294,0,0,1-5.991-2.058,11.032,11.032,0,0,0-6.978-2.362,11.033,11.033,0,0,0-6.984,2.364A9.526,9.526,0,0,1,2.1,38.832,18.553,18.553,0,0,1,13.1,18.272a3.949,3.949,0,0,0,1.484.294H26.08a3.94,3.94,0,0,0,1.49-.3A18.694,18.694,0,0,1,38.831,33.731ZM29.814,15.913a3.725,3.725,0,0,0,0-2.652h4.818a5.793,5.793,0,0,0,0,2.652Zm13.947,4.42c-3.285,0-6.078-1.623-7.1-3.874l-.008-.016a4.406,4.406,0,0,1,0-3.713l.008-.016c1.018-2.251,3.811-3.874,7.1-3.874,4.144,0,7.515,2.578,7.515,5.746S47.9,20.334,43.761,20.334Z" transform="translate(-0.001)" fill="#858585"/><path d="M48.746,12C45.309,12,43,14.057,43,15.978a.884.884,0,0,0,1.768,0c0-.9,1.55-2.21,3.978-2.21a.884.884,0,1,0,0-1.768Z" transform="translate(-4.986 -1.391)" fill="#858585"/><path d="M7.093.489a.884.884,0,0,0,.4,1.191l3.536,1.768a.884.884,0,1,0,.79-1.582L8.279.1A.884.884,0,0,0,7.093.489Z" transform="translate(-0.812 0)" fill="#858585"/><path d="M11.025,10.093,7.489,11.861a.884.884,0,1,0,.79,1.582l3.536-1.768a.884.884,0,1,0-.79-1.582Z" transform="translate(-0.813 -1.159)" fill="#858585"/><path d="M6,6.884a.884.884,0,0,0,.884.884H10.42A.884.884,0,0,0,10.42,6H6.884A.884.884,0,0,0,6,6.884Z" transform="translate(-0.697 -0.696)" fill="#858585"/><path d="M36.841,49.977a.884.884,0,0,0-1.238.177,15.044,15.044,0,0,1-3.489,3.359l-3.229-.005a.884.884,0,1,0,0,1.768l3.5.005a.884.884,0,0,0,.491-.149,16.8,16.8,0,0,0,4.144-3.918A.884.884,0,0,0,36.841,49.977Z" transform="translate(-3.247 -5.774)" fill="#858585"/></g></g></svg>