<svg xmlns="http://www.w3.org/2000/svg" width="42.185" height="48.674" viewBox="0 0 42.185 48.674"><path d="M87.751,38.776V37.9a8.924,8.924,0,0,0-17.847,0v3.245H66.659a.811.811,0,0,0-.811.811V45.2a.811.811,0,0,0,.811.811h.081l.768,7.3H64.225V18.434a2.434,2.434,0,0,0-4.867,0V53.317H51.245a1.624,1.624,0,0,0-1.622,1.622v2.334l-1.6,6.393a.811.811,0,0,0,.787,1.008H86.94a.811.811,0,0,0,.811-.811v-3.2L88.9,49.783a2.483,2.483,0,0,0,1.289-2.19V41.757A3.047,3.047,0,0,0,87.751,38.776ZM71.526,37.9a7.3,7.3,0,0,1,14.6,0v.811h-7.5a3.047,3.047,0,0,0-2.981,2.434H71.526ZM67.47,42.771h8.112v1.622H67.47Zm.9,3.245h7.211v1.578a2.514,2.514,0,0,0,.748,1.779,2.393,2.393,0,0,0,1.723.7,2.445,2.445,0,0,0,1.585-.621,2.429,2.429,0,0,0,3.245,0,2.43,2.43,0,0,0,3.244,0,2.409,2.409,0,0,0,1.112.565l-1.03,9.79H74.593l-.633-2.534V54.94a1.624,1.624,0,0,0-1.622-1.622h-3.2ZM60.98,18.434a.811.811,0,1,1,1.622,0V53.317H60.98ZM51.245,54.94H72.337v1.622H51.245Zm1.85,8.112,1.217-4.867h1.573l-1.217,4.867Zm-2.028-4.867H52.64l-1.217,4.867H49.85Zm6.49,0H59.25l-.608,4.867h-2.3Zm2.719,4.867.608-4.867H62.7l.608,4.867Zm4.665,0-.608-4.867h1.693l1.217,4.867Zm3.973,0L67.7,58.185H69.27l1.217,4.867Zm3.245,0-1.217-4.867h1.573l1.217,4.867Zm13.969,0H75.4L75,61.43h11.13ZM88.562,45.2v2.388a.844.844,0,0,1-.771.856.811.811,0,0,1-.852-.81V44.393H85.317v3.245a.811.811,0,1,1-1.622,0V44.393H82.072v3.245a.811.811,0,0,1-1.622,0V44.393H78.827v3.245a.81.81,0,0,1-.8.811h-.011a.781.781,0,0,1-.549-.233.881.881,0,0,1-.264-.623V41.757a1.421,1.421,0,0,1,1.42-1.42h8.518a1.421,1.421,0,0,1,1.42,1.42Z" transform="translate(-48 -16)" fill="#858585"/><rect width="1.386" height="3.465" transform="translate(34.875 38.465)" fill="#858585"/><rect width="1.386" height="1.386" transform="translate(34.875 35)" fill="#858585"/></svg>