<svg xmlns="http://www.w3.org/2000/svg" width="53.045" height="53.044" viewBox="0 0 53.045 53.044"><path d="M48.693,18.649H34.122c.046-.511.071-1.029.071-1.552A17.1,17.1,0,0,0,8.554,2.284,1.036,1.036,0,1,0,9.591,4.078,15.026,15.026,0,1,1,17.1,32.121,14.856,14.856,0,0,1,7.675,28.8a1.037,1.037,0,0,0-.955-.183l-2.75.719,1.077-2.367a1.036,1.036,0,0,0-.105-1.039A15.033,15.033,0,0,1,4.089,9.573,1.036,1.036,0,1,0,2.3,8.533a17.108,17.108,0,0,0,.621,18.115L1.182,30.46a1.036,1.036,0,0,0,1.2,1.431l4.406-1.152a17.093,17.093,0,0,0,12.684,3.287V43.1a4.356,4.356,0,0,0,4.351,4.351H38.481l6.552,5.36a1.036,1.036,0,0,0,1.692-.8V47.45h1.968A4.356,4.356,0,0,0,53.045,43.1V23A4.356,4.356,0,0,0,48.693,18.649ZM50.973,43.1a2.282,2.282,0,0,1-2.279,2.279h-3a1.036,1.036,0,0,0-1.036,1.036v3.408l-5.117-4.187c-.282-.257-.529-.257-1.084-.257H23.828A2.282,2.282,0,0,1,21.549,43.1V33.6A17.154,17.154,0,0,0,33.805,20.721H48.693A2.282,2.282,0,0,1,50.973,23Zm0,0" fill="#858585"/><path d="M299.028,260.289a1.035,1.035,0,0,0-.441-1.973h-.424l-3.341-7.615a1.036,1.036,0,0,0-1.9,0l-3.341,7.615h-.424a1.035,1.035,0,0,0-.441,1.973l-1.244,2.836a1.036,1.036,0,1,0,1.9.832l1.566-3.569h5.873l1.566,3.569a1.036,1.036,0,1,0,1.9-.832Zm-7.183-1.973,2.027-4.62,2.027,4.62Zm0,0" transform="translate(-257.611 -224.173)" fill="#858585"/><path d="M46.438,47.47a1.036,1.036,0,1,0-.733-.3A1.045,1.045,0,0,0,46.438,47.47Zm0,0" transform="translate(-40.699 -40.695)" fill="#858585"/><path d="M100.671,99.949a1.036,1.036,0,1,0,1,1.817A11.865,11.865,0,0,0,106.8,96.2a11.867,11.867,0,0,0,5.128,5.562,1.036,1.036,0,0,0,1-1.817,9.8,9.8,0,0,1-4.977-7.129h4.6a1.036,1.036,0,0,0,0-2.072h-4.711V86.431a1.036,1.036,0,0,0-2.072,0v4.317h-3.743a1.036,1.036,0,0,0,0,2.072h3.632A9.8,9.8,0,0,1,100.671,99.949Zm0,0" transform="translate(-89.759 -76.547)" fill="#858585"/></svg>