<svg xmlns="http://www.w3.org/2000/svg" width="52.044" height="52.044" viewBox="0 0 52.044 52.044"><g transform="translate(-0.002 0.001)"><g transform="translate(0.002 -0.001)"><path d="M51.959,31.734l.008,0L43.422,13.088l2.072-1.031L44.719,10.5,42.7,11.51l-.273-.6a.867.867,0,0,0-1.577,0l-.244.533a11.158,11.158,0,0,0-4.693-1.038H28.626V8.674h1.735V6.939H28.87l.624-2.5a3.576,3.576,0,1,0-6.939,0l.624,2.5H21.687V8.674h1.735v1.735H16.14a11.158,11.158,0,0,0-4.7,1.041l-.244-.533a.867.867,0,0,0-1.577,0l-.273.6L7.329,10.5l-.775,1.554,2.072,1.036L.081,31.732A.847.847,0,0,0,0,32.093a6.079,6.079,0,0,0,6.072,6.072h8.674a6.079,6.079,0,0,0,6.072-6.072.848.848,0,0,0-.087-.359L12.165,13.02a9.435,9.435,0,0,1,3.975-.877h7.282V43.878L20.46,46.839H17.35a4.342,4.342,0,0,0-4.337,4.337.867.867,0,0,0,.867.867H38.167a.867.867,0,0,0,.867-.867A4.342,4.342,0,0,0,34.7,46.839h-3.11l-2.961-2.961V12.143h7.286a9.435,9.435,0,0,1,3.975.877l-8.58,18.711a.847.847,0,0,0-.079.362A6.079,6.079,0,0,0,37.3,38.165h8.674a6.079,6.079,0,0,0,6.072-6.072A.845.845,0,0,0,51.959,31.734Zm-37.211,4.7H6.074a4.344,4.344,0,0,1-4.25-3.47H19A4.344,4.344,0,0,1,14.748,36.43Zm3.853-5.2H2.221l7.968-17.383a.857.857,0,0,0,.444,0ZM24.573,2.442a1.9,1.9,0,0,1,2.9,0,1.831,1.831,0,0,1,.336,1.58l-.729,2.916H24.966l-.729-2.916A1.831,1.831,0,0,1,24.573,2.442Zm.584,7.966V8.674h1.735v1.735Zm1.735,1.735V43.37H25.156V12.143ZM34.7,48.574a2.607,2.607,0,0,1,2.454,1.735H14.9a2.607,2.607,0,0,1,2.454-1.735Zm-5.563-1.735H22.913L24.648,45.1H27.4ZM41.413,13.845a.592.592,0,0,0,.439-.018l7.975,17.4H33.447ZM45.974,36.43H37.3a4.344,4.344,0,0,1-4.25-3.47H50.224A4.344,4.344,0,0,1,45.974,36.43Z" transform="translate(-0.002 0.001)" fill="#858585"/></g></g></svg>