<svg xmlns="http://www.w3.org/2000/svg" width="45.09" height="48.311" viewBox="0 0 45.09 48.311"><path d="M31.511,8.888a.805.805,0,0,0,1.475-.447V3.61H35.4a.805.805,0,0,1,.805.805v6.908h1.61V4.416A2.416,2.416,0,0,0,35.4,2H6.416A2.416,2.416,0,0,0,4,4.416V43.064A2.416,2.416,0,0,0,6.416,45.48h25.1v-1.61H6.416a.805.805,0,0,1-.805-.805V4.416a.805.805,0,0,1,.805-.805h21.74V8.441a.805.805,0,0,0,1.475.447l.94-1.413ZM29.9,5.579l-.135.205V3.61h1.61V5.784l-.135-.2a.805.805,0,0,0-1.34,0Z" transform="translate(-4 -2)" fill="#858585"/><path d="M18.052,39.1A8.061,8.061,0,0,0,26.1,31.052a.805.805,0,0,0-.805-.805H18.857V23.805A.805.805,0,0,0,18.052,23a8.052,8.052,0,1,0,0,16.1ZM17.247,24.66v6.392a.805.805,0,0,0,.805.805h6.391a6.441,6.441,0,1,1-7.2-7.2Z" transform="translate(-5.169 -6.091)" fill="#858585"/><path d="M30.857,28.052A8.061,8.061,0,0,0,22.805,20a.805.805,0,0,0-.805.805v7.247a.805.805,0,0,0,.805.805h7.247A.805.805,0,0,0,30.857,28.052Zm-7.247-.805V21.66A6.455,6.455,0,0,1,29.2,27.247Z" transform="translate(-7.507 -5.507)" fill="#858585"/><path d="M28,42h3.221v1.61H28Z" transform="translate(-8.676 -9.793)" fill="#858585"/><path d="M28,46h3.221v1.61H28Z" transform="translate(-8.676 -10.572)" fill="#858585"/><path d="M14.026,15.247h-1.61a.805.805,0,0,1-.805-.805H10a2.416,2.416,0,0,0,2.416,2.416v.805h1.61v-.805a2.416,2.416,0,1,0,0-4.831h-1.61a.805.805,0,1,1,0-1.61h1.61a.805.805,0,0,1,.805.805h1.61a2.416,2.416,0,0,0-2.416-2.416V8h-1.61v.805a2.416,2.416,0,1,0,0,4.831h1.61a.805.805,0,0,1,0,1.61Z" transform="translate(-5.169 -3.169)" fill="#858585"/><path d="M20,15h6.441v1.61H20Z" transform="translate(-7.117 -4.533)" fill="#858585"/><path d="M20,11h6.441v1.61H20Z" transform="translate(-7.117 -3.753)" fill="#858585"/><g transform="translate(25.766 8.052)"><path d="M51.467,44H41.805a.805.805,0,0,0-.805.805v9.662a.805.805,0,0,0,.805.805h9.662a.805.805,0,0,0,.805-.805V44.805A.805.805,0,0,0,51.467,44Zm-.805,3.221h-1.61V45.61h1.61Zm-4.831,3.221v-1.61h1.61v1.61Zm1.61,1.61v1.61h-1.61v-1.61Zm-3.221-1.61H42.61v-1.61h1.61Zm1.61-3.221V45.61h1.61v1.61Zm3.221,1.61h1.61v1.61h-1.61ZM44.221,45.61v1.61H42.61V45.61Zm-1.61,6.441h1.61v1.61H42.61Zm6.441,1.61v-1.61h1.61v1.61Z" transform="translate(-36.974 -18.234)" fill="#858585"/><path d="M53.714,24.883h-.805V12.805a.805.805,0,0,0-1.288-.644l-1.66,1.248L48.3,12.161a.805.805,0,0,0-.966,0l-1.664,1.248L44,12.161a.805.805,0,0,0-.966,0l-1.667,1.248L39.7,12.161a.805.805,0,0,0-1.288.644V24.883H37.61A1.61,1.61,0,0,0,36,26.493V33.74a.805.805,0,0,0,.024.2l.781,3.124V50.649a1.61,1.61,0,0,0,1.61,1.61H52.909a1.61,1.61,0,0,0,1.61-1.61V37.06l.781-3.124a.805.805,0,0,0,.024-.2V26.493a1.61,1.61,0,0,0-1.61-1.61ZM40.026,14.416l.862.644a.805.805,0,0,0,.966,0l1.667-1.248,1.664,1.248a.805.805,0,0,0,.966,0l1.664-1.248,1.662,1.248a.805.805,0,0,0,.966,0l.855-.644V24.883H40.026ZM53.714,33.641l-.781,3.124a.805.805,0,0,0-.024.2V50.649H38.416V36.961a.8.8,0,0,0-.024-.2l-.781-3.124V26.493h16.1Z" transform="translate(-36 -12)" fill="#858585"/><path d="M40.805,40.052H52.078a.805.805,0,0,0,.805-.805V32.805A.805.805,0,0,0,52.078,32H40.805a.805.805,0,0,0-.805.805v6.441A.805.805,0,0,0,40.805,40.052Zm.805-6.441h9.662v4.831H41.61Z" transform="translate(-36.779 -15.896)" fill="#858585"/></g><path d="M43,19h4.831v1.61H43Z" transform="translate(-11.598 -5.312)" fill="#858585"/><path d="M51,19h1.61v1.61H51Z" transform="translate(-13.156 -5.312)" fill="#858585"/><path d="M43,23h4.831v1.61H43Z" transform="translate(-11.598 -6.091)" fill="#858585"/><path d="M51,23h1.61v1.61H51Z" transform="translate(-13.156 -6.091)" fill="#858585"/><path d="M45,36h1.61v1.61H45Z" transform="translate(-11.988 -8.624)" fill="#858585"/><path d="M49,36h1.61v1.61H49Z" transform="translate(-12.767 -8.624)" fill="#858585"/></svg>