<svg xmlns="http://www.w3.org/2000/svg" width="46.953" height="46.953" viewBox="0 0 46.953 46.953"><g transform="translate(-1 -1)"><path d="M21.272,57.065a2.272,2.272,0,0,0,2.272-2.272c0-.968-1.153-2.742-1.649-3.459a.786.786,0,0,0-1.247,0c-.5.717-1.649,2.492-1.649,3.459A2.272,2.272,0,0,0,21.272,57.065Zm0-3.9a5.647,5.647,0,0,1,.757,1.625.757.757,0,0,1-1.515,0A5.647,5.647,0,0,1,21.272,53.168Z" transform="translate(-4.368 -12.141)" fill="#858585"/><path d="M42.652,1H6.3A5.307,5.307,0,0,0,1,6.3V21.447a.757.757,0,0,0,.757.757h3.9l.652,3.912a.757.757,0,0,0,.747.632H17.4l3.287,6.246v2.842a.757.757,0,0,0,.757.757h.8a7.583,7.583,0,0,0,7.534,6.816,4.548,4.548,0,0,1,4.544,4.544h1.515a6.065,6.065,0,0,0-6.058-6.058,6.065,6.065,0,0,1-6.006-5.3H25.3a4.548,4.548,0,0,0,4.476,3.787,7.581,7.581,0,0,1,7.573,7.573h1.515a9.1,9.1,0,0,0-9.088-9.088,3.029,3.029,0,0,1-2.922-2.272h.65a.757.757,0,0,0,.757-.757V32.994l3.287-6.246H41.895a.757.757,0,0,0,.747-.632l.652-3.912h3.9a.757.757,0,0,0,.757-.757V6.3a5.307,5.307,0,0,0-5.3-5.3ZM34.739,20.69l.794-1.515h6.361V20.69ZM27.051,32.05h-.885l2.71-12.874h4.948ZM15.128,19.175h4.948l2.71,12.874H21.9ZM24.333,32.05l-2.71-12.874H27.33L24.62,32.05ZM22.2,33.564h4.544v1.515H22.2ZM41.895,11.6H7.058V10.088H41.895ZM7.058,13.117H41.895v1.515H7.058Zm0,3.029H41.895v1.515H7.058Zm0,3.029H13.42l.8,1.515H7.058ZM7.7,25.234,7.195,22.2H15.01L16.6,25.234Zm33.553,0H32.347l1.59-3.029h7.821Zm5.185-4.544H43.409V9.33a.757.757,0,0,0-.757-.757H6.3a.757.757,0,0,0-.757.757V20.69H2.515V6.3A3.791,3.791,0,0,1,6.3,2.515H42.652A3.791,3.791,0,0,1,46.439,6.3Z" fill="#858585"/><path d="M9.649,41.334C9.153,42.051,8,43.825,8,44.793a2.272,2.272,0,0,0,4.544,0c0-.968-1.153-2.742-1.649-3.459a.786.786,0,0,0-1.247,0Zm.623,4.217a.757.757,0,0,1-.757-.757,5.647,5.647,0,0,1,.757-1.626,5.647,5.647,0,0,1,.757,1.626.757.757,0,0,1-.757.757Z" transform="translate(-1.699 -9.714)" fill="#858585"/><path d="M16.649,36.334c-.5.717-1.649,2.492-1.649,3.459a2.272,2.272,0,0,0,4.544,0c0-.968-1.153-2.742-1.649-3.459a.786.786,0,0,0-1.247,0Zm.623,4.217a.757.757,0,0,1-.757-.757,5.647,5.647,0,0,1,.757-1.626,5.647,5.647,0,0,1,.757,1.626.757.757,0,0,1-.757.757Z" transform="translate(-3.398 -8.501)" fill="#858585"/><path d="M44.649,36.334c-.5.717-1.649,2.492-1.649,3.459a2.272,2.272,0,0,0,4.544,0c0-.968-1.153-2.742-1.649-3.459a.786.786,0,0,0-1.247,0Zm1.381,3.459a.757.757,0,0,1-1.515,0,5.647,5.647,0,0,1,.757-1.626A5.647,5.647,0,0,1,46.029,39.793Z" transform="translate(-10.193 -8.501)" fill="#858585"/><path d="M52.9,41.334a.786.786,0,0,0-1.247,0c-.5.717-1.649,2.492-1.649,3.459a2.272,2.272,0,0,0,4.544,0C54.544,43.825,53.391,42.051,52.9,41.334Zm-.623,4.217a.757.757,0,0,1-.757-.757,5.647,5.647,0,0,1,.757-1.626,5.647,5.647,0,0,1,.757,1.626A.757.757,0,0,1,52.272,45.55Z" transform="translate(-11.892 -9.714)" fill="#858585"/></g></svg>