<svg xmlns="http://www.w3.org/2000/svg" width="53.971" height="47.674" viewBox="0 0 53.971 47.674"><g transform="translate(0 8.096)"><path d="M288.681,101.8h-9.549V100h9.549a4.522,4.522,0,0,1,2.78.961l9.57,7.52a1.8,1.8,0,0,1-1.113,3.213H279.131v-1.8h20.786l-9.568-7.519A2.719,2.719,0,0,0,288.681,101.8Z" transform="translate(-279.131 -100)" fill="#858585"/></g><g transform="translate(0)"><g transform="translate(0 0)"><path d="M46.864,50.406,30.437,47.778a.9.9,0,0,1-.393-.168L13.492,35.2a4.518,4.518,0,0,0-2.7-.9H0V32.5H10.794a6.326,6.326,0,0,1,3.778,1.259L27.435,43.4,42.854,31.488A16.788,16.788,0,0,1,53.071,28a.9.9,0,0,1,.9.9v3.6a.9.9,0,0,1-.9.9,12.018,12.018,0,0,0-3.6.563V49.373a8.051,8.051,0,0,1,4.5,7.25v5.558a4.5,4.5,0,0,1-4.5,4.5H41.215a10.782,10.782,0,0,1-21.265,0H0v-1.8H19.789a10.724,10.724,0,0,1,.63-3.6H0v-1.8H21.249a10.765,10.765,0,0,1,18.08-.9h3.847v-2.7a2.7,2.7,0,0,1,2.7-2.7h5.278A6.272,6.272,0,0,0,46.864,50.406Zm.29-1.776c.18.028.348.067.52.107V34.688a11.925,11.925,0,0,0-2.069,1.306c-6.22,4.925-10.747,8.536-12.934,10.318Zm5.018-17v-1.8a15,15,0,0,0-8.219,3.085L28.931,44.526l1.612,1.209c2.019-1.691,8.484-6.831,13.943-11.154A13.894,13.894,0,0,1,52.172,31.628ZM39.494,63.711c-.013-.1-.028-.192-.044-.287a8.929,8.929,0,0,0-.222-1.008c-.012-.041-.02-.085-.032-.126a8.887,8.887,0,0,0-.418-1.1c-.028-.062-.058-.122-.09-.18a8.987,8.987,0,0,0-17.1,3.874c0,.276.018.547.042.817a8.99,8.99,0,0,0,17.906,0c.024-.27.042-.54.042-.817A8.984,8.984,0,0,0,39.494,63.711Zm.9-3.328c.017.036.028.075.044.111.106.237.2.481.289.727.039.106.081.21.116.318.084.255.152.517.217.781.024.1.056.2.078.3.059.279.1.564.139.851.012.09.031.18.041.27a10.8,10.8,0,0,1,.06,1.136h8.1a2.7,2.7,0,0,0,2.7-2.7v-1.8Zm5.482-5.4a.9.9,0,0,0-.9.9v2.7h7.2v-1.96a6.354,6.354,0,0,0-.215-1.638Z" transform="translate(0 -28)" fill="#858585"/></g></g><g transform="translate(24.219 30.512)"><g transform="translate(0)"><path d="M158.269,299.361a6.333,6.333,0,1,1-6.3,6.365A6.333,6.333,0,0,1,158.269,299.361Zm.065,10.866a4.5,4.5,0,1,0-4.5-4.5A4.5,4.5,0,0,0,158.333,310.227Z" transform="translate(-151.968 -299.361)" fill="#858585"/></g></g><g transform="translate(1.799 21.588)"><g transform="translate(0 0)"><path d="M378.7,220h4.5a2.7,2.7,0,1,1,0,5.4h-4.5a2.7,2.7,0,1,1,0-5.4Zm0,3.6h4.5a.9.9,0,1,0,0-1.8h-4.5a.9.9,0,1,0,0,1.8Z" transform="translate(-376 -220)" fill="#858585"/></g></g></svg>