<svg xmlns="http://www.w3.org/2000/svg" width="60.813" height="41.555" viewBox="0 0 60.813 41.555"><path d="M60.439,76.229a1.014,1.014,0,0,0-.845-.207L.813,88.184A1.014,1.014,0,0,0,0,89.177v27.366a1.014,1.014,0,0,0,1.014,1.014H59.8a1.014,1.014,0,0,0,1.014-1.014V77.015A1.013,1.013,0,0,0,60.439,76.229Zm-13.816,39.3H10.135V113.5H46.623Zm-9.954-11.149a1.013,1.013,0,0,0,.6-.194l2.213-1.608c.431.247.854.512,1.264.8l2.047,1.429a1.014,1.014,0,0,0,.483.177l2.431.233a1.011,1.011,0,0,1,.919,1.008v1.582l-1.262.628h-.968a3.991,3.991,0,0,0-7.686,0H30.322l.941-1.485a1.014,1.014,0,0,0,.157-.543v-2.027Zm-5.25-2.027v-2.019a16.915,16.915,0,0,1,4.688.778q.662.2,1.3.463l-1.07.778Zm11.095,7.157a1.965,1.965,0,1,1-1.965-1.965,1.964,1.964,0,0,1,1.965,1.965Zm-5.841.951a3.97,3.97,0,0,0,.4,1.014H20.2a3.961,3.961,0,0,0,.4-1.014Zm-7.281-8.108H22.944a16.956,16.956,0,0,1,6.449-1.949Zm0,2.027v1.733l-1.471,2.321H20.568a3.991,3.991,0,0,0-7.686,0H10.25a4.487,4.487,0,0,1,1.142-2.1l.555-.575a4.541,4.541,0,0,1,3.236-1.375Zm-10.7,5.13a1.965,1.965,0,1,1-1.965-1.965A1.965,1.965,0,0,1,18.69,109.511Zm29.96,6.019V113.5a2.029,2.029,0,0,0-2.027-2.027h-2.6a3.97,3.97,0,0,0,.4-1.014H45.6a1.015,1.015,0,0,0,.451-.106l2.037-1.014a1.014,1.014,0,0,0,.562-.908v-2.21A3.031,3.031,0,0,0,45.9,103.2l-2.167-.208L41.9,101.715a18.668,18.668,0,0,0-5.19-2.538A18.934,18.934,0,0,0,31,98.3c-.209,0-.425,0-.641.011A19.012,19.012,0,0,0,20.1,101.724l-.9.629h-4.01a6.582,6.582,0,0,0-4.693,1.992l-.559.579a6.5,6.5,0,0,0-1.823,4.523,1.014,1.014,0,0,0,1.014,1.014h3.727a3.97,3.97,0,0,0,.4,1.014H10.135A2.029,2.029,0,0,0,8.108,113.5v2.027H6.081V96.272H55.415l-5.5,19.257Zm10.135,0H52.021l5.5-19.257h1.262Zm0-21.284H5.068a1.014,1.014,0,0,0-1.014,1.014V115.53H2.027V90.191H58.786Zm0-6.081H49.764l9.021-1.8Zm0-3.872L39.428,88.164H30.256l28.53-5.852Zm0-4.05L20.168,88.164H10.915l47.871-9.9Z" transform="translate(0 -76.002)" fill="#858585"/></svg>