<svg xmlns="http://www.w3.org/2000/svg" width="66.036" height="43.445" viewBox="0 0 66.036 43.445"><g transform="translate(-223.505 -52.5)"><g transform="translate(224.005 53)"><g transform="translate(16.742 19.673)"><g transform="translate(0 0)"><rect width="2.93" height="2.93" fill="#858585" stroke="#fff" stroke-width="1"/></g></g><g transform="translate(22.602 19.673)"><g transform="translate(0 0)"><rect width="2.93" height="2.93" fill="#858585" stroke="#fff" stroke-width="1"/></g></g><g transform="translate(28.253 19.673)"><g transform="translate(0 0)"><rect width="2.721" height="2.93" transform="translate(0)" fill="#858585" stroke="#fff" stroke-width="1"/></g></g><g transform="translate(33.904 19.673)"><g transform="translate(0 0)"><rect width="2.93" height="2.93" fill="#858585" stroke="#fff" stroke-width="1"/></g></g><g transform="translate(0)"><path d="M143.754,23.617l-4.38-4.381a17.427,17.427,0,0,0-12.271-5.1H116.136L109.482,3.493a1.415,1.415,0,0,0-1.2-.665h-4.242a1.415,1.415,0,0,0-1.372,1.757l2.389,9.554H93.782L89.843,1.008A1.414,1.414,0,0,0,88.488,0h-7.07A1.414,1.414,0,0,0,80,1.414V15.553h.013a1.4,1.4,0,0,0,.4,1l8.837,8.837a19.365,19.365,0,0,0,13.781,5.716h.385l-3.513,7.91a1.414,1.414,0,0,0,.718,1.866q.062.028.127.049l4.239,1.414a1.415,1.415,0,0,0,1.606-.531l7.491-10.708h26.558a4.385,4.385,0,0,0,3.106-7.489ZM107.5,5.656l5.3,8.483h-4.828l-2.121-8.483ZM82.833,2.828h4.6L90.83,14.139h-8Zm22.054,36.5-1.761-.587,4.647-10.463h4.844ZM142.1,27.309a1.537,1.537,0,0,1-1.45.969H116.068l.422-.6a1.414,1.414,0,0,0-1.159-2.224h-8.478a1.414,1.414,0,0,0-1.292.84l-.883,1.988h-1.641A16.557,16.557,0,0,1,91.255,23.39l-6.423-6.423H127.1a14.58,14.58,0,0,1,8.566,2.828H125.25v2.828h13.51l3,3A1.518,1.518,0,0,1,142.1,27.309Z" transform="translate(-80.005)" fill="#858585" stroke="#fff" stroke-width="1"/></g><g transform="translate(39.554 19.673)"><g transform="translate(0 0)"><rect width="2.93" height="2.93" fill="#858585" stroke="#fff" stroke-width="1"/></g></g></g></g></svg>