<svg xmlns="http://www.w3.org/2000/svg" width="48.672" height="48.674" viewBox="0 0 48.672 48.674"><g transform="translate(-4.557 -4.557)"><path d="M82.869,78.3a.718.718,0,0,0-.852-.549l-1.308.282a.716.716,0,1,0,.3,1.4l1.308-.282A.716.716,0,0,0,82.869,78.3Z" transform="translate(-44.641 -43.218)" fill="#858585"/><path d="M69.39,79.752l-3.625.782a.716.716,0,1,0,.3,1.4l3.625-.782a.716.716,0,1,0-.3-1.4Z" transform="translate(-35.815 -44.4)" fill="#858585"/><path d="M42.6,91.621a4.514,4.514,0,1,0,5.363,3.461A4.514,4.514,0,0,0,42.6,91.621Zm1.6,7.424a3.081,3.081,0,1,1,2.362-3.662A3.081,3.081,0,0,1,44.2,99.045Z" transform="translate(-20.364 -51.359)" fill="#858585"/><path d="M53.212,38.2,52.6,35.364a.716.716,0,0,0-.852-.549l-2.7.582L44.223,13.008a.717.717,0,0,0-.851-.549l-14.356,3.1-8.033,1.733L18.359,5.122a.717.717,0,0,0-.7-.565H5.273a.716.716,0,0,0-.716.716v2.9a.716.716,0,0,0,.716.716h9.466L20.693,36.5a8.551,8.551,0,1,0,10.972,7.08l21-4.528a.716.716,0,0,0,.549-.851ZM25.093,36.345l-2.545-11.8,7.333-1.582,1.076,4.985a.715.715,0,0,0,.564.552.7.7,0,0,0,.136.013.717.717,0,0,0,.594-.315l1.927-2.85,2.7,1.828a.716.716,0,0,0,1.1-.743L36.9,21.452l7.333-1.582L47.651,35.7,29.995,39.507a8.6,8.6,0,0,0-4.9-3.162ZM34.24,15.894l1.113,5.159.85,3.939-1.815-1.228a.717.717,0,0,0-1,.192L32,26.008l-1.986-9.2Zm9.7,2.576L36.6,20.05l-.962-4.458,7.333-1.582ZM28.618,17.106l.962,4.459-7.333,1.582-.962-4.46Zm-13.3-9.649H5.99V5.99H17.08l2.653,12.3,3.848,17.847a8.506,8.506,0,0,0-1.489.059L16.018,8.022a.716.716,0,0,0-.7-.565Zm9.375,44.179a7.124,7.124,0,1,1,5.458-8.463,7.124,7.124,0,0,1-5.458,8.463Zm6.673-9.457a8.491,8.491,0,0,0-.56-1.38l20.548-4.431.31,1.433Z" transform="translate(0 0)" fill="#858585"/></g></svg>