<svg xmlns="http://www.w3.org/2000/svg" width="61.512" height="52.044" viewBox="0 0 61.512 52.044"><g transform="translate(0 -39.401)"><path d="M87.357,225.617a.9.9,0,0,0-.9.9.95.95,0,1,1-1.9,0,.9.9,0,0,0-.9-.9c-1.937.176-.541,3.763,1.852,3.654C87.9,229.38,89.294,225.794,87.357,225.617Z" transform="translate(-72.8 -163.842)" fill="#858585"/><path d="M134.567,193.085a.9.9,0,0,0-.9.9v1.184a.9.9,0,0,0,1.8,0v-.316a.9.9,0,0,0-.244-1.769Z" transform="translate(-117.606 -135.219)" fill="#858585"/><path d="M58.968,193.085H58.31a.9.9,0,0,0-.244,1.769v.316a.9.9,0,0,0,1.8,0v-1.183A.9.9,0,0,0,58.968,193.085Z" transform="translate(-50.518 -135.219)" fill="#858585"/><path d="M58.962,39.4H51.753a.9.9,0,0,0,0,1.8h7.209a.748.748,0,0,1,.748.748V73.183a.749.749,0,0,1-.748.748H25.35a4.97,4.97,0,0,0-.636-1.5H56.8a1.418,1.418,0,0,0,1.416-1.417v-26.9A1.418,1.418,0,0,0,56.8,42.7c-46.369,0-43.692-.028-43.987.057a11.241,11.241,0,0,0-2.526.26V41.951a.749.749,0,0,1,.748-.748H47.548a.9.9,0,0,0,0-1.8H11.033a2.553,2.553,0,0,0-2.55,2.55v1.623c-4.854,1.985-7.444,6.689-7.04,12.046a3.868,3.868,0,0,0,1.53,6.608A8.41,8.41,0,0,0,4.9,70.181,4.913,4.913,0,0,0,0,75.089v8.388a.9.9,0,0,0,1.8,0V75.089a3.109,3.109,0,0,1,3.106-3.106h1.2l2.607,3.2v5.835c-.067.2-.046-.38-.046,8.622H1.8V87.682a.9.9,0,0,0-1.8,0v2.862a.9.9,0,0,0,.9.9H30.512a1.534,1.534,0,0,0,1.532-1.532V79.86a1.527,1.527,0,0,0-.068-.453l4.467-2.44a1.407,1.407,0,0,0,.733-1.234H58.962a2.553,2.553,0,0,0,2.55-2.55V41.951a2.552,2.552,0,0,0-2.55-2.55ZM42.851,70.632a.027.027,0,0,1-.027-.027v-3.18c-.01-.081,9.311,0,9.334-.027a.027.027,0,0,1,.027.027v3.18a.027.027,0,0,1-.027.027ZM56.412,44.5V70.632H53.985c.015-.026-.008-3.179,0-3.206A1.831,1.831,0,0,0,52.158,65.6H42.85a1.831,1.831,0,0,0-1.829,1.829c0,.027,0,3.182,0,3.206H22.639a4.894,4.894,0,0,0-2.111-.451,8.413,8.413,0,0,0,1.931-7.948A3.868,3.868,0,0,0,24,55.619c.214-2.821-.372-8.1-5.229-11.117H56.412ZM12.743,72.74l-2.3-3.365a9.8,9.8,0,0,0,4.618-.017Zm4.538-4.162V68.5a9.608,9.608,0,0,0,3.655-3.474,6.549,6.549,0,0,1-2.374,4.536l-1.281-.982ZM22.325,56.96h.466a2.061,2.061,0,0,1-.474,3.408C22.337,59.778,22.325,58.651,22.325,56.96Zm-1.8,0c0,.169,0-.012,0,3.021A7.823,7.823,0,0,1,20.25,62.1c-2.137,7.7-13.083,7.528-15.107-.079a7.984,7.984,0,0,1-.253-1.961c0-4.367,0-2.7,0-3.094h2.56a6.2,6.2,0,0,0,5.293-2.979,6.2,6.2,0,0,0,5.293,2.979ZM8.205,68.538v.04L6.892,69.584a6.575,6.575,0,0,1-2.4-4.535A9.648,9.648,0,0,0,8.205,68.538ZM3.245,54.007c.7-13.3,19.693-12.074,18.948,1.151H18.036a4.4,4.4,0,0,1-4.391-4.391.9.9,0,0,0-1.8,0,4.4,4.4,0,0,1-4.391,4.391H3.245Zm-1.3,4.518a2.048,2.048,0,0,1,.706-1.565h.442c0,3.358,0,3.187,0,3.4a2.035,2.035,0,0,1-1.152-1.831ZM10.317,74.3l-2.539-3.12L8.9,70.316l2.942,4.3V89.643H10.473v-8.05c.066-.2.046.256.046-6.728A.9.9,0,0,0,10.317,74.3Zm3.328.318,2.942-4.3,1.123.86L15.17,74.3a.9.9,0,0,0-.2.569V89.643H13.644V74.614Zm3.125.572,2.607-3.2h1.208a3.109,3.109,0,0,1,3.1,3.1v3.253a1.539,1.539,0,0,0-1.37,1.524v9.783H16.77ZM30.242,89.643H24.117V80.13h6.126Zm-.05-11.315H25.885l.39-1.365a1.7,1.7,0,0,1,1.63-1.23h7.038Z" fill="#858585"/></g></svg>