<svg xmlns="http://www.w3.org/2000/svg" width="46.953" height="46.953" viewBox="0 0 46.953 46.953"><path d="M36.351,12.874A7.582,7.582,0,0,1,28.778,5.3V0h-10.6V5.3A7.582,7.582,0,0,1,10.6,12.874,10.614,10.614,0,0,0,0,23.477a23.477,23.477,0,0,0,46.953,0A10.614,10.614,0,0,0,36.351,12.874ZM23.477,45.439A21.987,21.987,0,0,1,1.515,23.477,9.1,9.1,0,0,1,10.6,14.389,9.1,9.1,0,0,0,19.69,5.3V1.515H21.2V3.029h1.515V1.515h1.515V9.909a9.947,9.947,0,0,1-.808,3.94l-.532,1.242a11.448,11.448,0,0,0-.931,4.536,8.426,8.426,0,0,0,1.031,4.043,4.289,4.289,0,0,0-1.493.779l-.081-.2a13.514,13.514,0,0,1-.972-5.044A10.045,10.045,0,0,1,21.5,14.727a11.588,11.588,0,0,0,1.215-5.15V4.544H21.2V9.577a10.045,10.045,0,0,1-1.056,4.473,11.588,11.588,0,0,0-1.215,5.15,15.011,15.011,0,0,0,1.08,5.6l.185.462a4.534,4.534,0,0,0-5.2-1.5l-4.852,1.82-.888-1.332a1.744,1.744,0,0,0-3.2.967v2.8A2.275,2.275,0,0,0,8.33,30.292v1.515a1.516,1.516,0,0,0,1.515,1.515h1.141a18.937,18.937,0,0,0,5.558,4.808l.994.568a7.525,7.525,0,0,0,4.424,1.44,17.172,17.172,0,0,0,8.829-2.445L34.446,35.5a7.57,7.57,0,1,0-3.5-13.448,2.437,2.437,0,0,0-.651-.089c-1.3,0-2.445.991-3.141,2.664a4.321,4.321,0,0,0-2.484-1.109l-.022-.033a6.927,6.927,0,0,1-1.169-3.858,9.947,9.947,0,0,1,.808-3.94l.532-1.242a11.448,11.448,0,0,0,.931-4.536V1.515h1.515V5.3a9.1,9.1,0,0,0,9.088,9.088,9.1,9.1,0,0,1,9.088,9.088A21.987,21.987,0,0,1,23.477,45.439ZM29.734,29.01a2.842,2.842,0,0,1-1.222-1.89,4.348,4.348,0,0,0-.273-.925l.046-.248c.4-1.478,1.208-2.47,2.007-2.47a1.094,1.094,0,0,1,.473.119l.452.216.376-.332a6.059,6.059,0,1,1,0,9.081l-1,1.136a7.617,7.617,0,0,0,1.889,1.216l-2.467,1.481a15.662,15.662,0,0,1-8.05,2.23A6.066,6.066,0,0,1,15.9,32.564a2.271,2.271,0,0,1,.769-1.7l-1-1.136a3.808,3.808,0,0,0-.52.564,4.068,4.068,0,0,0-3.158-1.511H8.33a.758.758,0,0,1-.757-.757v-2.8a.238.238,0,0,1,.42-.127l1.556,2.333,5.977-2.242A3.031,3.031,0,0,1,19.3,26.668a5.16,5.16,0,0,0,4.64,2.867h1.049V28.02H23.942a3.649,3.649,0,0,1-2.726-1.212l.983-.983a2.845,2.845,0,0,1,4.819,1.544,4.362,4.362,0,0,0,1.877,2.9l.978.652.84-1.26Zm-14.9,6.079a17.427,17.427,0,0,1-2.866-2.979l-.227-.3H9.845V30.292h2.149a2.564,2.564,0,0,1,2.434,1.754h0a3.8,3.8,0,0,0-.04.518A7.527,7.527,0,0,0,14.831,35.089Z" fill="#858585"/><g transform="translate(34.066 37.842)"><g transform="translate(0 0)"><rect width="2" height="1" transform="translate(-0.066 0.158)" fill="#858585"/></g></g><g transform="translate(40.14 18.962)"><g transform="translate(0 0)"><rect width="2" height="1" transform="translate(-0.14 0.038)" fill="#858585"/></g></g><g transform="translate(27.991 16.663)"><g transform="translate(0 0)"><rect width="2" height="1" transform="translate(0.009 0.337)" fill="#858585"/></g></g><g transform="translate(13.626 20.439)"><g transform="translate(0 0)"><rect width="1" height="2" transform="translate(0.374 -0.439)" fill="#858585"/></g></g><g transform="translate(9.112 35.625)"><g transform="translate(0 0)"><rect width="2" height="1" transform="translate(-0.111 0.375)" fill="#858585"/></g></g><g transform="translate(22.738 42.438)"><g transform="translate(0 0)"><rect width="1" height="2" transform="translate(0.262 -0.438)" fill="#858585"/></g></g><g transform="translate(4.515 18.962)"><g transform="translate(0 0)"><rect width="1" height="1" transform="translate(0.485 0.038)" fill="#858585"/></g></g></svg>