<svg xmlns="http://www.w3.org/2000/svg" width="48.465" height="48.674" viewBox="0 0 48.465 48.674"><path d="M49.505,11.487,47.925,6.527a.719.719,0,0,0-.679-.5H42.729a.713.713,0,0,0,0,1.426h2.795l-3.983,3.983L37.558,7.456H39.4a.713.713,0,1,0,0-1.426H35.948l-19.864-6a.721.721,0,0,0-.617.1L7.925,5.445A1.381,1.381,0,0,0,6.656,4.6H2.478A1.38,1.38,0,0,0,1.1,5.982v7.225a1.38,1.38,0,0,0,1.379,1.379H6.656a1.38,1.38,0,0,0,1.379-1.379V13.16h4.278V37.815a.713.713,0,1,0,1.426,0V31.287l3.983,3.983-3.983,3.983V37.339a.713.713,0,1,0-1.426,0v3.235L7.267,43.665a1.387,1.387,0,0,0-.658,1.175V47.3a1.38,1.38,0,0,0,1.379,1.379H23.768A1.38,1.38,0,0,0,25.147,47.3V44.84a1.387,1.387,0,0,0-.659-1.175l-5.046-3.091V13.16h9.982v1.834A1.38,1.38,0,0,0,30.8,16.373h2.575v9.032a1.416,1.416,0,0,0,1.606,1.379v5.607A1.464,1.464,0,0,0,36.053,33.8a1.251,1.251,0,0,1,.9,1.273A1.267,1.267,0,0,1,35.7,36.256h0a1.255,1.255,0,0,1-1.035-.551.713.713,0,1,0-1.18.8,2.68,2.68,0,0,0,2.212,1.177H35.7a2.71,2.71,0,0,0,2.677-2.535,2.672,2.672,0,0,0-1.919-2.717c-.026-.008-.045-.024-.045-.039V26.784a1.425,1.425,0,0,0,1.606-1.379V16.373h2.858a1.38,1.38,0,0,0,1.379-1.379V13.16h6.028a1.284,1.284,0,0,0,1.223-1.673ZM6.608,13.16H2.526V6.03H6.608Zm33.211-1.426H31.86l3.98-3.98Zm-8.8-5.7H19.181L17.209,1.859ZM15.878,2.38,17.6,6.03H14.152Zm-1.8.475-1.5,3.176h-3Zm-6.041,4.6H11.3l-3.27,3.27Zm1.008,4.278,3.983-3.983,3.983,3.983Zm4.7,4.7V13.16H17.01Zm4.278-2.265v7.97l-3.983-3.983Zm-4.278,5.709,3.983,3.983-3.983,3.983Zm.3,9.687,3.983-3.983v7.965Zm3.983,7.426v3.27h-3.27Zm5.7,7.876v2.381H8.034V44.867l5.192-3.18h5.3Zm-4.992-33.43L14.747,7.456H22.71Zm1.72.3L24.433,7.75l3.984,3.984Zm9.69-.3L26.155,7.456h7.965Zm6.454,13.919H34.8V16.373h1.787Zm4.236-10.411H30.851V13.16h9.977v1.787Zm2.434-3.213,3.659-3.659,1.166,3.659Z" transform="translate(-1.1 0)" fill="#858585"/></svg>