<svg xmlns="http://www.w3.org/2000/svg" width="49.674" height="49.674" viewBox="0 0 49.674 49.674"><g transform="translate(0.5 0.5)"><g transform="translate(0 0)"><path d="M48.674,15.686a4.254,4.254,0,0,0-.328-1.645h0L43.592,2.632A4.267,4.267,0,0,0,39.643,0H9.031A4.267,4.267,0,0,0,5.082,2.632L.328,14.041A4.255,4.255,0,0,0,0,15.686V21.58a4.261,4.261,0,0,0,1.093,2.852A4.261,4.261,0,0,0,0,27.284v5.7A4.261,4.261,0,0,0,1.093,35.84,4.261,4.261,0,0,0,0,38.692v5.7a4.283,4.283,0,0,0,4.278,4.278H44.4A4.283,4.283,0,0,0,48.674,44.4v-5.7a4.261,4.261,0,0,0-1.093-2.852,4.26,4.26,0,0,0,1.093-2.852v-5.7a4.261,4.261,0,0,0-1.093-2.852,4.26,4.26,0,0,0,1.093-2.852ZM7.715,3.729a1.422,1.422,0,0,1,1.316-.877H39.643a1.422,1.422,0,0,1,1.316.877l3.2,7.679H4.515ZM45.822,44.4A1.428,1.428,0,0,1,44.4,45.822H4.278A1.428,1.428,0,0,1,2.852,44.4v-5.7a1.428,1.428,0,0,1,1.426-1.426H44.4a1.428,1.428,0,0,1,1.426,1.426Zm0-11.408A1.428,1.428,0,0,1,44.4,34.414H4.278a1.428,1.428,0,0,1-1.426-1.426v-5.7a1.428,1.428,0,0,1,1.426-1.426H44.4a1.428,1.428,0,0,1,1.426,1.426Zm0-11.408A1.428,1.428,0,0,1,44.4,23.006H4.278A1.428,1.428,0,0,1,2.852,21.58V15.686A1.424,1.424,0,0,1,4.278,14.26H44.4a1.424,1.424,0,0,1,1.426,1.426Z" transform="translate(0 0)" fill="#858585" stroke="#fff" stroke-width="1"/></g><g transform="translate(14.26 40.118)"><path d="M177.284,422H151.426a1.426,1.426,0,0,0,0,2.852h25.858a1.426,1.426,0,1,0,0-2.852Z" transform="translate(-150 -422)" fill="#858585" stroke="#fff" stroke-width="1"/></g><g transform="translate(14.26 17.112)"><path d="M177.284,180H151.426a1.426,1.426,0,0,0,0,2.852h25.858a1.426,1.426,0,0,0,0-2.852Z" transform="translate(-150 -180)" fill="#858585" stroke="#fff" stroke-width="1"/></g><g transform="translate(5.704 17.112)"><path d="M61.426,180A1.426,1.426,0,0,0,60,181.426a1.437,1.437,0,1,0,2.852,0A1.426,1.426,0,0,0,61.426,180Z" transform="translate(-60 -180)" fill="#858585" stroke="#fff" stroke-width="1"/></g><g transform="translate(14.26 28.71)"><path d="M177.284,302H151.426a1.426,1.426,0,1,0,0,2.852h25.858a1.426,1.426,0,1,0,0-2.852Z" transform="translate(-150 -302)" fill="#858585" stroke="#fff" stroke-width="1"/></g><g transform="translate(5.545 29.11)"><g transform="translate(0 0)"><circle cx="1.386" cy="1.386" r="1.386" transform="translate(0 0)" fill="#858585" stroke="#fff" stroke-width="1"/></g></g><g transform="translate(5.545 40.2)"><g transform="translate(0 0)"><circle cx="1.386" cy="1.386" r="1.386" fill="#858585" stroke="#fff" stroke-width="1"/></g></g></g></svg>