<svg xmlns="http://www.w3.org/2000/svg" width="64.149" height="46.953" viewBox="0 0 64.149 46.953"><g transform="translate(0 -56.4)"><g transform="translate(0 56.4)"><path d="M63.051,78.9H57.624c2.256-5.122,2.012-9.269,1.159-12.074A14.515,14.515,0,0,0,45.063,56.4a17.154,17.154,0,0,0-5.915,1.1,30.678,30.678,0,0,0-6.83,3.415,29.277,29.277,0,0,0-6.83-3.415,17.416,17.416,0,0,0-5.915-1.1A14.515,14.515,0,0,0,5.854,66.827C5,69.815,4.7,74.328,7.561,80H.976a.976.976,0,1,0,0,1.951H8.72a12.871,12.871,0,0,0,1.1,1.646c6.342,9.147,20.123,19.086,22.623,19.7v.061a.189.189,0,0,0,.122-.061h.183v-.061c2.134-1.037,15.366-9.574,22.318-19.7a22.433,22.433,0,0,0,1.707-2.744h6.4a.963.963,0,0,0,.976-.976A1.024,1.024,0,0,0,63.051,78.9Zm-9.757,3.6c-6.464,9.452-18.354,17.074-20.916,18.72C29.757,99.573,17.928,91.889,11.4,82.5l-.366-.549H20a1.006,1.006,0,0,0,.915-.549L25,73.352l6.4,16.4a1,1,0,0,0,.915.61h.061a.971.971,0,0,0,.915-.732L38.9,70.425l2.988,9.7a.994.994,0,0,0,.793.671,1.056,1.056,0,0,0,.976-.427l2.378-3.476L48.051,80.3a.973.973,0,0,0,.854.488h5.488C54.027,81.4,53.661,81.95,53.295,82.5Zm2.2-3.6H49.514l-2.5-4.268a.973.973,0,0,0-.854-.488.923.923,0,0,0-.854.427L43.234,77.62,39.88,66.705a1.131,1.131,0,0,0-.976-.732,1.044,1.044,0,0,0-.976.732L32.257,86.279,26.1,70.547a.917.917,0,0,0-.854-.61.946.946,0,0,0-.915.549l-4.817,9.452h-9.7c-2.439-4.451-3.11-8.72-2.012-12.561a12.458,12.458,0,0,1,11.83-8.964,16.221,16.221,0,0,1,5.244.976,29.644,29.644,0,0,1,6.891,3.537.927.927,0,0,0,1.22,0,26.585,26.585,0,0,1,6.891-3.537,14.742,14.742,0,0,1,5.244-.976,12.518,12.518,0,0,1,11.83,8.964C57.99,70.913,57.441,74.815,55.49,78.9Z" transform="translate(0 -56.4)" fill="#858585"/></g></g></svg>