<svg xmlns="http://www.w3.org/2000/svg" width="53.044" height="53.044" viewBox="0 0 53.044 53.044"><g transform="translate(0 0)"><g transform="translate(0 0)"><g transform="translate(0)"><path d="M193.816,386.1H174.631a1.9,1.9,0,0,0-1.216,3.359l2.866,2.387a1.907,1.907,0,0,0,1.217.442h13.45a1.907,1.907,0,0,0,1.216-.442l2.866-2.387a1.9,1.9,0,0,0-1.216-3.359Zm.088,2-2.865,2.387a.14.14,0,0,1-.088.031H177.5a.135.135,0,0,1-.088-.031l-2.866-2.387a.132.132,0,0,1,.088-.233h19.184a.132.132,0,0,1,.088.233Z" transform="translate(-157.702 -352.5)" fill="#858585"/><path d="M450.618,386.537l-2.875,2.387a1.9,1.9,0,0,0,1.216,3.359H455.9a1.768,1.768,0,0,0,1.768-1.768v-2.652a1.768,1.768,0,0,0-1.768-1.768h-4.062A1.909,1.909,0,0,0,450.618,386.537Zm5.279,1.326v2.652h-6.938a.117.117,0,0,1-.125-.088.115.115,0,0,1,.04-.143l2.876-2.392a.131.131,0,0,1,.088-.03Z" transform="translate(-408.157 -352.5)" fill="#858585"/><path d="M47.688,386.537a1.91,1.91,0,0,0-1.212-.442H42.409a1.768,1.768,0,0,0-1.768,1.768v2.652a1.768,1.768,0,0,0,1.768,1.768h6.936a1.9,1.9,0,0,0,1.217-3.359Zm1.784,3.89a.117.117,0,0,1-.125.088H42.409v-2.652h4.067a.131.131,0,0,1,.088.03l2.877,2.393A.114.114,0,0,1,49.472,390.427Z" transform="translate(-37.105 -352.5)" fill="#858585"/><g transform="translate(4.42 42.435)"><path d="M57.875,487.7H51.686a.884.884,0,1,0,0,1.768h6.189a.884.884,0,1,0,0-1.768Z" transform="translate(-50.802 -487.698)" fill="#858585" fill-rule="evenodd"/><path d="M474.451,487.7h-6.189a.884.884,0,0,0,0,1.768h6.189a.884.884,0,0,0,0-1.768Z" transform="translate(-431.131 -487.698)" fill="#858585" fill-rule="evenodd"/><path d="M220.005,487.7H204.092a.884.884,0,0,0,0,1.768h15.913a.884.884,0,0,0,0-1.768Z" transform="translate(-189.947 -487.698)" fill="#858585" fill-rule="evenodd"/></g><path d="M53.044,192.613a2.652,2.652,0,0,0-2.652-2.652H48.624a2.635,2.635,0,0,0-2,.929l-1.66-4.979a4.414,4.414,0,0,0-4.193-3.023h-28.5a4.414,4.414,0,0,0-4.193,3.023L6.42,190.89a2.636,2.636,0,0,0-2-.929H2.652a2.652,2.652,0,1,0,0,5.3h1.4L.777,198.542A2.633,2.633,0,0,0,0,200.417v11.645a2.652,2.652,0,0,0,1.768,2.49v2.815a2.652,2.652,0,0,0,2.652,2.652h6.189a2.652,2.652,0,0,0,2.652-2.652v-2.652H39.783v2.652a2.652,2.652,0,0,0,2.652,2.652h6.189a2.652,2.652,0,0,0,2.652-2.652v-2.815a2.652,2.652,0,0,0,1.768-2.49V200.417a2.633,2.633,0,0,0-.777-1.875l-3.277-3.277h1.4a2.652,2.652,0,0,0,2.652-2.652ZM9.757,186.47a2.652,2.652,0,0,1,2.516-1.814h28.5a2.652,2.652,0,0,1,2.516,1.814l2.342,7.027H7.415ZM2.652,193.5a.884.884,0,0,1,0-1.768H4.42a.884.884,0,0,1,.884.884v.884Zm8.841,23.87a.884.884,0,0,1-.884.884H4.42a.884.884,0,0,1-.884-.884v-2.652h7.957Zm38.015,0a.884.884,0,0,1-.884.884H42.435a.884.884,0,0,1-.884-.884v-2.652h7.957Zm1.509-17.574a.892.892,0,0,1,.259.625v11.645a.884.884,0,0,1-.884.884H2.652a.884.884,0,0,1-.884-.884V200.417a.892.892,0,0,1,.259-.625l4.527-4.527H46.49Zm-3.277-6.3v-.884a.884.884,0,0,1,.884-.884h1.768a.884.884,0,0,1,0,1.768Z" transform="translate(0 -166.975)" fill="#858585"/><path d="M85.552,14.145H93.66a2.652,2.652,0,0,0,2.49-1.768h1.194a2.68,2.68,0,0,0,1.884-.781l.728-.728a.884.884,0,0,1,.628-.26H103.9a1.755,1.755,0,0,0,1.25-.518l.884-.884.884.884a1.756,1.756,0,0,0,1.25.518h1.92a1.755,1.755,0,0,0,1.25-.518l.884-.884.884.884a1.756,1.756,0,0,0,1.25.518h1.694a1.787,1.787,0,0,0,1.061-.354l2.36-1.768a1.768,1.768,0,0,0,0-2.829l-2.36-1.768a1.78,1.78,0,0,0-1.061-.354H100.582a.9.9,0,0,1-.634-.265l-.728-.728a2.64,2.64,0,0,0-1.874-.775h-1.2A2.652,2.652,0,0,0,93.66,0H85.552a2.637,2.637,0,0,0-1.876.777L82.06,2.393a2.633,2.633,0,0,0-.777,1.875V9.877a2.633,2.633,0,0,0,.777,1.875l1.616,1.616A2.633,2.633,0,0,0,85.552,14.145ZM96.312,3.536h1.034a.884.884,0,0,1,.628.26l.728.728a2.681,2.681,0,0,0,1.884.781h15.471l2.357,1.768-2.36,1.768H114.36l-.884-.884a1.768,1.768,0,0,0-2.5,0l-.884.884h-1.92l-.884-.884a1.768,1.768,0,0,0-2.5,0l-.884.884h-3.321a2.64,2.64,0,0,0-1.878.778l-.728.728a.9.9,0,0,1-.633.265H96.312ZM83.051,9.877V4.268a.892.892,0,0,1,.259-.625l1.616-1.616a.884.884,0,0,1,.626-.259H93.66a.884.884,0,0,1,.884.884v8.841a.884.884,0,0,1-.884.884H85.552a.884.884,0,0,1-.626-.259L83.31,10.5A.892.892,0,0,1,83.051,9.877Z" transform="translate(-74.21 0)" fill="#858585"/><path d="M123.692,47.714h1.768a1.768,1.768,0,0,0,1.768-1.768V42.409a1.768,1.768,0,0,0-1.768-1.768h-1.768a1.768,1.768,0,0,0-1.768,1.768v3.536A1.768,1.768,0,0,0,123.692,47.714Zm0-5.3h1.768v3.536h-1.768Z" transform="translate(-111.315 -37.105)" fill="#858585"/></g></g></g></svg>