<svg xmlns="http://www.w3.org/2000/svg" width="53.044" height="53.044" viewBox="0 0 53.044 53.044"><g transform="translate(-2 -2)"><path d="M28.522,55.044A26.522,26.522,0,1,1,55.044,28.522,26.522,26.522,0,0,1,28.522,55.044Zm0-51.529A25.007,25.007,0,1,0,53.529,28.522,25.007,25.007,0,0,0,28.522,3.516Z" fill="#858585"/><path d="M29.975,51.951A21.975,21.975,0,1,1,51.951,29.975,21.975,21.975,0,0,1,29.975,51.951Zm0-42.435a20.46,20.46,0,1,0,20.46,20.46A20.46,20.46,0,0,0,29.975,9.516Z" transform="translate(-1.453 -1.453)" fill="#858585"/><path d="M41.758,59.361A.758.758,0,0,1,41,58.6V50.753A10.76,10.76,0,0,1,51.753,40h7.214a.758.758,0,0,1,0,1.516H51.753a9.252,9.252,0,0,0-9.237,9.237V58.6A.758.758,0,0,1,41.758,59.361Z" transform="translate(-9.447 -9.205)" fill="#858585"/><path d="M26.257,59.361A.758.758,0,0,1,25.5,58.6V50.753a9.252,9.252,0,0,0-9.237-9.237H9.048a.758.758,0,0,1,0-1.516h7.214A10.76,10.76,0,0,1,27.015,50.753V58.6A.758.758,0,0,1,26.257,59.361Z" transform="translate(-1.524 -9.205)" fill="#858585"/><path d="M50.337,28.016H10.418a.758.758,0,1,1,0-1.516h39.92a.758.758,0,0,1,0,1.516Z" transform="translate(-1.855 -5.935)" fill="#858585"/><path d="M35.789,40.328A3.789,3.789,0,0,1,32,36.539V33.508a.758.758,0,0,1,.758-.758H38.82a.758.758,0,0,1,.758.758v3.031A3.789,3.789,0,0,1,35.789,40.328Zm-2.273-6.062v2.273a2.273,2.273,0,0,0,4.547,0V34.266Z" transform="translate(-7.267 -7.448)" fill="#858585"/></g></svg>