<svg xmlns="http://www.w3.org/2000/svg" width="46.026" height="48.862" viewBox="0 0 46.026 48.862"><g transform="translate(0.25 0.405)"><path d="M238.758,42.26a.665.665,0,0,0,.487.172,21.765,21.765,0,0,1,3.055.072l.065,0a.68.68,0,0,0,.063-1.358,23.1,23.1,0,0,0-3.246-.076.682.682,0,0,0-.423,1.187Z" transform="translate(-217.5 -38.269)" fill="#858585" stroke="gray" stroke-width="0.5"/><path d="M166.975,49.588a.677.677,0,0,0,.253-.05,21.3,21.3,0,0,1,2.908-.929.68.68,0,0,0-.32-1.323,22.65,22.65,0,0,0-3.1.988.681.681,0,0,0,.253,1.312Z" transform="translate(-152.42 -43.872)" fill="#858585" stroke="gray" stroke-width="0.5"/><path d="M106.776,77.641a.681.681,0,1,0-.737-1.144,22.933,22.933,0,0,0-2.6,1.948.681.681,0,1,0,.892,1.028A21.576,21.576,0,0,1,106.776,77.641Z" transform="translate(-95.583 -70.107)" fill="#858585" stroke="gray" stroke-width="0.5"/><path d="M327.612,44h0a.7.7,0,1,0,.127.988.7.7,0,0,0-.127-.988Z" transform="translate(-296.731 -40.793)" fill="#858585" stroke="gray" stroke-width="0.5"/><path d="M345.149,57.547h0a.7.7,0,1,0,.268.468.7.7,0,0,0-.268-.468Z" transform="translate(-312.529 -53)" fill="#858585" stroke="gray" stroke-width="0.5"/><path d="M362.7,71.1h0a.7.7,0,1,0,.268.468.7.7,0,0,0-.268-.468Z" transform="translate(-328.339 -65.21)" fill="#858585" stroke="gray" stroke-width="0.5"/><path d="M380.243,84.653h0a.7.7,0,1,0,.127.988.7.7,0,0,0-.127-.988Z" transform="translate(-344.147 -77.421)" fill="#858585" stroke="gray" stroke-width="0.5"/><path d="M273.951,480.542a21.389,21.389,0,0,1-3.012.5A.681.681,0,0,0,271,482.4q.032,0,.065,0a22.836,22.836,0,0,0,3.2-.535.681.681,0,1,0-.32-1.323Z" transform="translate(-246.14 -434.197)" fill="#858585" stroke="gray" stroke-width="0.5"/><path d="M200.434,481.053a21.425,21.425,0,0,1-3.012-.5.681.681,0,1,0-.32,1.323,22.81,22.81,0,0,0,3.2.535c.022,0,.043,0,.064,0a.681.681,0,0,0,.063-1.357Z" transform="translate(-179.706 -434.204)" fill="#858585" stroke="gray" stroke-width="0.5"/><path d="M431.492,134.659a.681.681,0,0,0-.666,1.066,21.5,21.5,0,0,1,1.591,2.606.68.68,0,1,0,1.209-.624,22.834,22.834,0,0,0-1.692-2.771A.676.676,0,0,0,431.492,134.659Z" transform="translate(-390.625 -122.595)" fill="#858585" stroke="gray" stroke-width="0.5"/><path d="M344.8,451.524a21.378,21.378,0,0,1-2.678,1.465.681.681,0,0,0,.566,1.238,22.783,22.783,0,0,0,2.849-1.558.681.681,0,1,0-.737-1.144Z" transform="translate(-310.467 -407.973)" fill="#858585" stroke="gray" stroke-width="0.5"/><path d="M406.131,401.823a.68.68,0,0,0-.956.114,21.6,21.6,0,0,1-2.056,2.26.681.681,0,1,0,.939.985,22.95,22.95,0,0,0,2.186-2.4A.681.681,0,0,0,406.131,401.823Z" transform="translate(-365.588 -363.163)" fill="#858585" stroke="gray" stroke-width="0.5"/><path d="M463.7,204.968a.684.684,0,0,0,.673.585.717.717,0,0,0,.1-.007.681.681,0,0,0,.578-.77,22.716,22.716,0,0,0-.687-3.175.68.68,0,1,0-1.306.383A21.36,21.36,0,0,1,463.7,204.968Z" transform="translate(-419.745 -182.472)" fill="#858585" stroke="gray" stroke-width="0.5"/><path d="M449.319,336.839a.681.681,0,0,0-.866.421,21.329,21.329,0,0,1-1.2,2.808.681.681,0,1,0,1.209.624,22.706,22.706,0,0,0,1.281-2.988.68.68,0,0,0-.421-.866Z" transform="translate(-405.46 -304.716)" fill="#858585" stroke="gray" stroke-width="0.5"/><path d="M30.814,195.379a.68.68,0,0,0,.8-.54,21.331,21.331,0,0,1,.788-2.95.68.68,0,0,0-1.286-.445,22.692,22.692,0,0,0-.839,3.139.681.681,0,0,0,.54.8Z" transform="translate(-29.866 -173.349)" fill="#858585" stroke="gray" stroke-width="0.5"/><path d="M132.357,452.974a21.435,21.435,0,0,1-2.68-1.467.68.68,0,0,0-.737,1.144,22.808,22.808,0,0,0,2.851,1.56.673.673,0,0,0,.283.062.681.681,0,0,0,.283-1.3Z" transform="translate(-118.486 -407.959)" fill="#858585" stroke="gray" stroke-width="0.5"/><path d="M27.851,267.623a21.67,21.67,0,0,1-.215-3.047.681.681,0,1,0-1.361,0,23.033,23.033,0,0,0,.229,3.239.684.684,0,0,0,.673.584.718.718,0,0,0,.1-.007.682.682,0,0,0,.578-.77Z" transform="translate(-26.274 -239.035)" fill="#858585" stroke="gray" stroke-width="0.5"/><path d="M470.653,263.9a.681.681,0,0,0-.681.68,21.7,21.7,0,0,1-.215,3.048.681.681,0,0,0,.578.769.717.717,0,0,0,.1.007.684.684,0,0,0,.673-.585,23.059,23.059,0,0,0,.229-3.239A.681.681,0,0,0,470.653,263.9Z" transform="translate(-425.807 -239.039)" fill="#858585" stroke="gray" stroke-width="0.5"/><path d="M39.791,337.253a.68.68,0,1,0-1.286.445,22.708,22.708,0,0,0,1.28,2.986.68.68,0,1,0,1.209-.624A21.351,21.351,0,0,1,39.791,337.253Z" transform="translate(-37.259 -304.711)" fill="#858585" stroke="gray" stroke-width="0.5"/><path d="M75.151,401.918a.681.681,0,1,0-1.069.842,22.959,22.959,0,0,0,2.185,2.4.681.681,0,1,0,.939-.985,21.591,21.591,0,0,1-2.055-2.26Z" transform="translate(-69.213 -363.147)" fill="#858585" stroke="gray" stroke-width="0.5"/><path d="M58.975,126.277a.682.682,0,0,0-.956.114A22.887,22.887,0,0,0,56.2,129.08a.68.68,0,1,0,1.178.682,21.485,21.485,0,0,1,1.714-2.528A.682.682,0,0,0,58.975,126.277Z" transform="translate(-53.149 -114.922)" fill="#858585" stroke="gray" stroke-width="0.5"/><path d="M301.89,27.877a1.012,1.012,0,0,0,1.068-.359.6.6,0,0,0,.1-.182l.988-3.076,2.733-1.741a.592.592,0,0,0,.151-.138,1.015,1.015,0,0,0-.838-1.634l-3.176-.425L301.322,19.1l2.183-2.826a.961.961,0,0,0-.173-1.348l-.684-.528a1.33,1.33,0,0,0-1.682.049L298.3,16.761,294.084,13.5a2.425,2.425,0,0,0-2.965,3.839l4.216,3.256-1.569,3.166a1.33,1.33,0,0,0,.378,1.639l.684.528a.953.953,0,0,0,.585.2.975.975,0,0,0,.124-.008.954.954,0,0,0,.638-.366l2.183-2.826,1.59,1.228,1.219,2.959a1.012,1.012,0,0,0,.725.756Zm-.9-4.315a.6.6,0,0,0-.186-.244l-3.055-2.359a.595.595,0,1,0-.727.941l.4.308-2.043,2.646-.5-.389a.138.138,0,0,1-.04-.17l1.787-3.6a.594.594,0,0,0-.169-.735l-4.6-3.554a1.236,1.236,0,0,1,1.511-1.957l4.6,3.554a.6.6,0,0,0,.754-.022l3.034-2.638a.138.138,0,0,1,.175-.005l.5.389-2.043,2.646-.4-.308a.595.595,0,1,0-.727.941l3.055,2.36a.594.594,0,0,0,.285.119l2.974.4-2.347,1.5a.6.6,0,0,0-.247.32l-.848,2.641Z" transform="translate(-264.027 -12.999)" fill="#858585" stroke="gray" stroke-width="0.5"/><path d="M126.3,126.809a14.265,14.265,0,1,0,14.265,14.265A14.281,14.281,0,0,0,126.3,126.809Zm-13.076,14.265A13.091,13.091,0,0,1,125.8,128.009l.609,3.7a.876.876,0,0,1-.384.874l-2.3,1.5a2.058,2.058,0,0,0-.9,2.114l.309,1.616a2.072,2.072,0,0,0,1.132,1.473l1.613.777a.878.878,0,0,1,.482.943l-.588,3.264a.875.875,0,0,1-1.655.214l-.591-1.273a2.071,2.071,0,0,0-1.872-1.194h-2.391a2.054,2.054,0,0,0-1.186.375l-1.608,1.129a.874.874,0,0,1-.7.135l-2.389-.567A13.113,13.113,0,0,1,113.229,141.074Zm19.78,7.118.419,3.841a13.069,13.069,0,0,1-19.776-7.656l1.847.438a2.066,2.066,0,0,0,1.663-.319l1.608-1.129a.871.871,0,0,1,.5-.159h2.391a.878.878,0,0,1,.794.506l.591,1.273a2.047,2.047,0,0,0,1.658,1.183,2.128,2.128,0,0,0,.219.011,2.045,2.045,0,0,0,1.647-.828,2.074,2.074,0,0,0,.379-.871l.588-3.264A2.07,2.07,0,0,0,126.4,139l-1.613-.777a.879.879,0,0,1-.48-.624L124,135.978a.872.872,0,0,1,.38-.9l2.3-1.5a2.066,2.066,0,0,0,.906-2.062l-.575-3.5a13.059,13.059,0,0,1,9.368,4.727l-1.011.72a3.015,3.015,0,0,0-1.17,1.706l-.321,1.254a3.011,3.011,0,0,0,1.063,3.119,1.83,1.83,0,0,1,.656,1.834l-.649,2.893a1.818,1.818,0,0,1-.5.9l-.566.56A3,3,0,0,0,133.009,148.192Zm6.371-7.118a13.057,13.057,0,0,1-4.845,10.152l-.344-3.164a1.813,1.813,0,0,1,.529-1.492l.566-.56a3.006,3.006,0,0,0,.819-1.48l.649-2.893a3.024,3.024,0,0,0-1.084-3.031,1.822,1.822,0,0,1-.643-1.887l.321-1.254a1.823,1.823,0,0,1,.708-1.032l1.037-.739a13,13,0,0,1,2.288,7.38Z" transform="translate(-103.542 -115.532)" fill="#858585" stroke="gray" stroke-width="0.5"/></g></svg>