<svg xmlns="http://www.w3.org/2000/svg" width="64.666" height="48.674" viewBox="0 0 64.666 48.674"><g transform="translate(0 -63.352)"><path d="M62.018,69.5H58.984V66.976a3.628,3.628,0,0,0-3.624-3.624H52.469a3.628,3.628,0,0,0-3.624,3.624V77.353H44V74.567a3.663,3.663,0,0,0-5.8-2.981,3.665,3.665,0,0,0-6.516-.2,3.657,3.657,0,0,0-5.29.883,3.664,3.664,0,0,0-6.05,2.783v2.3H15.822V74.681a.947.947,0,0,0-1.893,0V96.672A1.733,1.733,0,0,1,12.2,98.4H9.306a1.733,1.733,0,0,1-1.731-1.731v-29.7a1.733,1.733,0,0,1,1.731-1.731H12.2a1.733,1.733,0,0,1,1.731,1.731v3.67a.947.947,0,0,0,1.893,0v-3.67A3.628,3.628,0,0,0,12.2,63.352H9.306a3.628,3.628,0,0,0-3.624,3.624V69.5H2.649A2.652,2.652,0,0,0,0,72.146V91.5a2.652,2.652,0,0,0,2.649,2.649H5.682v2.521A3.628,3.628,0,0,0,9.306,100.3H12.2a3.628,3.628,0,0,0,3.624-3.624V86.3h3.244v1.729a3.853,3.853,0,0,0,.875,2.442l2.94,3.574v17.04a.947.947,0,0,0,1.893,0V93.7a.947.947,0,0,0-.216-.6L21.4,89.263a1.955,1.955,0,0,1-.444-1.239V86.3l17.9.109a.947.947,0,0,0,0-1.893H34.554a1.611,1.611,0,1,1,0-3.223h8.139A1.015,1.015,0,0,1,43.708,82.3v5.721a1.954,1.954,0,0,1-.444,1.239L40.108,93.1a.947.947,0,0,0-.216.6v2.5a.947.947,0,1,0,1.893,0V94.039l2.94-3.574a3.854,3.854,0,0,0,.875-2.442V86.3h3.244V96.672a3.628,3.628,0,0,0,3.624,3.624H55.36a3.628,3.628,0,0,0,3.624-3.624V94.151h3.033A2.652,2.652,0,0,0,64.666,91.5V72.146A2.651,2.651,0,0,0,62.018,69.5ZM2.649,92.258a.757.757,0,0,1-.756-.756V72.146a.757.757,0,0,1,.756-.756H5.682V92.258ZM40.334,72.794a1.775,1.775,0,0,1,1.773,1.773v3.524a1.771,1.771,0,0,1-.575,1.3h-2.4a1.771,1.771,0,0,1-.575-1.3V74.567A1.775,1.775,0,0,1,40.334,72.794Zm-7.213.37a1.773,1.773,0,1,1,3.547,0v4.928a1.771,1.771,0,0,1-.575,1.3H34.554a3.5,3.5,0,0,0-.761.084,1.764,1.764,0,0,1-.673-1.388V73.163Zm-5.44,1.128a1.773,1.773,0,0,1,3.547,0v3.8a1.773,1.773,0,1,1-3.547,0Zm-5.44.762a1.773,1.773,0,0,1,3.547,0v3.038a1.773,1.773,0,1,1-3.547,0Zm-6.419,4.193h4.713a3.664,3.664,0,0,0,6.2,1.3,3.652,3.652,0,0,0,4.819.546,3.5,3.5,0,0,0-.164,3.309H15.822ZM45.6,84.4V82.3a2.912,2.912,0,0,0-1.913-2.732q.07-.159.125-.324h5.032V84.4Zm17.172,7.1a.757.757,0,0,1-.756.756H58.984V89.522a.947.947,0,1,0-1.893,0v7.15A1.733,1.733,0,0,1,55.36,98.4H52.469a1.733,1.733,0,0,1-1.731-1.731v-29.7a1.733,1.733,0,0,1,1.731-1.731H55.36a1.733,1.733,0,0,1,1.731,1.731V85.488a.947.947,0,1,0,1.893,0V71.39h3.033a.757.757,0,0,1,.756.756Z" transform="translate(0 0)" fill="#858585"/><path d="M317.011,348.04a.947.947,0,0,0-.947.947v10.849a.947.947,0,0,0,1.893,0V348.987A.947.947,0,0,0,317.011,348.04Z" transform="translate(-276.171 -248.755)" fill="#858585"/></g></svg>