<svg xmlns="http://www.w3.org/2000/svg" width="45.104" height="52.044" viewBox="0 0 45.104 52.044"><g transform="translate(-34.136)"><g transform="translate(34.136 0)"><path d="M63.094,45.4a7.56,7.56,0,0,1,1.228-3.244.793.793,0,0,0,.041-.087c14.032-8.233,14.87-26.224,14.877-26.424a.866.866,0,0,0-.64-.869,16.515,16.515,0,0,1-4.625-2.082,2.6,2.6,0,0,0-3.541-2.952A21.639,21.639,0,0,1,67.75,6.234c-.014-.023-.03-.046-.046-.068A18.7,18.7,0,0,1,66.2,3.226C65.868,1.015,61.122,0,56.688,0s-9.18,1.015-9.509,3.226a18.7,18.7,0,0,1-1.507,2.94c-.016.022-.031.045-.046.068a21.639,21.639,0,0,1-2.684,3.509A2.595,2.595,0,0,0,39.4,12.694a16.519,16.519,0,0,1-4.625,2.082.866.866,0,0,0-.64.869c.007.2.845,18.189,14.877,26.424a.8.8,0,0,0,.041.087A7.651,7.651,0,0,1,50.278,45.4c-5.528.516-8.336,1.582-8.336,3.174,0,3.3,12.283,3.469,14.746,3.469s14.746-.167,14.746-3.47C71.434,46.981,68.625,45.915,63.094,45.4Zm8.341-34.123a.867.867,0,1,1-.867.867A.868.868,0,0,1,71.434,11.276ZM69.7,15.18a1.3,1.3,0,1,1-1.3-1.3A1.3,1.3,0,0,1,69.7,15.18ZM56.688,1.735c5.028,0,7.629,1.244,7.8,1.735-.175.491-2.776,1.735-7.8,1.735-5.074,0-7.675-1.266-7.808-1.722C49.013,3,51.614,1.735,56.688,1.735ZM47.076,7.19l.036-.053h0c.467-.751.827-1.421,1.1-1.967a6.547,6.547,0,0,0,1.552.776.837.837,0,0,0,.19.066,22.194,22.194,0,0,0,6.739.927,22.194,22.194,0,0,0,6.74-.927.841.841,0,0,0,.187-.065,6.549,6.549,0,0,0,1.554-.777c.27.546.629,1.217,1.1,1.967h0l.036.053a23.348,23.348,0,0,0,2.854,3.724,2.569,2.569,0,0,0-.323,1.23c0,.015,0,.029,0,.044a2.989,2.989,0,0,0-.438-.044,3.03,3.03,0,0,0-3.005,2.735,3.429,3.429,0,0,0-.9-.133,3.469,3.469,0,0,0-3.408,2.861,3.815,3.815,0,0,0-4.4,1.221,3.815,3.815,0,0,0-4.4-1.221,3.469,3.469,0,0,0-3.408-2.861,3.424,3.424,0,0,0-.9.133,3.03,3.03,0,0,0-3.005-2.735,2.987,2.987,0,0,0-.438.044c0-.015,0-.029,0-.044a2.57,2.57,0,0,0-.323-1.23A23.354,23.354,0,0,0,47.076,7.19ZM66.23,18.215a1.735,1.735,0,1,1-1.735-1.735A1.735,1.735,0,0,1,66.23,18.215Zm-4.337,3.036a2.168,2.168,0,1,1-2.168-2.168A2.168,2.168,0,0,1,61.893,21.251Zm-6.072,0a2.168,2.168,0,1,1-2.168-2.168A2.168,2.168,0,0,1,55.821,21.251Zm-5.2-3.036a1.735,1.735,0,1,1-1.735-1.735A1.735,1.735,0,0,1,50.616,18.215Zm-5.638-4.337a1.3,1.3,0,1,1-1.3,1.3A1.3,1.3,0,0,1,44.978,13.878Zm-3.036-2.6a.867.867,0,1,1-.867.867A.867.867,0,0,1,41.942,11.276ZM35.92,16.249a18.261,18.261,0,0,0,4.4-2.083,2.576,2.576,0,0,0,1.618.581c.015,0,.029,0,.044,0a3,3,0,0,0-.044.438,3.04,3.04,0,0,0,3.036,3.036,2.987,2.987,0,0,0,.438-.044c0,.015,0,.029,0,.044a3.473,3.473,0,0,0,3.47,3.47,3.424,3.424,0,0,0,.9-.133,3.873,3.873,0,0,0,6.909,2.122A3.873,3.873,0,0,0,63.6,21.553a3.428,3.428,0,0,0,.9.133,3.473,3.473,0,0,0,3.47-3.47c0-.015,0-.029,0-.044a2.989,2.989,0,0,0,.438.044,3.04,3.04,0,0,0,3.036-3.036,3,3,0,0,0-.044-.438c.015,0,.029,0,.044,0a2.577,2.577,0,0,0,1.618-.581,18.252,18.252,0,0,0,4.405,2.083c-.328,3.616-2.711,20.866-18.444,26.389a7.088,7.088,0,0,1-4.649,0C38.652,37.123,36.252,19.866,35.92,16.249ZM56.688,50.309c-7.551,0-11.895-1.064-12.873-1.731.548-.359,2.347-1.038,6.489-1.439a7.2,7.2,0,0,1-.228,1.2.868.868,0,1,0,1.67.469,9.063,9.063,0,0,0-.173-5.433c.714.322,1.445.628,2.219.9a8.837,8.837,0,0,0,5.794,0c.773-.271,1.5-.578,2.217-.9a9.062,9.062,0,0,0-.173,5.433A.868.868,0,1,0,63.3,48.34a7.277,7.277,0,0,1-.23-1.2c4.144.4,5.942,1.08,6.491,1.439C68.583,49.245,64.239,50.309,56.688,50.309Z" transform="translate(-34.136 0)" fill="#858585"/></g></g></svg>