<svg xmlns="http://www.w3.org/2000/svg" width="60.561" height="52.044" viewBox="0 0 60.561 52.044"><g transform="translate(0)"><path d="M247.179,380a1.183,1.183,0,1,0,1.183,1.183A1.183,1.183,0,0,0,247.179,380Zm0,0" transform="translate(-216.899 -335.049)" fill="#858585"/><path d="M55.7,3.636A4.739,4.739,0,0,0,51.1,0H9.462a4.739,4.739,0,0,0-4.6,3.635C2.178,4.066.409,6.111.053,9.286a6.1,6.1,0,0,0-.01,1.505C.1,17.6,3.7,24.609,8.26,29.583L9.307,48.728c0,.007,0,.013,0,.02a3.562,3.562,0,0,0,3.54,3.3H47.476a3.79,3.79,0,0,0,3.776-3.3v-.02c.1-1.527.895-16.328.984-18a29.88,29.88,0,0,0,8.321-20.405C60.621,7.2,59.049,4.173,55.7,3.636ZM9.462,2.366H51.1a2.369,2.369,0,0,1,2.353,2.122,1.188,1.188,0,0,0,0,.486A2.37,2.37,0,0,1,51.1,7.1H44.474a3.552,3.552,0,0,0-3.549,3.549v9.463a1.183,1.183,0,1,1-2.366,0V17.743a3.549,3.549,0,1,0-7.1,0v4.731a1.183,1.183,0,0,1-2.366,0v-7.1a3.548,3.548,0,1,0-7.1,0v2.366a1.183,1.183,0,0,1-2.366,0v-7.1A3.552,3.552,0,0,0,16.086,7.1H9.462A2.362,2.362,0,0,1,7.112,4.984a1.165,1.165,0,0,0,0-.507A2.369,2.369,0,0,1,9.462,2.366Zm30.8,32.422a3.576,3.576,0,0,0-3.883-1.325,22.567,22.567,0,0,1-12.193,0,3.579,3.579,0,0,0-3.855,1.286,21.453,21.453,0,0,1-9.754-6.156L9.529,9.463h6.557a1.184,1.184,0,0,1,1.183,1.183v7.1a3.549,3.549,0,0,0,7.1,0V15.376a1.183,1.183,0,0,1,2.366,0v7.1a3.549,3.549,0,1,0,7.1,0V17.742a1.183,1.183,0,1,1,2.366,0v2.366a3.548,3.548,0,1,0,7.1,0V10.646a1.184,1.184,0,0,1,1.183-1.183h6.557L49.926,29.686A19.467,19.467,0,0,1,40.26,34.788Zm-18.2,1.691a1.194,1.194,0,0,1,1.482-.739,24.925,24.925,0,0,0,13.476,0,1.182,1.182,0,0,1,1.541,1.119,1.155,1.155,0,0,1-.8,1.129,27.288,27.288,0,0,1-14.966,0A1.185,1.185,0,0,1,22.061,36.479ZM2.367,10.337A5.459,5.459,0,0,1,3.431,6.916a2.824,2.824,0,0,1,1.482-.883A4.722,4.722,0,0,0,7.126,8.847l.917,16.778C1.939,17.506,2.486,10.776,2.367,10.337ZM47.476,49.679H12.848a1.188,1.188,0,0,1-1.18-1.091l-.07-1.274H25.862a1.183,1.183,0,0,0,0-2.366H11.469l-.706-12.913a22.345,22.345,0,0,0,8.878,4.98,3.522,3.522,0,0,0,2.5,3.247,29.653,29.653,0,0,0,16.269,0,3.521,3.521,0,0,0,2.5-3.193,21.354,21.354,0,0,0,8.83-4.119l-.656,12H35.011a1.183,1.183,0,0,0,0,2.366H48.962l-.07,1.274A1.449,1.449,0,0,1,47.476,49.679ZM58.193,10.337A27.673,27.673,0,0,1,52.447,26.9l.987-18.057a4.757,4.757,0,0,0,2.211-2.811,2.82,2.82,0,0,1,1.483.883A5.462,5.462,0,0,1,58.193,10.337Zm0,0" transform="translate(0)" fill="#858585"/></g></svg>