<svg xmlns="http://www.w3.org/2000/svg" width="50.743" height="54.044" viewBox="0 0 50.743 54.044"><g transform="translate(-15.567 0.5)"><path d="M238.4,8.465a16.928,16.928,0,0,0-29.323,0,1.554,1.554,0,0,0,.058,1.65l8.055,11.89v27.82a3.222,3.222,0,0,0,3.219,3.219h6.658a3.222,3.222,0,0,0,3.218-3.219V22.005l8.055-11.89a1.553,1.553,0,0,0,.059-1.65ZM227.175,49.826a.116.116,0,0,1-.11.11h-6.658a.116.116,0,0,1-.11-.11V23.083h6.879Zm.73-29.851h-1.181l.983-2.948a1.554,1.554,0,0,0-2.949-.983l-1.023,3.068-1.023-3.068a1.554,1.554,0,1,0-2.949.983l.983,2.948h-1.181L212.272,9.209a13.818,13.818,0,0,1,22.925,0Z" transform="translate(-172.823)" fill="#858585" stroke="#fff" stroke-width="1"/><path d="M32.6,39.347h-.11V22.591a1.554,1.554,0,0,0-1.554-1.554h-.11V7.61A2.583,2.583,0,0,0,28.262,4.9a2.984,2.984,0,0,0-1.111.222L21.918,7.213A4.211,4.211,0,0,0,19.4,10.939v10.1h-.11a1.554,1.554,0,0,0-1.554,1.554V39.347h-.11A1.554,1.554,0,0,0,16.067,40.9V54.217a3.222,3.222,0,0,0,3.219,3.219H30.937a3.222,3.222,0,0,0,3.219-3.219V40.9A1.554,1.554,0,0,0,32.6,39.347ZM22.5,10.939a1.15,1.15,0,0,1,.569-.84l4.646-1.858v12.8H22.5ZM20.84,24.145h8.544v15.2H20.84ZM31.048,54.217a.116.116,0,0,1-.11.11H19.286a.116.116,0,0,1-.11-.11V42.455H31.048Z" transform="translate(0 -4.391)" fill="#858585" stroke="#fff" stroke-width="1"/></g></svg>