<svg xmlns="http://www.w3.org/2000/svg" width="48.683" height="48.674" viewBox="0 0 48.683 48.674"><g transform="translate(-15.955 -16.024)"><path d="M212.056,432h-3.245a.811.811,0,0,0-.811.811v4.868a.811.811,0,0,0,.811.811h3.245a.811.811,0,0,0,.811-.811v-4.868A.811.811,0,0,0,212.056,432Zm-.811,4.868h-1.623v-3.245h1.623Z" transform="translate(-172.57 -373.792)" fill="#858585"/><path d="M62.2,58.31q0-.052,0-.1a3.249,3.249,0,0,0-3.245-3.245,3.2,3.2,0,0,0-1.146.212A3.244,3.244,0,0,0,54.9,53.34a3.208,3.208,0,0,0-1.623.443,3.208,3.208,0,0,0-1.623-.443,3.244,3.244,0,0,0-2.91,1.835,3.2,3.2,0,0,0-.335-.107V43.584a6.894,6.894,0,1,0,7.344-11.516A6.424,6.424,0,0,0,56.523,29a6.53,6.53,0,0,0-3.463-5.741,5.679,5.679,0,1,0-10.922,0A6.53,6.53,0,0,0,38.675,29a6.425,6.425,0,0,0,.768,3.066,6.892,6.892,0,0,0-1.581,1.012,6.867,6.867,0,0,0-1.578-1.012A6.424,6.424,0,0,0,37.052,29a6.53,6.53,0,0,0-3.463-5.741,5.679,5.679,0,1,0-10.922,0A6.53,6.53,0,0,0,19.2,29a6.425,6.425,0,0,0,.768,3.066,6.894,6.894,0,1,0,7.344,11.516V53.34H18.393a.811.811,0,0,0-.811.811v5.679H16.77a.811.811,0,1,0,0,1.623h.811v2.434a.811.811,0,0,0,1.623,0V61.453h8.113v2.434a.811.811,0,0,0,1.623,0V61.453h1.623v2.434a.811.811,0,0,0,1.623,0V61.453H33a.811.811,0,0,0,0-1.623h-.811V54.152a.811.811,0,0,0-.811-.811H28.94V43.584a6.877,6.877,0,0,0,8.922,0,6.882,6.882,0,0,0,8.926,0V55.066a3.251,3.251,0,0,0-2.434,3.142q0,.051,0,.1a3.245,3.245,0,0,0,.809,6.388H61.391A3.245,3.245,0,0,0,62.2,58.31Zm-43,1.52V58.208h8.113v1.623Zm9.735-1.623h1.623v1.623H28.94Zm1.623-1.623H19.2V54.963H30.562ZM33.4,43.605a5.292,5.292,0,0,1-4.462-2.466V33.394l3.008-3.008A.811.811,0,1,0,30.8,29.24L28.94,31.1V28.191a.811.811,0,1,0-1.623,0v8.588l-1.86-1.86a.811.811,0,1,0-1.147,1.147l3.008,3.008v2.066a5.273,5.273,0,1,1-5.894-7.883.811.811,0,0,0,.422-1.278A4.818,4.818,0,0,1,20.827,29a4.894,4.894,0,0,1,3.146-4.553.811.811,0,0,0,.453-1.091,4.056,4.056,0,1,1,7.4,0,.811.811,0,0,0,.453,1.091A4.894,4.894,0,0,1,35.43,29a4.818,4.818,0,0,1-1.018,2.977.811.811,0,0,0,.422,1.278A5.273,5.273,0,0,1,33.4,43.605Zm8.924,0a5.292,5.292,0,0,1-3.357-1.21,6.868,6.868,0,0,0,0-8.126,5.258,5.258,0,0,1,1.928-1.013.811.811,0,0,0,.422-1.278A4.818,4.818,0,0,1,40.3,29a4.894,4.894,0,0,1,3.146-4.553.811.811,0,0,0,.453-1.091,4.056,4.056,0,1,1,7.4,0,.811.811,0,0,0,.453,1.091A4.894,4.894,0,0,1,54.9,29a4.818,4.818,0,0,1-1.018,2.977.811.811,0,0,0,.422,1.278,5.273,5.273,0,1,1-5.894,7.883V33.394l3.008-3.008a.811.811,0,0,0-1.147-1.147L48.41,31.1V28.191a.811.811,0,1,0-1.623,0h0v8.588l-1.86-1.86a.811.811,0,0,0-1.147,1.147l3.008,3.008v2.066a5.292,5.292,0,0,1-4.462,2.466ZM61.391,63.076H45.165a1.623,1.623,0,0,1-.024-3.245h0c.041.006.083.011.125.013a.811.811,0,0,0,.814-1.087,1.6,1.6,0,0,1-.105-.549,1.614,1.614,0,0,1,2.714-1.19.811.811,0,0,0,1.358-.542,1.622,1.622,0,0,1,1.608-1.512,1.6,1.6,0,0,1,1.08.423.811.811,0,0,0,1.086,0,1.6,1.6,0,0,1,1.08-.423,1.622,1.622,0,0,1,1.608,1.512.811.811,0,0,0,1.358.542,1.614,1.614,0,0,1,2.714,1.19,1.6,1.6,0,0,1-.105.55.811.811,0,0,0,.814,1.087c.042,0,.084-.008.125-.013h0a1.623,1.623,0,1,1-.024,3.245Z" transform="translate(0)" fill="#858585"/><circle cx="0.811" cy="0.811" r="0.811" transform="translate(52.467 57.397)" fill="#858585"/><circle cx="0.811" cy="0.811" r="0.811" transform="translate(57.334 59.019)" fill="#858585"/><circle cx="0.811" cy="0.811" r="0.811" transform="translate(47.599 59.831)" fill="#858585"/></g></svg>