<svg xmlns="http://www.w3.org/2000/svg" width="53" height="53" viewBox="0 0 53 53"><rect width="53" height="2" transform="translate(0 51)" fill="#858585"/><path d="M24.884,305.681h8.841a.884.884,0,0,0,.884-.884V288.884a.884.884,0,0,0-.884-.884H24.884a.884.884,0,0,0-.884.884V304.8A.884.884,0,0,0,24.884,305.681Zm.884-15.913h7.073v14.145H25.768Z" transform="translate(-21.348 -256.173)" fill="#858585"/><path d="M248.884,220.29h8.841a.884.884,0,0,0,.884-.884V192.884a.884.884,0,0,0-.884-.884h-8.841a.884.884,0,0,0-.884.884v26.522A.884.884,0,0,0,248.884,220.29Zm.884-26.522h7.073v24.754h-7.073Z" transform="translate(-220.594 -170.782)" fill="#858585"/><path d="M136.884,134.9h8.841a.884.884,0,0,0,.884-.884V96.884a.884.884,0,0,0-.884-.884h-8.841a.884.884,0,0,0-.884.884v37.131A.884.884,0,0,0,136.884,134.9Zm.884-37.131h7.073v35.363h-7.073Z" transform="translate(-120.971 -85.391)" fill="#858585"/><path d="M360.884,49.508h8.841a.884.884,0,0,0,.884-.884V.884A.884.884,0,0,0,369.725,0h-8.841A.884.884,0,0,0,360,.884v47.74A.884.884,0,0,0,360.884,49.508Zm.884-47.74h7.073V47.74h-7.073Z" transform="translate(-320.217)" fill="#858585"/></svg>