<svg xmlns="http://www.w3.org/2000/svg" width="65" height="48.306" viewBox="0 0 65 48.306"><path d="M120.14,196.042a2.668,2.668,0,0,0,4.553,1.886l3.175-3.175h0a2.667,2.667,0,1,0-3.772-3.772l-3.175,3.175A2.65,2.65,0,0,0,120.14,196.042Zm6.384-3.717a.768.768,0,0,1,0,1.084l-.915.916-1.084-1.084.916-.916A.768.768,0,0,1,126.524,192.325Zm-4.259,3.175.916-.916,1.084,1.084-.916.916a.767.767,0,1,1-1.084-1.084Z" transform="translate(-98.693 -182.745)" fill="#858585"/><path d="M64.048,177.9h-2.4l-.262-2.644a.952.952,0,0,0-1.9.187l.243,2.456H48.608V168.99H58.85l.954,9.6a.953.953,0,0,0,.946.858c.031,0,.063,0,.095,0A.952.952,0,0,0,61.7,178.4c-.064-.649-4.1-41.39-4.145-41.838H57.9a1.548,1.548,0,0,0,1.546-1.546v-1.978a1.548,1.548,0,0,0-1.546-1.546H43.56a1.548,1.548,0,0,0-1.546,1.546v1.978a1.548,1.548,0,0,0,1.546,1.546h.349l-.965,9.754v.012l-.349,3.522H40.647V137.317a2.659,2.659,0,0,0-2.656-2.656H15.631a.952.952,0,0,0,0,1.9h22.36a.752.752,0,0,1,.751.751v12.536H13.107V137.317a.752.752,0,0,1,.751-.751H16.2a.952.952,0,0,0,0-1.9H13.859a2.659,2.659,0,0,0-2.656,2.656v12.536H1.655A1.657,1.657,0,0,0,0,151.509v1.88a1.657,1.657,0,0,0,1.655,1.655H3.242v14.345a.952.952,0,0,0,1.9,0V155.045H46.7V177.9H36.529v-7.764a1.7,1.7,0,0,0-1.7-1.7H17.017a1.7,1.7,0,0,0-1.7,1.7V177.9H5.146v-9.523a.952.952,0,0,0-1.9,0V177.9H.952a.952.952,0,1,0,0,1.9h63.1a.952.952,0,0,0,0-1.9Zm-15.44-10.811v-8.9h9.173l.881,8.9Zm7.913-21.624H44.943l.88-8.9h9.818ZM43.918,133.4H57.545v1.262H43.918ZM1.9,153.14v-1.382H49.945v1.382Zm48.29,1.9a1.657,1.657,0,0,0,1.655-1.655v-1.88a1.657,1.657,0,0,0-1.655-1.655H44.508l.246-2.487H56.71l.883,8.918H48.608v-1.24h1.587Zm-32.97,15.3h7.748V177.9H17.225Zm9.652,7.556v-7.556h7.748V177.9Z" transform="translate(0 -131.495)" fill="#858585"/><path d="M62.227,344.019a1.6,1.6,0,0,0,1.6-1.6v-5.39a1.6,1.6,0,0,0-1.6-1.6H58.308a1.6,1.6,0,0,0-1.6,1.6v5.39a1.6,1.6,0,0,0,1.6,1.6Zm-3.62-6.691h3.32v4.791h-3.32Z" transform="translate(-49.523 -309.526)" fill="#858585"/><path d="M141.825,344.019a1.6,1.6,0,0,0,1.6-1.6v-5.39a1.6,1.6,0,0,0-1.6-1.6h-3.919a1.6,1.6,0,0,0-1.6,1.6v5.39a1.6,1.6,0,0,0,1.6,1.6Zm-3.62-6.691h3.32v4.791h-3.32Z" transform="translate(-118.996 -309.526)" fill="#858585"/><path d="M221.424,344.019a1.6,1.6,0,0,0,1.6-1.6v-5.39a1.6,1.6,0,0,0-1.6-1.6h-3.919a1.6,1.6,0,0,0-1.6,1.6v5.39a1.6,1.6,0,0,0,1.6,1.6Zm-3.619-6.691h3.32v4.791H217.8Z" transform="translate(-188.487 -309.526)" fill="#858585"/><path d="M301.023,344.019a1.6,1.6,0,0,0,1.6-1.6v-5.39a1.6,1.6,0,0,0-1.6-1.6H297.1a1.6,1.6,0,0,0-1.6,1.6v5.39a1.6,1.6,0,0,0,1.6,1.6Zm-3.62-6.691h3.32v4.791H297.4Z" transform="translate(-257.979 -309.526)" fill="#858585"/></svg>