<svg xmlns="http://www.w3.org/2000/svg" width="41.982" height="53.044" viewBox="0 0 41.982 53.044"><g transform="translate(-53.387 0)"><path d="M89.691,34.655l-3.113-.914L79.8,29.317V28.3a9.015,9.015,0,0,0,3.558-6.332,2.07,2.07,0,0,0,1.737-2.04V17.144c0-.011,0-.021,0-.032V13.581a1.532,1.532,0,0,0,.64-1.25V9.1l4.674-.8a1.657,1.657,0,0,0,.224-3.213L74.879.078a1.649,1.649,0,0,0-1,0L58.116,5.09A1.663,1.663,0,0,0,57.6,7.983v4.226h-.039a1.611,1.611,0,0,0-1.609,1.609v2.1l-1.039,6.1a1.73,1.73,0,0,0,1.7,2.02h3.517a1.73,1.73,0,0,0,1.7-2.02l-1.039-6.1v-2.1a1.611,1.611,0,0,0-1.609-1.609h-.038V8.441l3.864.658V12.33a1.533,1.533,0,0,0,.637,1.248v6.353a2.07,2.07,0,0,0,1.737,2.04A9.015,9.015,0,0,0,68.948,28.3v1.018l-6.772,4.423-3.111.913a7.9,7.9,0,0,0-5.679,7.585v2.316a.777.777,0,0,0,1.554,0V42.24A6.386,6.386,0,0,1,59.5,36.146l2.9-.851,11.579,6.881a.786.786,0,0,0,.794,0l11.58-6.881,2.9.851a6.386,6.386,0,0,1,4.562,6.094v7.5A1.748,1.748,0,0,1,92.07,51.49H88.645V48.141a.777.777,0,1,0-1.554,0V51.49H61.662V48.141a.777.777,0,0,0-1.554,0V51.49H56.687a1.748,1.748,0,0,1-1.746-1.746V48.188a.777.777,0,1,0-1.554,0v1.556a3.3,3.3,0,0,0,3.3,3.3H92.07a3.3,3.3,0,0,0,3.3-3.3v-7.5a7.9,7.9,0,0,0-5.678-7.585ZM60.136,22.478H56.619a.175.175,0,0,1-.173-.2l.94-5.515h1.984l.94,5.515A.175.175,0,0,1,60.136,22.478Zm-.888-8.661V15.2H57.506V13.818a.055.055,0,0,1,.055-.055h1.631A.055.055,0,0,1,59.248,13.818ZM71.6,38.661l.309.475-7.933-4.714,5.035-3.289A16.321,16.321,0,0,0,71.6,38.661Zm-.005-3.354a19.98,19.98,0,0,0,5.569,0,14.84,14.84,0,0,1-1.308,2.507l-1.476,2.269L72.9,37.814a14.842,14.842,0,0,1-1.308-2.507Zm5.563,3.354a16.32,16.32,0,0,0,2.588-7.527l5.035,3.289-7.933,4.714ZM81.7,13.87h1.842v2.5H82.63a.929.929,0,0,1-.928-.928V13.87Zm-23.115-7.3L74.345,1.559a.1.1,0,0,1,.062,0L90.166,6.571a.087.087,0,0,1,.071.105c-.006.081-.052.089-.086.094l-5.21.887-1.956-.242A.777.777,0,1,0,82.8,8.959l1.389.172v3.186H64.572V9.13l8.04-.995a14.393,14.393,0,0,1,3.529,0l3.043.376a.777.777,0,0,0,.191-1.542l-3.043-.376a15.94,15.94,0,0,0-3.91,0L63.813,7.658,58.6,6.771c-.034-.006-.08-.014-.086-.094a.087.087,0,0,1,.072-.105Zm6.623,9.8v-2.5h1.845v1.569a.929.929,0,0,1-.928.928h-.916Zm1.71,5.205a1.2,1.2,0,0,0-1.2-1.128.513.513,0,0,1-.513-.513v-2.01h.916a2.484,2.484,0,0,0,2.482-2.481V13.87h11.54v1.569a2.484,2.484,0,0,0,2.482,2.481h.916v2.01a.513.513,0,0,1-.513.513,1.2,1.2,0,0,0-1.2,1.128,7.473,7.473,0,0,1-14.915,0Zm7.457,8.551a8.968,8.968,0,0,0,3.872-.878v.492a14.809,14.809,0,0,1-.524,3.9,18.347,18.347,0,0,1-6.7,0,14.807,14.807,0,0,1-.524-3.9c0-.016,0-.033,0-.049s0-.006,0-.01v-.436A8.969,8.969,0,0,0,74.378,30.123Z" transform="translate(0 0)" fill="#858585"/></g></svg>