<svg xmlns="http://www.w3.org/2000/svg" viewBox="0 0 965.8 356.6"><defs><style>.cls-1{fill:#fff;}.cls-2{fill:#3782c4;}.cls-3{fill:#ee3f60;}.cls-4{fill:#f38020;}.cls-5{fill:#8ac440;}.cls-6{fill:#00b199;}</style></defs><g id="Layer_1" data-name="Layer 1"><path class="cls-1" d="M68.7,366.8a29.09,29.09,0,0,0,8.7,5.9,27.12,27.12,0,0,0,21.4,0,29.09,29.09,0,0,0,8.7-5.9,27.35,27.35,0,0,0,5.9-8.7,27.12,27.12,0,0,0,0-21.4,29.09,29.09,0,0,0-5.9-8.7,27.07,27.07,0,0,0-8.7-5.8A27.37,27.37,0,0,0,88,320.1a26.74,26.74,0,0,0-10.6,2.1,26.66,26.66,0,0,0-14.5,14.5,28.31,28.31,0,0,0,0,21.4A27.07,27.07,0,0,0,68.7,366.8Z" transform="translate(-29.1 -319.6)"/><path class="cls-1" d="M130.4,366.8a29.09,29.09,0,0,0,8.7,5.9,27.12,27.12,0,0,0,21.4,0,27.91,27.91,0,0,0,14.6-14.6,25.83,25.83,0,0,0,2.2-10.6,27.42,27.42,0,0,0-2.2-10.8,29.09,29.09,0,0,0-5.9-8.7,27.07,27.07,0,0,0-8.7-5.8,27.37,27.37,0,0,0-10.8-2.1,26.74,26.74,0,0,0-10.6,2.1,26.66,26.66,0,0,0-14.5,14.5,28.31,28.31,0,0,0,0,21.4A27.07,27.07,0,0,0,130.4,366.8Z" transform="translate(-29.1 -319.6)"/><path class="cls-1" d="M196.7,415.9a30.08,30.08,0,0,0-6.8-10,32.24,32.24,0,0,0-10-6.6,30.74,30.74,0,0,0-12.1-2.4H114.1a82.09,82.09,0,0,0-33.2,6.7,87.1,87.1,0,0,0-27,18.3A85.58,85.58,0,0,0,35.7,449a83.6,83.6,0,0,0-6.6,33.1v63.8a28.12,28.12,0,0,0,6,14.1A38.73,38.73,0,0,0,47,569.5a67.1,67.1,0,0,0,15.8,5.8,130.64,130.64,0,0,0,17.7,2.9c6,.5,11.9.9,17.8,1s11.1.2,15.8.2a258.38,258.38,0,0,0,32.9-2.1,230.83,230.83,0,0,0,31.7-6.2,25.42,25.42,0,0,0,14.8-8.9,24.57,24.57,0,0,0,5.9-16.3l-.2-117.4A31.15,31.15,0,0,0,196.7,415.9ZM147.9,525.3a202.72,202.72,0,0,1-33.7,2.9v.1h-2.1q-8.1,0-15-.3a96.39,96.39,0,0,1-16.5-2.4l-.2-43.3a33.89,33.89,0,0,1,2.6-13,32.39,32.39,0,0,1,7.2-10.9,35.93,35.93,0,0,1,10.9-7.5,30.4,30.4,0,0,1,13-2.8c5.7,0,11.3,0,17,.1s11.3.1,16.8.1Z" transform="translate(-29.1 -319.6)"/><path class="cls-1" d="M398.1,366.8a29.09,29.09,0,0,0,8.7,5.9,27.12,27.12,0,0,0,21.4,0,27.91,27.91,0,0,0,14.6-14.6,25.83,25.83,0,0,0,2.2-10.6,27.42,27.42,0,0,0-2.2-10.8,29.09,29.09,0,0,0-5.9-8.7,27.07,27.07,0,0,0-8.7-5.8,27.37,27.37,0,0,0-10.8-2.1,26.74,26.74,0,0,0-10.6,2.1,26.66,26.66,0,0,0-14.5,14.5,28.31,28.31,0,0,0,0,21.4A27.07,27.07,0,0,0,398.1,366.8Z" transform="translate(-29.1 -319.6)"/><path class="cls-1" d="M459.8,366.8a29.09,29.09,0,0,0,8.7,5.9,27.12,27.12,0,0,0,21.4,0,29.09,29.09,0,0,0,8.7-5.9,27.35,27.35,0,0,0,5.9-8.7,27.12,27.12,0,0,0,0-21.4,27.35,27.35,0,0,0-5.9-8.7,27.07,27.07,0,0,0-8.7-5.8,27.37,27.37,0,0,0-10.8-2.1,26.74,26.74,0,0,0-10.6,2.1A26.66,26.66,0,0,0,454,336.7a28.31,28.31,0,0,0,0,21.4A27.07,27.07,0,0,0,459.8,366.8Z" transform="translate(-29.1 -319.6)"/><path class="cls-1" d="M635,366.8a27.07,27.07,0,0,0,8.7,5.8,28.31,28.31,0,0,0,21.4,0,27.07,27.07,0,0,0,8.7-5.8,29.09,29.09,0,0,0,5.9-8.7,25.83,25.83,0,0,0,2.2-10.6,27.42,27.42,0,0,0-2.2-10.8,29.09,29.09,0,0,0-5.9-8.7,27.07,27.07,0,0,0-8.7-5.8,27.37,27.37,0,0,0-10.8-2.1,26.74,26.74,0,0,0-10.6,2.1,26.66,26.66,0,0,0-14.5,14.5,28.31,28.31,0,0,0,0,21.4A27.07,27.07,0,0,0,635,366.8Z" transform="translate(-29.1 -319.6)"/><path class="cls-1" d="M738.4,429a30.41,30.41,0,0,0-2.5-12.3,31.39,31.39,0,0,0-6.6-10.3,29.36,29.36,0,0,0-9.9-6.9,29.68,29.68,0,0,0-12.2-2.6h-53c-13.6,0-25.7,2.6-36.1,7.7a80.34,80.34,0,0,0-26.3,20.3,86.89,86.89,0,0,0-16,28.9,104.78,104.78,0,0,0-5.4,33.4,107.23,107.23,0,0,0,1.8,19.8,95.34,95.34,0,0,0,5.5,18.7h-74V403.6H452.6V525.7H362.4v.1H335.9c.1-4.3.2-7.9.3-10.7s.1-6.4.1-10.7c0-12.8-.2-25.6-.8-38.4s-.9-25.3-1-37.4l.3-4H283.3c0,12.6.2,25.5.7,38.7s.7,26.3.7,39.3c0,9.7-.2,19.4-.7,29.2a210.83,210.83,0,0,1-3.3,28.3,131.84,131.84,0,0,1-7.6,25.4A65.34,65.34,0,0,1,259.8,606a60.6,60.6,0,0,1-20.7,13.8q-12.3,5.1-29.7,5.1v51.3c18.6,0,34.7-2.6,48.4-7.8s25.3-12.2,34.8-21.2a109.94,109.94,0,0,0,23.2-31.5A174,174,0,0,0,329.5,577H713.1a25.25,25.25,0,0,0,9.8-2,26.86,26.86,0,0,0,8.2-5.5,25.18,25.18,0,0,0,5.5-8.2,25.5,25.5,0,0,0,2-10Zm-51.2,96.7H654.1q-11.55,0-18.9-6a34,34,0,0,1-10.4-14.9,50.5,50.5,0,0,1-3.4-17.6,51.48,51.48,0,0,1,2-14,39.11,39.11,0,0,1,6-12.5,30.24,30.24,0,0,1,10.1-9,29.19,29.19,0,0,1,14.6-3.4h33.1Z" transform="translate(-29.1 -319.6)"/></g><g id="Layer_2" data-name="Layer 2"><path class="cls-2" d="M940.32,427q-1.92-17.61-7.18-29.6H841.6v.07a14.8,14.8,0,0,0,0,29.46V427Z" transform="translate(-29.1 -319.6)"/><path class="cls-3" d="M941,434.9H822.8V435a14.8,14.8,0,0,0,0,29.46v.07h118q.6-7.53.6-15.8Q941.4,441.46,941,434.9Z" transform="translate(-29.1 -319.6)"/><path class="cls-4" d="M885.2,509.9H871.9V510a14.79,14.79,0,0,0,0,29.46v.07h13.3v-2.17l.3,0a71.48,71.48,0,0,0,15.5-3.5,44.35,44.35,0,0,0,13.9-8,60.88,60.88,0,0,0,13.28-15.9Z" transform="translate(-29.1 -319.6)"/><path class="cls-5" d="M901.1,366.5A108.38,108.38,0,0,0,885.2,363V359.9H871.9V360a14.79,14.79,0,0,0,0,29.46v.07h57C921.3,377.51,912.08,369.87,901.1,366.5Z" transform="translate(-29.1 -319.6)"/><path class="cls-6" d="M843.1,472.4h-1.5v.08a14.79,14.79,0,0,0,0,29.44V502h90.6A108.5,108.5,0,0,0,940,472.4Z" transform="translate(-29.1 -319.6)"/></g><g id="Layer_3" data-name="Layer 3"><path class="cls-1" d="M954.2,343.3a83.32,83.32,0,0,0-34.8-18.7c-12.8-3.3-28.1-5-46-5H804.6c-11.4,0-19.6,2.5-24.7,7.6s-7.6,13.3-7.6,24.7v9.4h87.6q3.51,0,6.85.11c1.75,0,3.47.13,5.15.23q7,.42,13.3,1.35a108.38,108.38,0,0,1,15.9,3.51c11,3.37,20.2,11,27.82,23,.3.46.59.93.88,1.4a57.34,57.34,0,0,1,3.34,6.5q5.26,12,7.18,29.6c.27,2.54.5,5.18.67,7.9q.4,6.56.41,13.8,0,8.26-.6,15.8c-.22,2.71-.49,5.34-.83,7.9A108.5,108.5,0,0,1,932.2,502a73,73,0,0,1-4,7.9,60.88,60.88,0,0,1-13.28,15.9,44.35,44.35,0,0,1-13.9,8,71.48,71.48,0,0,1-15.5,3.5l-.3,0c-3.53.34-7.94.53-13.3.62-1.62,0-3.34,0-5.14,0H772.1v4.9c0,8.4.7,15.2,2.2,20.5a20.14,20.14,0,0,0,9.5,12.3c4.9,2.9,12.1,4.4,21.7,4.4h68.8a208.5,208.5,0,0,0,32.3-2.3,101.69,101.69,0,0,0,26.8-8,90,90,0,0,0,22.9-15.1,108.46,108.46,0,0,0,21.9-27.8A124.47,124.47,0,0,0,990.8,492a209.41,209.41,0,0,0,4.1-42.8Q994.9,378.1,954.2,343.3Z" transform="translate(-29.1 -319.6)"/></g></svg>