<svg width="18" height="18" viewBox="0 0 18 18" fill="none" xmlns="http://www.w3.org/2000/svg">
<path fill-rule="evenodd" clip-rule="evenodd" d="M8.73719 17.3149L7.45864 17.8876C6.9026 18.1366 6.2481 17.9612 5.89108 17.4675L5.07016 16.3323C4.9628 16.1838 4.79721 16.0882 4.61496 16.0695L3.22136 15.9262C2.61529 15.8638 2.13617 15.3847 2.07383 14.7786L1.9305 13.385C1.91176 13.2028 1.81615 13.0372 1.6677 12.9298L0.532471 12.1089C0.0387663 11.7519 -0.136605 11.0974 0.112447 10.5414L0.685116 9.2628C0.760006 9.0956 0.760006 8.9044 0.685116 8.73719L0.112447 7.45864C-0.136605 6.9026 0.0387663 6.2481 0.532471 5.89108L1.6677 5.07015C1.81615 4.9628 1.91176 4.79721 1.9305 4.61496L2.07383 3.22136C2.13617 2.61529 2.61529 2.13617 3.22136 2.07383L4.61496 1.9305C4.79721 1.91176 4.9628 1.81615 5.07016 1.66769L5.89108 0.532471C6.2481 0.0387664 6.9026 -0.136605 7.45864 0.112447L8.73719 0.685112C8.9044 0.760002 9.0956 0.760002 9.26281 0.685112L10.5414 0.112447C11.0974 -0.136605 11.7519 0.0387664 12.1089 0.532471L12.9298 1.66769C13.0372 1.81615 13.2028 1.91176 13.385 1.9305L14.7786 2.07383C15.3847 2.13617 15.8638 2.61529 15.9262 3.22136L16.0695 4.61496C16.0882 4.79721 16.1838 4.9628 16.3323 5.07015L17.4675 5.89108C17.9612 6.2481 18.1366 6.9026 17.8876 7.45864L17.3149 8.73719C17.24 8.9044 17.24 9.0956 17.3149 9.2628L17.8876 10.5414C18.1366 11.0974 17.9612 11.7519 17.4675 12.1089L16.3323 12.9298C16.1838 13.0372 16.0882 13.2028 16.0695 13.385L15.9262 14.7786C15.8638 15.3847 15.3847 15.8638 14.7786 15.9262L13.385 16.0695C13.2028 16.0882 13.0372 16.1838 12.9298 16.3323L12.1089 17.4675C11.7519 17.9612 11.0974 18.1366 10.5414 17.8876L9.26281 17.3149C9.0956 17.24 8.9044 17.24 8.73719 17.3149ZM5.52636 7.78382L4.4353 8.87488L8.09802 12.5376L13.7205 6.9151L12.6295 5.82403L8.09802 10.3555L5.52636 7.78382Z" fill="#7E859B"/>
</svg>
